<?xml version="1.0" encoding="UTF-8" standalone="no"?>
<!DOCTYPE svg PUBLIC "-//W3C//DTD SVG 1.1//EN"
 "http://www.w3.org/Graphics/SVG/1.1/DTD/svg11.dtd">
<!-- Generated by graphviz version 2.40.1 (20161225.0304)
 -->
<!-- Title: G Pages: 1 -->
<svg width="1642pt" height="592pt"
 viewBox="0.00 0.00 1642.29 591.85" xmlns="http://www.w3.org/2000/svg" xmlns:xlink="http://www.w3.org/1999/xlink">
<g id="graph0" class="graph" transform="scale(1 1) rotate(0) translate(21.6 570.2474)">
<title>G</title>
<polygon fill="#111111" stroke="transparent" points="-21.6,21.6 -21.6,-570.2474 1620.6859,-570.2474 1620.6859,21.6 -21.6,21.6"/>
<!-- common/brush&#45;chains.js -->
<g id="node1" class="node">
<title>common/brush&#45;chains.js</title>
<path fill="none" stroke="#c6c5fe" d="M472.0637,-141.407C472.0637,-141.407 320.7478,-141.407 320.7478,-141.407 316.7148,-141.407 312.6819,-137.3741 312.6819,-133.3411 312.6819,-133.3411 312.6819,-125.2752 312.6819,-125.2752 312.6819,-121.2423 316.7148,-117.2093 320.7478,-117.2093 320.7478,-117.2093 472.0637,-117.2093 472.0637,-117.2093 476.0967,-117.2093 480.1296,-121.2423 480.1296,-125.2752 480.1296,-125.2752 480.1296,-133.3411 480.1296,-133.3411 480.1296,-137.3741 476.0967,-141.407 472.0637,-141.407"/>
<text text-anchor="middle" x="396.4058" y="-126.1575" font-family="Arial" font-size="14.00" fill="#c6c5fe">common/brush&#45;chains.js</text>
</g>
<!-- common/search&#45;path.js -->
<g id="node2" class="node">
<title>common/search&#45;path.js</title>
<path fill="none" stroke="#c6c5fe" d="M670.2361,-141.407C670.2361,-141.407 525.3605,-141.407 525.3605,-141.407 521.3276,-141.407 517.2946,-137.3741 517.2946,-133.3411 517.2946,-133.3411 517.2946,-125.2752 517.2946,-125.2752 517.2946,-121.2423 521.3276,-117.2093 525.3605,-117.2093 525.3605,-117.2093 670.2361,-117.2093 670.2361,-117.2093 674.2691,-117.2093 678.302,-121.2423 678.302,-125.2752 678.302,-125.2752 678.302,-133.3411 678.302,-133.3411 678.302,-137.3741 674.2691,-141.407 670.2361,-141.407"/>
<text text-anchor="middle" x="597.7983" y="-126.1575" font-family="Arial" font-size="14.00" fill="#c6c5fe">common/search&#45;path.js</text>
</g>
<!-- common/brush&#45;chains.js&#45;&gt;common/search&#45;path.js -->
<g id="edge1" class="edge">
<title>common/brush&#45;chains.js&#45;&gt;common/search&#45;path.js</title>
<path fill="none" stroke="#757575" d="M480.356,-129.3082C489.2172,-129.3082 498.2564,-129.3082 507.1886,-129.3082"/>
<polygon fill="#757575" stroke="#757575" points="507.2128,-132.8083 517.2128,-129.3082 507.2127,-125.8083 507.2128,-132.8083"/>
</g>
<!-- config.js -->
<g id="node3" class="node">
<title>config.js</title>
<path fill="none" stroke="#cfffac" d="M1591.2002,-308.407C1591.2002,-308.407 1539.6133,-308.407 1539.6133,-308.407 1535.5803,-308.407 1531.5474,-304.3741 1531.5474,-300.3411 1531.5474,-300.3411 1531.5474,-292.2752 1531.5474,-292.2752 1531.5474,-288.2423 1535.5803,-284.2093 1539.6133,-284.2093 1539.6133,-284.2093 1591.2002,-284.2093 1591.2002,-284.2093 1595.2332,-284.2093 1599.2661,-288.2423 1599.2661,-292.2752 1599.2661,-292.2752 1599.2661,-300.3411 1599.2661,-300.3411 1599.2661,-304.3741 1595.2332,-308.407 1591.2002,-308.407"/>
<text text-anchor="middle" x="1565.4067" y="-293.1575" font-family="Arial" font-size="14.00" fill="#cfffac">config.js</text>
</g>
<!-- common/brush&#45;chains.js&#45;&gt;config.js -->
<g id="edge2" class="edge">
<title>common/brush&#45;chains.js&#45;&gt;config.js</title>
<path fill="none" stroke="#757575" d="M439.8089,-117.2295C513.9647,-97.689 670.0947,-61.3082 804.6323,-61.3082 804.6323,-61.3082 804.6323,-61.3082 1209.728,-61.3082 1337.4041,-61.3082 1395.7188,-8.9392 1495.7275,-88.3082 1525.5474,-111.9738 1551.2885,-225.5356 1561.1342,-274.1484"/>
<polygon fill="#757575" stroke="#757575" points="1557.7599,-275.126 1563.1401,-284.2531 1564.6259,-273.7629 1557.7599,-275.126"/>
</g>
<!-- common/search&#45;path.js&#45;&gt;config.js -->
<g id="edge8" class="edge">
<title>common/search&#45;path.js&#45;&gt;config.js</title>
<path fill="none" stroke="#757575" d="M678.5775,-120.0624C762.6688,-111.2477 898.2543,-99.3082 1015.7388,-99.3082 1015.7388,-99.3082 1015.7388,-99.3082 1209.728,-99.3082 1338.2676,-99.3082 1393.2101,-64.7673 1495.7275,-142.3082 1538.5992,-174.735 1555.7935,-239.6025 1562.1068,-273.8842"/>
<polygon fill="#757575" stroke="#757575" points="1558.6752,-274.5832 1563.7929,-283.86 1565.5773,-273.4165 1558.6752,-274.5832"/>
</g>
<!-- common/tilesets/tilesets.js -->
<g id="node7" class="node">
<title>common/tilesets/tilesets.js</title>
<path fill="none" stroke="#c6c5fe" d="M885.6733,-151.407C885.6733,-151.407 723.5913,-151.407 723.5913,-151.407 719.5584,-151.407 715.5254,-147.3741 715.5254,-143.3411 715.5254,-143.3411 715.5254,-135.2752 715.5254,-135.2752 715.5254,-131.2423 719.5584,-127.2093 723.5913,-127.2093 723.5913,-127.2093 885.6733,-127.2093 885.6733,-127.2093 889.7063,-127.2093 893.7392,-131.2423 893.7392,-135.2752 893.7392,-135.2752 893.7392,-143.3411 893.7392,-143.3411 893.7392,-147.3741 889.7063,-151.407 885.6733,-151.407"/>
<text text-anchor="middle" x="804.6323" y="-136.1575" font-family="Arial" font-size="14.00" fill="#c6c5fe">common/tilesets/tilesets.js</text>
</g>
<!-- common/search&#45;path.js&#45;&gt;common/tilesets/tilesets.js -->
<g id="edge7" class="edge">
<title>common/search&#45;path.js&#45;&gt;common/tilesets/tilesets.js</title>
<path fill="none" stroke="#757575" d="M678.358,-133.2031C687.1762,-133.6294 696.2278,-134.067 705.2386,-134.5027"/>
<polygon fill="#757575" stroke="#757575" points="705.2228,-138.0059 715.3802,-134.993 705.5609,-131.0141 705.2228,-138.0059"/>
</g>
<!-- common/brush&#45;markers.js -->
<g id="node4" class="node">
<title>common/brush&#45;markers.js</title>
<path fill="none" stroke="#c6c5fe" d="M1487.5685,-349.407C1487.5685,-349.407 1326.0731,-349.407 1326.0731,-349.407 1322.0402,-349.407 1318.0072,-345.3741 1318.0072,-341.3411 1318.0072,-341.3411 1318.0072,-333.2752 1318.0072,-333.2752 1318.0072,-329.2423 1322.0402,-325.2093 1326.0731,-325.2093 1326.0731,-325.2093 1487.5685,-325.2093 1487.5685,-325.2093 1491.6014,-325.2093 1495.6344,-329.2423 1495.6344,-333.2752 1495.6344,-333.2752 1495.6344,-341.3411 1495.6344,-341.3411 1495.6344,-345.3741 1491.6014,-349.407 1487.5685,-349.407"/>
<text text-anchor="middle" x="1406.8208" y="-334.1575" font-family="Arial" font-size="14.00" fill="#c6c5fe">common/brush&#45;markers.js</text>
</g>
<!-- common/brush&#45;markers.js&#45;&gt;config.js -->
<g id="edge3" class="edge">
<title>common/brush&#45;markers.js&#45;&gt;config.js</title>
<path fill="none" stroke="#757575" d="M1460.0475,-325.1717C1471.8234,-322.3654 1484.2194,-319.3171 1495.7275,-316.3082 1504.1291,-314.1115 1513.0637,-311.646 1521.6337,-309.2162"/>
<polygon fill="#757575" stroke="#757575" points="1522.8228,-312.5165 1531.4727,-306.3985 1520.8956,-305.787 1522.8228,-312.5165"/>
</g>
<!-- common/image&#45;lib.js -->
<g id="node5" class="node">
<title>common/image&#45;lib.js</title>
<path fill="none" stroke="#c6c5fe" d="M1274.0347,-307.407C1274.0347,-307.407 1145.4214,-307.407 1145.4214,-307.407 1141.3884,-307.407 1137.3555,-303.3741 1137.3555,-299.3411 1137.3555,-299.3411 1137.3555,-291.2752 1137.3555,-291.2752 1137.3555,-287.2423 1141.3884,-283.2093 1145.4214,-283.2093 1145.4214,-283.2093 1274.0347,-283.2093 1274.0347,-283.2093 1278.0676,-283.2093 1282.1006,-287.2423 1282.1006,-291.2752 1282.1006,-291.2752 1282.1006,-299.3411 1282.1006,-299.3411 1282.1006,-303.3741 1278.0676,-307.407 1274.0347,-307.407"/>
<text text-anchor="middle" x="1209.728" y="-292.1575" font-family="Arial" font-size="14.00" fill="#c6c5fe">common/image&#45;lib.js</text>
</g>
<!-- common/image&#45;lib.js&#45;&gt;config.js -->
<g id="edge5" class="edge">
<title>common/image&#45;lib.js&#45;&gt;config.js</title>
<path fill="none" stroke="#757575" d="M1261.1613,-283.2353C1279.0214,-279.601 1299.2499,-276.1029 1317.9141,-274.3082 1396.5794,-266.7439 1417.6215,-262.2707 1495.7275,-274.3082 1505.1191,-275.7556 1514.9803,-278.2395 1524.2323,-281.0294"/>
<polygon fill="#757575" stroke="#757575" points="1523.3907,-284.4348 1533.9815,-284.1424 1525.52,-277.7664 1523.3907,-284.4348"/>
</g>
<!-- common/image&#45;lib.js&#45;&gt;common/brush&#45;markers.js -->
<g id="edge4" class="edge">
<title>common/image&#45;lib.js&#45;&gt;common/brush&#45;markers.js</title>
<path fill="none" stroke="#757575" d="M1266.471,-307.4C1289.4568,-312.2982 1316.1674,-317.9901 1340.0795,-323.0858"/>
<polygon fill="#757575" stroke="#757575" points="1339.6273,-326.5679 1350.1372,-325.229 1341.0863,-319.7216 1339.6273,-326.5679"/>
</g>
<!-- helpers/rect&#45;images.js -->
<g id="node6" class="node">
<title>helpers/rect&#45;images.js</title>
<path fill="none" stroke="#cfffac" d="M1475.1924,-307.407C1475.1924,-307.407 1338.4492,-307.407 1338.4492,-307.407 1334.4162,-307.407 1330.3833,-303.3741 1330.3833,-299.3411 1330.3833,-299.3411 1330.3833,-291.2752 1330.3833,-291.2752 1330.3833,-287.2423 1334.4162,-283.2093 1338.4492,-283.2093 1338.4492,-283.2093 1475.1924,-283.2093 1475.1924,-283.2093 1479.2254,-283.2093 1483.2583,-287.2423 1483.2583,-291.2752 1483.2583,-291.2752 1483.2583,-299.3411 1483.2583,-299.3411 1483.2583,-303.3741 1479.2254,-307.407 1475.1924,-307.407"/>
<text text-anchor="middle" x="1406.8208" y="-292.1575" font-family="Arial" font-size="14.00" fill="#cfffac">helpers/rect&#45;images.js</text>
</g>
<!-- common/image&#45;lib.js&#45;&gt;helpers/rect&#45;images.js -->
<g id="edge6" class="edge">
<title>common/image&#45;lib.js&#45;&gt;helpers/rect&#45;images.js</title>
<path fill="none" stroke="#757575" d="M1281.999,-295.3082C1294.3955,-295.3082 1307.3905,-295.3082 1320.1181,-295.3082"/>
<polygon fill="#757575" stroke="#757575" points="1320.2515,-298.8083 1330.2515,-295.3082 1320.2515,-291.8083 1320.2515,-298.8083"/>
</g>
<!-- common/tilesets/tilesets.js&#45;&gt;config.js -->
<g id="edge11" class="edge">
<title>common/tilesets/tilesets.js&#45;&gt;config.js</title>
<path fill="none" stroke="#757575" d="M869.8289,-151.3799C889.1285,-154.643 910.3384,-157.9262 929.9355,-160.3082 1180.2814,-190.7365 1274.6317,-82.0005 1495.7275,-203.3082 1524.5638,-219.1296 1544.9313,-252.5172 1555.9216,-274.6807"/>
<polygon fill="#757575" stroke="#757575" points="1552.8734,-276.4224 1560.3081,-283.9706 1559.2033,-273.4335 1552.8734,-276.4224"/>
</g>
<!-- common/tilesets/winter.js -->
<g id="node8" class="node">
<title>common/tilesets/winter.js</title>
<path fill="none" stroke="#cfffac" d="M1093.2798,-151.407C1093.2798,-151.407 938.1978,-151.407 938.1978,-151.407 934.1648,-151.407 930.1319,-147.3741 930.1319,-143.3411 930.1319,-143.3411 930.1319,-135.2752 930.1319,-135.2752 930.1319,-131.2423 934.1648,-127.2093 938.1978,-127.2093 938.1978,-127.2093 1093.2798,-127.2093 1093.2798,-127.2093 1097.3127,-127.2093 1101.3457,-131.2423 1101.3457,-135.2752 1101.3457,-135.2752 1101.3457,-143.3411 1101.3457,-143.3411 1101.3457,-147.3741 1097.3127,-151.407 1093.2798,-151.407"/>
<text text-anchor="middle" x="1015.7388" y="-136.1575" font-family="Arial" font-size="14.00" fill="#cfffac">common/tilesets/winter.js</text>
</g>
<!-- common/tilesets/tilesets.js&#45;&gt;common/tilesets/winter.js -->
<g id="edge9" class="edge">
<title>common/tilesets/tilesets.js&#45;&gt;common/tilesets/winter.js</title>
<path fill="none" stroke="#757575" d="M893.8545,-139.3082C902.4279,-139.3082 911.1487,-139.3082 919.783,-139.3082"/>
<polygon fill="#757575" stroke="#757575" points="919.8654,-142.8083 929.8654,-139.3082 919.8653,-135.8083 919.8654,-142.8083"/>
</g>
<!-- components/tile.js -->
<g id="node9" class="node">
<title>components/tile.js</title>
<path fill="none" stroke="#c6c5fe" d="M1071.7276,-338.407C1071.7276,-338.407 959.75,-338.407 959.75,-338.407 955.717,-338.407 951.6841,-334.3741 951.6841,-330.3411 951.6841,-330.3411 951.6841,-322.2752 951.6841,-322.2752 951.6841,-318.2423 955.717,-314.2093 959.75,-314.2093 959.75,-314.2093 1071.7276,-314.2093 1071.7276,-314.2093 1075.7605,-314.2093 1079.7935,-318.2423 1079.7935,-322.2752 1079.7935,-322.2752 1079.7935,-330.3411 1079.7935,-330.3411 1079.7935,-334.3741 1075.7605,-338.407 1071.7276,-338.407"/>
<text text-anchor="middle" x="1015.7388" y="-323.1575" font-family="Arial" font-size="14.00" fill="#c6c5fe">components/tile.js</text>
</g>
<!-- common/tilesets/tilesets.js&#45;&gt;components/tile.js -->
<g id="edge10" class="edge">
<title>common/tilesets/tilesets.js&#45;&gt;components/tile.js</title>
<path fill="none" stroke="#757575" d="M876.7276,-151.4241C882.7886,-153.8646 888.6219,-156.7936 893.9355,-160.3082 922.9167,-179.4771 978.1276,-265.2689 1003.0145,-305.4374"/>
<polygon fill="#757575" stroke="#757575" points="1000.1624,-307.4808 1008.3861,-314.1607 1006.1229,-303.8104 1000.1624,-307.4808"/>
</g>
<!-- components/tile.js&#45;&gt;config.js -->
<g id="edge25" class="edge">
<title>components/tile.js&#45;&gt;config.js</title>
<path fill="none" stroke="#757575" d="M1080.0222,-332.964C1133.9397,-338.5721 1212.9657,-346.8513 1281.9141,-354.3082 1297.9192,-356.0392 1301.8402,-357.4179 1317.9141,-358.3082 1396.8213,-362.6785 1421.8652,-386.4119 1495.7275,-358.3082 1517.6141,-349.9806 1537.0091,-331.276 1549.743,-316.5761"/>
<polygon fill="#757575" stroke="#757575" points="1552.7553,-318.4262 1556.4393,-308.4925 1547.3646,-313.9607 1552.7553,-318.4262"/>
</g>
<!-- components/tile.js&#45;&gt;common/image&#45;lib.js -->
<g id="edge24" class="edge">
<title>components/tile.js&#45;&gt;common/image&#45;lib.js</title>
<path fill="none" stroke="#757575" d="M1079.7957,-316.0717C1094.9143,-313.6557 1111.2444,-311.0461 1127.0553,-308.5195"/>
<polygon fill="#757575" stroke="#757575" points="1128.0301,-311.9082 1137.3524,-306.874 1126.9254,-304.9959 1128.0301,-311.9082"/>
</g>
<!-- helpers/get&#45;image.js -->
<g id="node16" class="node">
<title>helpers/get&#45;image.js</title>
<path fill="none" stroke="#cfffac" d="M1272.7237,-387.407C1272.7237,-387.407 1146.7324,-387.407 1146.7324,-387.407 1142.6994,-387.407 1138.6665,-383.3741 1138.6665,-379.3411 1138.6665,-379.3411 1138.6665,-371.2752 1138.6665,-371.2752 1138.6665,-367.2423 1142.6994,-363.2093 1146.7324,-363.2093 1146.7324,-363.2093 1272.7237,-363.2093 1272.7237,-363.2093 1276.7566,-363.2093 1280.7896,-367.2423 1280.7896,-371.2752 1280.7896,-371.2752 1280.7896,-379.3411 1280.7896,-379.3411 1280.7896,-383.3741 1276.7566,-387.407 1272.7237,-387.407"/>
<text text-anchor="middle" x="1209.728" y="-372.1575" font-family="Arial" font-size="14.00" fill="#cfffac">helpers/get&#45;image.js</text>
</g>
<!-- components/tile.js&#45;&gt;helpers/get&#45;image.js -->
<g id="edge26" class="edge">
<title>components/tile.js&#45;&gt;helpers/get&#45;image.js</title>
<path fill="none" stroke="#757575" d="M1063.6912,-338.4205C1090.4887,-345.1894 1124.0637,-353.6701 1152.2617,-360.7927"/>
<polygon fill="#757575" stroke="#757575" points="1151.4388,-364.1947 1161.9914,-363.2503 1153.1531,-357.4078 1151.4388,-364.1947"/>
</g>
<!-- components/cell.js -->
<g id="node10" class="node">
<title>components/cell.js</title>
<path fill="none" stroke="#c6c5fe" d="M862.2316,-338.407C862.2316,-338.407 747.0331,-338.407 747.0331,-338.407 743.0001,-338.407 738.9672,-334.3741 738.9672,-330.3411 738.9672,-330.3411 738.9672,-322.2752 738.9672,-322.2752 738.9672,-318.2423 743.0001,-314.2093 747.0331,-314.2093 747.0331,-314.2093 862.2316,-314.2093 862.2316,-314.2093 866.2645,-314.2093 870.2975,-318.2423 870.2975,-322.2752 870.2975,-322.2752 870.2975,-330.3411 870.2975,-330.3411 870.2975,-334.3741 866.2645,-338.407 862.2316,-338.407"/>
<text text-anchor="middle" x="804.6323" y="-323.1575" font-family="Arial" font-size="14.00" fill="#c6c5fe">components/cell.js</text>
</g>
<!-- components/cell.js&#45;&gt;config.js -->
<g id="edge13" class="edge">
<title>components/cell.js&#45;&gt;config.js</title>
<path fill="none" stroke="#757575" d="M847.8016,-338.3872C910.8496,-355.3394 1032.0968,-385.3422 1137.542,-396.3082 1296.0814,-412.7957 1353.9951,-451.2364 1495.7275,-378.3082 1521.9947,-364.7924 1542.3969,-336.6885 1554.1579,-317.1744"/>
<polygon fill="#757575" stroke="#757575" points="1557.262,-318.7978 1559.2252,-308.3864 1551.1979,-315.3011 1557.262,-318.7978"/>
</g>
<!-- components/cell.js&#45;&gt;components/tile.js -->
<g id="edge12" class="edge">
<title>components/cell.js&#45;&gt;components/tile.js</title>
<path fill="none" stroke="#757575" d="M870.2705,-326.3082C892.8335,-326.3082 918.25,-326.3082 941.4512,-326.3082"/>
<polygon fill="#757575" stroke="#757575" points="941.5894,-329.8083 951.5894,-326.3082 941.5894,-322.8083 941.5894,-329.8083"/>
</g>
<!-- components/cursor.js -->
<g id="node11" class="node">
<title>components/cursor.js</title>
<path fill="none" stroke="#c6c5fe" d="M870.8489,-463.407C870.8489,-463.407 738.4157,-463.407 738.4157,-463.407 734.3828,-463.407 730.3498,-459.3741 730.3498,-455.3411 730.3498,-455.3411 730.3498,-447.2752 730.3498,-447.2752 730.3498,-443.2423 734.3828,-439.2093 738.4157,-439.2093 738.4157,-439.2093 870.8489,-439.2093 870.8489,-439.2093 874.8819,-439.2093 878.9148,-443.2423 878.9148,-447.2752 878.9148,-447.2752 878.9148,-455.3411 878.9148,-455.3411 878.9148,-459.3741 874.8819,-463.407 870.8489,-463.407"/>
<text text-anchor="middle" x="804.6323" y="-448.1575" font-family="Arial" font-size="14.00" fill="#c6c5fe">components/cursor.js</text>
</g>
<!-- components/cursor.js&#45;&gt;config.js -->
<g id="edge15" class="edge">
<title>components/cursor.js&#45;&gt;config.js</title>
<path fill="none" stroke="#757575" d="M879.0122,-455.8108C1035.7439,-463.9385 1393.8926,-474.9469 1495.7275,-413.3082 1530.7239,-392.1256 1550.2446,-346.1268 1559.2218,-318.5358"/>
<polygon fill="#757575" stroke="#757575" points="1562.6758,-319.2087 1562.2509,-308.6224 1555.9814,-317.163 1562.6758,-319.2087"/>
</g>
<!-- components/cursor.js&#45;&gt;components/tile.js -->
<g id="edge14" class="edge">
<title>components/cursor.js&#45;&gt;components/tile.js</title>
<path fill="none" stroke="#757575" d="M825.2585,-439.0951C863.0339,-416.7275 943.411,-369.1348 986.695,-343.5055"/>
<polygon fill="#757575" stroke="#757575" points="988.5183,-346.4935 995.3397,-338.3868 984.9517,-340.4702 988.5183,-346.4935"/>
</g>
<!-- components/game&#45;map.js -->
<g id="node12" class="node">
<title>components/game&#45;map.js</title>
<path fill="none" stroke="#c6c5fe" d="M268.5157,-203.407C268.5157,-203.407 107.497,-203.407 107.497,-203.407 103.4641,-203.407 99.4311,-199.3741 99.4311,-195.3411 99.4311,-195.3411 99.4311,-187.2752 99.4311,-187.2752 99.4311,-183.2423 103.4641,-179.2093 107.497,-179.2093 107.497,-179.2093 268.5157,-179.2093 268.5157,-179.2093 272.5486,-179.2093 276.5816,-183.2423 276.5816,-187.2752 276.5816,-187.2752 276.5816,-195.3411 276.5816,-195.3411 276.5816,-199.3741 272.5486,-203.407 268.5157,-203.407"/>
<text text-anchor="middle" x="188.0063" y="-188.1575" font-family="Arial" font-size="14.00" fill="#c6c5fe">components/game&#45;map.js</text>
</g>
<!-- components/game&#45;map.js&#45;&gt;common/brush&#45;chains.js -->
<g id="edge16" class="edge">
<title>components/game&#45;map.js&#45;&gt;common/brush&#45;chains.js</title>
<path fill="none" stroke="#757575" d="M228.6826,-179.2068C262.2474,-169.221 310.0325,-155.0047 346.0171,-144.2991"/>
<polygon fill="#757575" stroke="#757575" points="347.2454,-147.5854 355.8321,-141.3791 345.2492,-140.876 347.2454,-147.5854"/>
</g>
<!-- components/game&#45;map.js&#45;&gt;config.js -->
<g id="edge19" class="edge">
<title>components/game&#45;map.js&#45;&gt;config.js</title>
<path fill="none" stroke="#757575" d="M202.8479,-179.2546C225.3422,-161.5049 269.9689,-128.2858 312.5439,-108.3082 432.3035,-52.113 465.5098,-23.3082 597.7983,-23.3082 597.7983,-23.3082 597.7983,-23.3082 1209.728,-23.3082 1337.0904,-23.3082 1396.9713,39.1181 1495.7275,-41.3082 1532.3421,-71.1268 1555.1157,-217.7746 1562.6416,-274.1621"/>
<polygon fill="#757575" stroke="#757575" points="1559.1832,-274.7094 1563.9431,-284.1748 1566.1248,-273.807 1559.1832,-274.7094"/>
</g>
<!-- components/game&#45;map.js&#45;&gt;components/cell.js -->
<g id="edge17" class="edge">
<title>components/game&#45;map.js&#45;&gt;components/cell.js</title>
<path fill="none" stroke="#757575" d="M243.2705,-203.4073C357.1305,-228.3351 617.3755,-285.3114 739.3202,-312.0092"/>
<polygon fill="#757575" stroke="#757575" points="738.7533,-315.4679 749.2705,-314.1876 740.2504,-308.6298 738.7533,-315.4679"/>
</g>
<!-- components/map&#45;cell.js -->
<g id="node13" class="node">
<title>components/map&#45;cell.js</title>
<path fill="none" stroke="#c6c5fe" d="M671.294,-203.407C671.294,-203.407 524.3027,-203.407 524.3027,-203.407 520.2697,-203.407 516.2368,-199.3741 516.2368,-195.3411 516.2368,-195.3411 516.2368,-187.2752 516.2368,-187.2752 516.2368,-183.2423 520.2697,-179.2093 524.3027,-179.2093 524.3027,-179.2093 671.294,-179.2093 671.294,-179.2093 675.3269,-179.2093 679.3599,-183.2423 679.3599,-187.2752 679.3599,-187.2752 679.3599,-195.3411 679.3599,-195.3411 679.3599,-199.3741 675.3269,-203.407 671.294,-203.407"/>
<text text-anchor="middle" x="597.7983" y="-188.1575" font-family="Arial" font-size="14.00" fill="#c6c5fe">components/map&#45;cell.js</text>
</g>
<!-- components/game&#45;map.js&#45;&gt;components/map&#45;cell.js -->
<g id="edge18" class="edge">
<title>components/game&#45;map.js&#45;&gt;components/map&#45;cell.js</title>
<path fill="none" stroke="#757575" d="M276.6727,-191.3082C344.3878,-191.3082 437.4104,-191.3082 505.911,-191.3082"/>
<polygon fill="#757575" stroke="#757575" points="506.2598,-194.8083 516.2597,-191.3082 506.2597,-187.8083 506.2598,-194.8083"/>
</g>
<!-- components/map&#45;cell.js&#45;&gt;config.js -->
<g id="edge22" class="edge">
<title>components/map&#45;cell.js&#45;&gt;config.js</title>
<path fill="none" stroke="#757575" d="M679.3453,-199.1032C691.408,-200.209 703.6905,-201.3087 715.3291,-202.3082 1061.9551,-232.0743 1159.5327,-173.8171 1495.7275,-263.3082 1509.404,-266.9487 1523.6696,-273.2114 1535.7046,-279.3092"/>
<polygon fill="#757575" stroke="#757575" points="1534.3452,-282.549 1544.8243,-284.111 1537.6065,-276.3551 1534.3452,-282.549"/>
</g>
<!-- components/map&#45;cell.js&#45;&gt;common/tilesets/tilesets.js -->
<g id="edge20" class="edge">
<title>components/map&#45;cell.js&#45;&gt;common/tilesets/tilesets.js</title>
<path fill="none" stroke="#757575" d="M642.3737,-179.2487C664.3097,-173.3912 691.1683,-166.3341 715.3291,-160.3082 724.0676,-158.1287 733.3028,-155.8875 742.389,-153.7181"/>
<polygon fill="#757575" stroke="#757575" points="743.2383,-157.1138 752.1594,-151.3986 741.6214,-150.3031 743.2383,-157.1138"/>
</g>
<!-- components/map&#45;cell.js&#45;&gt;components/tile.js -->
<g id="edge21" class="edge">
<title>components/map&#45;cell.js&#45;&gt;components/tile.js</title>
<path fill="none" stroke="#757575" d="M628.5368,-203.432C652.1366,-212.5899 685.6091,-225.2552 715.3291,-235.3082 801.3919,-264.4196 902.7685,-294.2086 963.0119,-311.4459"/>
<polygon fill="#757575" stroke="#757575" points="962.1044,-314.8266 972.681,-314.2057 964.0257,-308.0954 962.1044,-314.8266"/>
</g>
<!-- helpers/random.js -->
<g id="node14" class="node">
<title>helpers/random.js</title>
<path fill="none" stroke="#cfffac" d="M860.3421,-193.407C860.3421,-193.407 748.9225,-193.407 748.9225,-193.407 744.8896,-193.407 740.8566,-189.3741 740.8566,-185.3411 740.8566,-185.3411 740.8566,-177.2752 740.8566,-177.2752 740.8566,-173.2423 744.8896,-169.2093 748.9225,-169.2093 748.9225,-169.2093 860.3421,-169.2093 860.3421,-169.2093 864.3751,-169.2093 868.408,-173.2423 868.408,-177.2752 868.408,-177.2752 868.408,-185.3411 868.408,-185.3411 868.408,-189.3741 864.3751,-193.407 860.3421,-193.407"/>
<text text-anchor="middle" x="804.6323" y="-178.1575" font-family="Arial" font-size="14.00" fill="#cfffac">helpers/random.js</text>
</g>
<!-- components/map&#45;cell.js&#45;&gt;helpers/random.js -->
<g id="edge23" class="edge">
<title>components/map&#45;cell.js&#45;&gt;helpers/random.js</title>
<path fill="none" stroke="#757575" d="M679.5446,-187.3559C696.3763,-186.5421 714.0099,-185.6896 730.5518,-184.8898"/>
<polygon fill="#757575" stroke="#757575" points="730.8742,-188.3784 740.6935,-184.3995 730.5361,-181.3866 730.8742,-188.3784"/>
</g>
<!-- components/mini&#45;map.js -->
<g id="node15" class="node">
<title>components/mini&#45;map.js</title>
<path fill="none" stroke="#cfffac" d="M263.6643,-424.407C263.6643,-424.407 112.3484,-424.407 112.3484,-424.407 108.3154,-424.407 104.2825,-420.3741 104.2825,-416.3411 104.2825,-416.3411 104.2825,-408.2752 104.2825,-408.2752 104.2825,-404.2423 108.3154,-400.2093 112.3484,-400.2093 112.3484,-400.2093 263.6643,-400.2093 263.6643,-400.2093 267.6973,-400.2093 271.7302,-404.2423 271.7302,-408.2752 271.7302,-408.2752 271.7302,-416.3411 271.7302,-416.3411 271.7302,-420.3741 267.6973,-424.407 263.6643,-424.407"/>
<text text-anchor="middle" x="188.0063" y="-409.1575" font-family="Arial" font-size="14.00" fill="#cfffac">components/mini&#45;map.js</text>
</g>
<!-- context.js -->
<g id="node17" class="node">
<title>context.js</title>
<path fill="none" stroke="#c6c5fe" d="M425.9777,-543.407C425.9777,-543.407 366.8338,-543.407 366.8338,-543.407 362.8009,-543.407 358.7679,-539.3741 358.7679,-535.3411 358.7679,-535.3411 358.7679,-527.2752 358.7679,-527.2752 358.7679,-523.2423 362.8009,-519.2093 366.8338,-519.2093 366.8338,-519.2093 425.9777,-519.2093 425.9777,-519.2093 430.0106,-519.2093 434.0436,-523.2423 434.0436,-527.2752 434.0436,-527.2752 434.0436,-535.3411 434.0436,-535.3411 434.0436,-539.3741 430.0106,-543.407 425.9777,-543.407"/>
<text text-anchor="middle" x="396.4058" y="-528.1575" font-family="Arial" font-size="14.00" fill="#c6c5fe">context.js</text>
</g>
<!-- context.js&#45;&gt;config.js -->
<g id="edge27" class="edge">
<title>context.js&#45;&gt;config.js</title>
<path fill="none" stroke="#757575" d="M434.114,-531.1541C506.1251,-530.8736 668.202,-530.3082 804.6323,-530.3082 804.6323,-530.3082 804.6323,-530.3082 1209.728,-530.3082 1337.3236,-530.3082 1395.5643,-584.3522 1495.7275,-505.3082 1525.8047,-481.5727 1551.4814,-366.981 1561.2238,-318.2801"/>
<polygon fill="#757575" stroke="#757575" points="1564.6658,-318.9155 1563.1558,-308.4288 1557.7966,-317.5683 1564.6658,-318.9155"/>
</g>
<!-- index.js -->
<g id="node18" class="node">
<title>index.js</title>
<path fill="none" stroke="#c6c5fe" d="M55.639,-464.407C55.639,-464.407 7.8298,-464.407 7.8298,-464.407 3.7968,-464.407 -.2361,-460.3741 -.2361,-456.3411 -.2361,-456.3411 -.2361,-448.2752 -.2361,-448.2752 -.2361,-444.2423 3.7968,-440.2093 7.8298,-440.2093 7.8298,-440.2093 55.639,-440.2093 55.639,-440.2093 59.6719,-440.2093 63.7049,-444.2423 63.7049,-448.2752 63.7049,-448.2752 63.7049,-456.3411 63.7049,-456.3411 63.7049,-460.3741 59.6719,-464.407 55.639,-464.407"/>
<text text-anchor="middle" x="31.7344" y="-449.1575" font-family="Arial" font-size="14.00" fill="#c6c5fe">index.js</text>
</g>
<!-- index.js&#45;&gt;config.js -->
<g id="edge31" class="edge">
<title>index.js&#45;&gt;config.js</title>
<path fill="none" stroke="#757575" d="M63.6665,-459.133C74.9381,-461.3569 87.7279,-463.6718 99.4688,-465.3082 230.6775,-483.5949 263.9288,-491.3082 396.4058,-491.3082 396.4058,-491.3082 396.4058,-491.3082 1209.728,-491.3082 1338.3344,-491.3082 1393.0011,-524.6831 1495.7275,-447.3082 1537.7883,-415.6274 1555.2845,-352.4458 1561.869,-318.7278"/>
<polygon fill="#757575" stroke="#757575" points="1565.3811,-318.9717 1563.7034,-308.5106 1558.4913,-317.7346 1565.3811,-318.9717"/>
</g>
<!-- index.js&#45;&gt;components/cursor.js -->
<g id="edge28" class="edge">
<title>index.js&#45;&gt;components/cursor.js</title>
<path fill="none" stroke="#757575" d="M63.4738,-452.2671C174.8931,-452.1229 550.5778,-451.6369 720.2356,-451.4174"/>
<polygon fill="#757575" stroke="#757575" points="720.3758,-454.9173 730.3713,-451.4043 720.3667,-447.9173 720.3758,-454.9173"/>
</g>
<!-- index.js&#45;&gt;components/game&#45;map.js -->
<g id="edge29" class="edge">
<title>index.js&#45;&gt;components/game&#45;map.js</title>
<path fill="none" stroke="#757575" d="M39.0621,-440.0697C63.7732,-398.798 144.2383,-264.408 175.4619,-212.2594"/>
<polygon fill="#757575" stroke="#757575" points="178.5603,-213.8979 180.6945,-203.5202 172.5545,-210.3019 178.5603,-213.8979"/>
</g>
<!-- index.js&#45;&gt;components/mini&#45;map.js -->
<g id="edge30" class="edge">
<title>index.js&#45;&gt;components/mini&#45;map.js</title>
<path fill="none" stroke="#757575" d="M63.7354,-444.1171C83.1039,-439.1594 108.3647,-432.6936 131.0493,-426.8871"/>
<polygon fill="#757575" stroke="#757575" points="132.1037,-430.2302 140.9234,-424.3597 130.3678,-423.4488 132.1037,-430.2302"/>
</g>
<!-- index.js&#45;&gt;context.js -->
<g id="edge32" class="edge">
<title>index.js&#45;&gt;context.js</title>
<path fill="none" stroke="#757575" d="M42.8644,-464.4424C55.2973,-477.0997 76.6886,-496.3242 99.4688,-505.3082 182.5203,-538.0617 288.4873,-538.4775 348.7665,-535.2658"/>
<polygon fill="#757575" stroke="#757575" points="348.9793,-538.7594 358.7562,-534.6775 348.5677,-531.7716 348.9793,-538.7594"/>
</g>
</g>
</svg>
