<?xml version="1.0" encoding="UTF-8" standalone="no"?>
<!DOCTYPE svg PUBLIC "-//W3C//DTD SVG 1.1//EN"
 "http://www.w3.org/Graphics/SVG/1.1/DTD/svg11.dtd">
<!-- Generated by graphviz version 2.40.1 (20161225.0304)
 -->
<!-- Title: G Pages: 1 -->
<svg width="1725pt" height="597pt"
 viewBox="0.00 0.00 1724.77 596.67" xmlns="http://www.w3.org/2000/svg" xmlns:xlink="http://www.w3.org/1999/xlink">
<g id="graph0" class="graph" transform="scale(1 1) rotate(0) translate(21.6 575.0664)">
<title>G</title>
<polygon fill="#111111" stroke="transparent" points="-21.6,21.6 -21.6,-575.0664 1703.1684,-575.0664 1703.1684,21.6 -21.6,21.6"/>
<!-- common/brush&#45;chains.js -->
<g id="node1" class="node">
<title>common/brush&#45;chains.js</title>
<path fill="none" stroke="#c6c5fe" d="M517.9739,-132.6467C517.9739,-132.6467 366.6579,-132.6467 366.6579,-132.6467 362.625,-132.6467 358.5921,-128.6137 358.5921,-124.5808 358.5921,-124.5808 358.5921,-116.5149 358.5921,-116.5149 358.5921,-112.482 362.625,-108.449 366.6579,-108.449 366.6579,-108.449 517.9739,-108.449 517.9739,-108.449 522.0068,-108.449 526.0398,-112.482 526.0398,-116.5149 526.0398,-116.5149 526.0398,-124.5808 526.0398,-124.5808 526.0398,-128.6137 522.0068,-132.6467 517.9739,-132.6467"/>
<text text-anchor="middle" x="442.3159" y="-117.3972" font-family="Arial" font-size="14.00" fill="#c6c5fe">common/brush&#45;chains.js</text>
</g>
<!-- common/search&#45;path.js -->
<g id="node2" class="node">
<title>common/search&#45;path.js</title>
<path fill="none" stroke="#c6c5fe" d="M741.8255,-132.6467C741.8255,-132.6467 596.9499,-132.6467 596.9499,-132.6467 592.9169,-132.6467 588.884,-128.6137 588.884,-124.5808 588.884,-124.5808 588.884,-116.5149 588.884,-116.5149 588.884,-112.482 592.9169,-108.449 596.9499,-108.449 596.9499,-108.449 741.8255,-108.449 741.8255,-108.449 745.8584,-108.449 749.8914,-112.482 749.8914,-116.5149 749.8914,-116.5149 749.8914,-124.5808 749.8914,-124.5808 749.8914,-128.6137 745.8584,-132.6467 741.8255,-132.6467"/>
<text text-anchor="middle" x="669.3877" y="-117.3972" font-family="Arial" font-size="14.00" fill="#c6c5fe">common/search&#45;path.js</text>
</g>
<!-- common/brush&#45;chains.js&#45;&gt;common/search&#45;path.js -->
<g id="edge1" class="edge">
<title>common/brush&#45;chains.js&#45;&gt;common/search&#45;path.js</title>
<path fill="none" stroke="#757575" d="M526.2239,-120.5479C543.3326,-120.5479 561.4065,-120.5479 578.7379,-120.5479"/>
<polygon fill="#757575" stroke="#757575" points="578.8438,-124.048 588.8438,-120.5479 578.8437,-117.048 578.8438,-124.048"/>
</g>
<!-- config.js -->
<g id="node3" class="node">
<title>config.js</title>
<path fill="none" stroke="#cfffac" d="M1673.6826,-309.6467C1673.6826,-309.6467 1622.0957,-309.6467 1622.0957,-309.6467 1618.0627,-309.6467 1614.0298,-305.6137 1614.0298,-301.5808 1614.0298,-301.5808 1614.0298,-293.5149 1614.0298,-293.5149 1614.0298,-289.482 1618.0627,-285.449 1622.0957,-285.449 1622.0957,-285.449 1673.6826,-285.449 1673.6826,-285.449 1677.7156,-285.449 1681.7485,-289.482 1681.7485,-293.5149 1681.7485,-293.5149 1681.7485,-301.5808 1681.7485,-301.5808 1681.7485,-305.6137 1677.7156,-309.6467 1673.6826,-309.6467"/>
<text text-anchor="middle" x="1647.8892" y="-294.3972" font-family="Arial" font-size="14.00" fill="#cfffac">config.js</text>
</g>
<!-- common/brush&#45;chains.js&#45;&gt;config.js -->
<g id="edge2" class="edge">
<title>common/brush&#45;chains.js&#45;&gt;config.js</title>
<path fill="none" stroke="#757575" d="M499.5937,-108.4596C584.0071,-91.7278 746.9784,-63.5479 887.1147,-63.5479 887.1147,-63.5479 887.1147,-63.5479 1292.2104,-63.5479 1419.6318,-63.5479 1477.7765,-5.1304 1578.21,-83.5479 1609.1321,-107.6916 1634.4172,-225.6361 1643.8818,-275.3661"/>
<polygon fill="#757575" stroke="#757575" points="1640.4805,-276.2193 1645.7534,-285.4088 1647.362,-274.9368 1640.4805,-276.2193"/>
</g>
<!-- common/search&#45;path.js&#45;&gt;config.js -->
<g id="edge8" class="edge">
<title>common/search&#45;path.js&#45;&gt;config.js</title>
<path fill="none" stroke="#757575" d="M749.9583,-114.8472C836.1098,-109.2507 976.7482,-101.5479 1098.2212,-101.5479 1098.2212,-101.5479 1098.2212,-101.5479 1292.2104,-101.5479 1419.9731,-101.5479 1475.6013,-54.4245 1578.21,-130.5479 1625.312,-165.492 1640.7715,-238.2813 1645.69,-275.1353"/>
<polygon fill="#757575" stroke="#757575" points="1642.2466,-275.8199 1646.9013,-285.3374 1649.1977,-274.9945 1642.2466,-275.8199"/>
</g>
<!-- common/tilesets/tilesets.js -->
<g id="node7" class="node">
<title>common/tilesets/tilesets.js</title>
<path fill="none" stroke="#c6c5fe" d="M968.1557,-263.6467C968.1557,-263.6467 806.0738,-263.6467 806.0738,-263.6467 802.0408,-263.6467 798.0079,-259.6137 798.0079,-255.5808 798.0079,-255.5808 798.0079,-247.5149 798.0079,-247.5149 798.0079,-243.482 802.0408,-239.449 806.0738,-239.449 806.0738,-239.449 968.1557,-239.449 968.1557,-239.449 972.1887,-239.449 976.2216,-243.482 976.2216,-247.5149 976.2216,-247.5149 976.2216,-255.5808 976.2216,-255.5808 976.2216,-259.6137 972.1887,-263.6467 968.1557,-263.6467"/>
<text text-anchor="middle" x="887.1147" y="-248.3972" font-family="Arial" font-size="14.00" fill="#c6c5fe">common/tilesets/tilesets.js</text>
</g>
<!-- common/search&#45;path.js&#45;&gt;common/tilesets/tilesets.js -->
<g id="edge7" class="edge">
<title>common/search&#45;path.js&#45;&gt;common/tilesets/tilesets.js</title>
<path fill="none" stroke="#757575" d="M689.4807,-132.6372C728.2852,-155.9848 813.6507,-207.3467 858.4232,-234.285"/>
<polygon fill="#757575" stroke="#757575" points="856.6973,-237.3312 867.0703,-239.4877 860.3061,-231.3332 856.6973,-237.3312"/>
</g>
<!-- common/brush&#45;markers.js -->
<g id="node4" class="node">
<title>common/brush&#45;markers.js</title>
<path fill="none" stroke="#c6c5fe" d="M1570.0509,-309.6467C1570.0509,-309.6467 1408.5555,-309.6467 1408.5555,-309.6467 1404.5226,-309.6467 1400.4896,-305.6137 1400.4896,-301.5808 1400.4896,-301.5808 1400.4896,-293.5149 1400.4896,-293.5149 1400.4896,-289.482 1404.5226,-285.449 1408.5555,-285.449 1408.5555,-285.449 1570.0509,-285.449 1570.0509,-285.449 1574.0839,-285.449 1578.1168,-289.482 1578.1168,-293.5149 1578.1168,-293.5149 1578.1168,-301.5808 1578.1168,-301.5808 1578.1168,-305.6137 1574.0839,-309.6467 1570.0509,-309.6467"/>
<text text-anchor="middle" x="1489.3032" y="-294.3972" font-family="Arial" font-size="14.00" fill="#c6c5fe">common/brush&#45;markers.js</text>
</g>
<!-- common/brush&#45;markers.js&#45;&gt;config.js -->
<g id="edge3" class="edge">
<title>common/brush&#45;markers.js&#45;&gt;config.js</title>
<path fill="none" stroke="#757575" d="M1578.3311,-297.5479C1587.1676,-297.5479 1595.8404,-297.5479 1603.9015,-297.5479"/>
<polygon fill="#757575" stroke="#757575" points="1604.1086,-301.048 1614.1085,-297.5479 1604.1085,-294.048 1604.1086,-301.048"/>
</g>
<!-- common/image&#45;lib.js -->
<g id="node5" class="node">
<title>common/image&#45;lib.js</title>
<path fill="none" stroke="#c6c5fe" d="M1356.5171,-267.6467C1356.5171,-267.6467 1227.9038,-267.6467 1227.9038,-267.6467 1223.8708,-267.6467 1219.8379,-263.6137 1219.8379,-259.5808 1219.8379,-259.5808 1219.8379,-251.5149 1219.8379,-251.5149 1219.8379,-247.482 1223.8708,-243.449 1227.9038,-243.449 1227.9038,-243.449 1356.5171,-243.449 1356.5171,-243.449 1360.5501,-243.449 1364.583,-247.482 1364.583,-251.5149 1364.583,-251.5149 1364.583,-259.5808 1364.583,-259.5808 1364.583,-263.6137 1360.5501,-267.6467 1356.5171,-267.6467"/>
<text text-anchor="middle" x="1292.2104" y="-252.3972" font-family="Arial" font-size="14.00" fill="#c6c5fe">common/image&#45;lib.js</text>
</g>
<!-- common/image&#45;lib.js&#45;&gt;config.js -->
<g id="edge5" class="edge">
<title>common/image&#45;lib.js&#45;&gt;config.js</title>
<path fill="none" stroke="#757575" d="M1327.9738,-243.4127C1383.5735,-226.6079 1493.186,-201.8096 1578.21,-234.5479 1600.5538,-243.1513 1620.1864,-262.6067 1632.8689,-277.6376"/>
<polygon fill="#757575" stroke="#757575" points="1630.1643,-279.8593 1639.1728,-285.4358 1635.6081,-275.4587 1630.1643,-279.8593"/>
</g>
<!-- common/image&#45;lib.js&#45;&gt;common/brush&#45;markers.js -->
<g id="edge4" class="edge">
<title>common/image&#45;lib.js&#45;&gt;common/brush&#45;markers.js</title>
<path fill="none" stroke="#757575" d="M1348.9534,-267.6396C1371.9393,-272.5379 1398.6498,-278.2298 1422.5619,-283.3254"/>
<polygon fill="#757575" stroke="#757575" points="1422.1097,-286.8076 1432.6196,-285.4687 1423.5687,-279.9613 1422.1097,-286.8076"/>
</g>
<!-- helpers/rect&#45;images.js -->
<g id="node6" class="node">
<title>helpers/rect&#45;images.js</title>
<path fill="none" stroke="#cfffac" d="M1557.6748,-267.6467C1557.6748,-267.6467 1420.9316,-267.6467 1420.9316,-267.6467 1416.8987,-267.6467 1412.8657,-263.6137 1412.8657,-259.5808 1412.8657,-259.5808 1412.8657,-251.5149 1412.8657,-251.5149 1412.8657,-247.482 1416.8987,-243.449 1420.9316,-243.449 1420.9316,-243.449 1557.6748,-243.449 1557.6748,-243.449 1561.7078,-243.449 1565.7407,-247.482 1565.7407,-251.5149 1565.7407,-251.5149 1565.7407,-259.5808 1565.7407,-259.5808 1565.7407,-263.6137 1561.7078,-267.6467 1557.6748,-267.6467"/>
<text text-anchor="middle" x="1489.3032" y="-252.3972" font-family="Arial" font-size="14.00" fill="#cfffac">helpers/rect&#45;images.js</text>
</g>
<!-- common/image&#45;lib.js&#45;&gt;helpers/rect&#45;images.js -->
<g id="edge6" class="edge">
<title>common/image&#45;lib.js&#45;&gt;helpers/rect&#45;images.js</title>
<path fill="none" stroke="#757575" d="M1364.4814,-255.5479C1376.8779,-255.5479 1389.8729,-255.5479 1402.6005,-255.5479"/>
<polygon fill="#757575" stroke="#757575" points="1402.734,-259.048 1412.7339,-255.5479 1402.7339,-252.048 1402.734,-259.048"/>
</g>
<!-- common/tilesets/tilesets.js&#45;&gt;config.js -->
<g id="edge11" class="edge">
<title>common/tilesets/tilesets.js&#45;&gt;config.js</title>
<path fill="none" stroke="#757575" d="M919.7874,-239.4883C1022.618,-203.6082 1346.5204,-106.5431 1578.21,-214.5479 1605.4441,-227.2434 1625.8167,-256.4018 1637.2896,-276.5411"/>
<polygon fill="#757575" stroke="#757575" points="1634.2145,-278.2126 1642.0628,-285.3298 1640.3658,-274.8717 1634.2145,-278.2126"/>
</g>
<!-- common/tilesets/winter.js -->
<g id="node8" class="node">
<title>common/tilesets/winter.js</title>
<path fill="none" stroke="#cfffac" d="M1175.7622,-263.6467C1175.7622,-263.6467 1020.6802,-263.6467 1020.6802,-263.6467 1016.6472,-263.6467 1012.6143,-259.6137 1012.6143,-255.5808 1012.6143,-255.5808 1012.6143,-247.5149 1012.6143,-247.5149 1012.6143,-243.482 1016.6472,-239.449 1020.6802,-239.449 1020.6802,-239.449 1175.7622,-239.449 1175.7622,-239.449 1179.7951,-239.449 1183.8281,-243.482 1183.8281,-247.5149 1183.8281,-247.5149 1183.8281,-255.5808 1183.8281,-255.5808 1183.8281,-259.6137 1179.7951,-263.6467 1175.7622,-263.6467"/>
<text text-anchor="middle" x="1098.2212" y="-248.3972" font-family="Arial" font-size="14.00" fill="#cfffac">common/tilesets/winter.js</text>
</g>
<!-- common/tilesets/tilesets.js&#45;&gt;common/tilesets/winter.js -->
<g id="edge9" class="edge">
<title>common/tilesets/tilesets.js&#45;&gt;common/tilesets/winter.js</title>
<path fill="none" stroke="#757575" d="M976.3369,-251.5479C984.9103,-251.5479 993.6311,-251.5479 1002.2655,-251.5479"/>
<polygon fill="#757575" stroke="#757575" points="1002.3478,-255.048 1012.3478,-251.5479 1002.3478,-248.048 1002.3478,-255.048"/>
</g>
<!-- components/tile.js -->
<g id="node9" class="node">
<title>components/tile.js</title>
<path fill="none" stroke="#c6c5fe" d="M1154.21,-305.6467C1154.21,-305.6467 1042.2324,-305.6467 1042.2324,-305.6467 1038.1994,-305.6467 1034.1665,-301.6137 1034.1665,-297.5808 1034.1665,-297.5808 1034.1665,-289.5149 1034.1665,-289.5149 1034.1665,-285.482 1038.1994,-281.449 1042.2324,-281.449 1042.2324,-281.449 1154.21,-281.449 1154.21,-281.449 1158.2429,-281.449 1162.2759,-285.482 1162.2759,-289.5149 1162.2759,-289.5149 1162.2759,-297.5808 1162.2759,-297.5808 1162.2759,-301.6137 1158.2429,-305.6467 1154.21,-305.6467"/>
<text text-anchor="middle" x="1098.2212" y="-290.3972" font-family="Arial" font-size="14.00" fill="#c6c5fe">components/tile.js</text>
</g>
<!-- common/tilesets/tilesets.js&#45;&gt;components/tile.js -->
<g id="edge10" class="edge">
<title>common/tilesets/tilesets.js&#45;&gt;components/tile.js</title>
<path fill="none" stroke="#757575" d="M947.8923,-263.6396C972.7323,-268.5816 1001.6333,-274.3315 1027.4198,-279.4618"/>
<polygon fill="#757575" stroke="#757575" points="1027.0165,-282.9501 1037.5073,-281.4687 1028.3824,-276.0846 1027.0165,-282.9501"/>
</g>
<!-- components/tile.js&#45;&gt;config.js -->
<g id="edge27" class="edge">
<title>components/tile.js&#45;&gt;config.js</title>
<path fill="none" stroke="#757575" d="M1145.8915,-305.6627C1168.2382,-310.7397 1195.3262,-316.0394 1220.0244,-318.5479 1378.4032,-334.6337 1420.7184,-341.7646 1578.21,-318.5479 1587.11,-317.2359 1596.4495,-315.0291 1605.2956,-312.5269"/>
<polygon fill="#757575" stroke="#757575" points="1606.4514,-315.8343 1615.0237,-309.6081 1604.4397,-309.1296 1606.4514,-315.8343"/>
</g>
<!-- components/tile.js&#45;&gt;common/image&#45;lib.js -->
<g id="edge26" class="edge">
<title>components/tile.js&#45;&gt;common/image&#45;lib.js</title>
<path fill="none" stroke="#757575" d="M1159.8671,-281.4722C1179.1335,-277.6982 1200.5556,-273.5019 1220.4545,-269.6039"/>
<polygon fill="#757575" stroke="#757575" points="1221.2514,-273.0144 1230.392,-267.6573 1219.9057,-266.145 1221.2514,-273.0144"/>
</g>
<!-- helpers/get&#45;image.js -->
<g id="node19" class="node">
<title>helpers/get&#45;image.js</title>
<path fill="none" stroke="#cfffac" d="M1355.2061,-309.6467C1355.2061,-309.6467 1229.2148,-309.6467 1229.2148,-309.6467 1225.1819,-309.6467 1221.1489,-305.6137 1221.1489,-301.5808 1221.1489,-301.5808 1221.1489,-293.5149 1221.1489,-293.5149 1221.1489,-289.482 1225.1819,-285.449 1229.2148,-285.449 1229.2148,-285.449 1355.2061,-285.449 1355.2061,-285.449 1359.239,-285.449 1363.272,-289.482 1363.272,-293.5149 1363.272,-293.5149 1363.272,-301.5808 1363.272,-301.5808 1363.272,-305.6137 1359.239,-309.6467 1355.2061,-309.6467"/>
<text text-anchor="middle" x="1292.2104" y="-294.3972" font-family="Arial" font-size="14.00" fill="#cfffac">helpers/get&#45;image.js</text>
</g>
<!-- components/tile.js&#45;&gt;helpers/get&#45;image.js -->
<g id="edge28" class="edge">
<title>components/tile.js&#45;&gt;helpers/get&#45;image.js</title>
<path fill="none" stroke="#757575" d="M1162.2782,-294.8687C1177.8149,-295.1891 1194.6311,-295.5358 1210.8485,-295.8702"/>
<polygon fill="#757575" stroke="#757575" points="1210.7818,-299.3695 1220.8519,-296.0765 1210.9262,-292.371 1210.7818,-299.3695"/>
</g>
<!-- components/canvas&#45;cleaner.js -->
<g id="node10" class="node">
<title>components/canvas&#45;cleaner.js</title>
<path fill="none" stroke="#cfffac" d="M297.826,-383.6467C297.826,-383.6467 109.3108,-383.6467 109.3108,-383.6467 105.2778,-383.6467 101.2449,-379.6137 101.2449,-375.5808 101.2449,-375.5808 101.2449,-367.5149 101.2449,-367.5149 101.2449,-363.482 105.2778,-359.449 109.3108,-359.449 109.3108,-359.449 297.826,-359.449 297.826,-359.449 301.8589,-359.449 305.8919,-363.482 305.8919,-367.5149 305.8919,-367.5149 305.8919,-375.5808 305.8919,-375.5808 305.8919,-379.6137 301.8589,-383.6467 297.826,-383.6467"/>
<text text-anchor="middle" x="203.5684" y="-368.3972" font-family="Arial" font-size="14.00" fill="#cfffac">components/canvas&#45;cleaner.js</text>
</g>
<!-- components/cursor.js -->
<g id="node11" class="node">
<title>components/cursor.js</title>
<path fill="none" stroke="#c6c5fe" d="M953.3314,-305.6467C953.3314,-305.6467 820.8981,-305.6467 820.8981,-305.6467 816.8652,-305.6467 812.8323,-301.6137 812.8323,-297.5808 812.8323,-297.5808 812.8323,-289.5149 812.8323,-289.5149 812.8323,-285.482 816.8652,-281.449 820.8981,-281.449 820.8981,-281.449 953.3314,-281.449 953.3314,-281.449 957.3643,-281.449 961.3972,-285.482 961.3972,-289.5149 961.3972,-289.5149 961.3972,-297.5808 961.3972,-297.5808 961.3972,-301.6137 957.3643,-305.6467 953.3314,-305.6467"/>
<text text-anchor="middle" x="887.1147" y="-290.3972" font-family="Arial" font-size="14.00" fill="#c6c5fe">components/cursor.js</text>
</g>
<!-- components/cursor.js&#45;&gt;config.js -->
<g id="edge13" class="edge">
<title>components/cursor.js&#45;&gt;config.js</title>
<path fill="none" stroke="#757575" d="M955.3007,-305.6236C973.8038,-308.7234 993.8541,-311.921 1012.418,-314.5479 1261.6436,-349.8144 1335.703,-406.9833 1578.21,-339.5479 1595.1269,-334.8437 1612.0448,-324.8044 1624.9737,-315.7207"/>
<polygon fill="#757575" stroke="#757575" points="1627.2426,-318.3972 1633.2381,-309.662 1623.1038,-312.7518 1627.2426,-318.3972"/>
</g>
<!-- components/cursor.js&#45;&gt;components/tile.js -->
<g id="edge12" class="edge">
<title>components/cursor.js&#45;&gt;components/tile.js</title>
<path fill="none" stroke="#757575" d="M961.543,-293.5479C981.7517,-293.5479 1003.6321,-293.5479 1023.8384,-293.5479"/>
<polygon fill="#757575" stroke="#757575" points="1023.9204,-297.048 1033.9204,-293.5479 1023.9204,-290.048 1023.9204,-297.048"/>
</g>
<!-- components/map/cell.js -->
<g id="node12" class="node">
<title>components/map/cell.js</title>
<path fill="none" stroke="#c6c5fe" d="M960.3382,-188.6467C960.3382,-188.6467 813.8913,-188.6467 813.8913,-188.6467 809.8584,-188.6467 805.8254,-184.6137 805.8254,-180.5808 805.8254,-180.5808 805.8254,-172.5149 805.8254,-172.5149 805.8254,-168.482 809.8584,-164.449 813.8913,-164.449 813.8913,-164.449 960.3382,-164.449 960.3382,-164.449 964.3711,-164.449 968.4041,-168.482 968.4041,-172.5149 968.4041,-172.5149 968.4041,-180.5808 968.4041,-180.5808 968.4041,-184.6137 964.3711,-188.6467 960.3382,-188.6467"/>
<text text-anchor="middle" x="887.1147" y="-173.3972" font-family="Arial" font-size="14.00" fill="#c6c5fe">components/map/cell.js</text>
</g>
<!-- components/map/cell.js&#45;&gt;config.js -->
<g id="edge15" class="edge">
<title>components/map/cell.js&#45;&gt;config.js</title>
<path fill="none" stroke="#757575" d="M968.5537,-164.7365C1128.8761,-143.1783 1478.5051,-105.0518 1578.21,-166.5479 1617.2642,-190.6358 1635.7049,-244.6251 1643.3102,-275.2431"/>
<polygon fill="#757575" stroke="#757575" points="1639.9865,-276.4069 1645.64,-285.3673 1646.8082,-274.837 1639.9865,-276.4069"/>
</g>
<!-- components/map/cell.js&#45;&gt;components/tile.js -->
<g id="edge14" class="edge">
<title>components/map/cell.js&#45;&gt;components/tile.js</title>
<path fill="none" stroke="#757575" d="M911.6192,-188.6209C930.3876,-198.4947 956.3757,-213.563 976.418,-230.5479 995.1742,-246.4428 991.4724,-259.6743 1012.418,-272.5479 1016.2703,-274.9155 1020.3734,-277.0164 1024.6184,-278.8805"/>
<polygon fill="#757575" stroke="#757575" points="1023.5084,-282.2046 1034.096,-282.5948 1026.0626,-275.6872 1023.5084,-282.2046"/>
</g>
<!-- components/map/game&#45;map.js -->
<g id="node13" class="node">
<title>components/map/game&#45;map.js</title>
<path fill="none" stroke="#c6c5fe" d="M299.7018,-188.6467C299.7018,-188.6467 107.4349,-188.6467 107.4349,-188.6467 103.402,-188.6467 99.369,-184.6137 99.369,-180.5808 99.369,-180.5808 99.369,-172.5149 99.369,-172.5149 99.369,-168.482 103.402,-164.449 107.4349,-164.449 107.4349,-164.449 299.7018,-164.449 299.7018,-164.449 303.7347,-164.449 307.7677,-168.482 307.7677,-172.5149 307.7677,-172.5149 307.7677,-180.5808 307.7677,-180.5808 307.7677,-184.6137 303.7347,-188.6467 299.7018,-188.6467"/>
<text text-anchor="middle" x="203.5684" y="-173.3972" font-family="Arial" font-size="14.00" fill="#c6c5fe">components/map/game&#45;map.js</text>
</g>
<!-- components/map/game&#45;map.js&#45;&gt;common/brush&#45;chains.js -->
<g id="edge16" class="edge">
<title>components/map/game&#45;map.js&#45;&gt;common/brush&#45;chains.js</title>
<path fill="none" stroke="#757575" d="M266.4438,-164.4469C280.0669,-161.6625 294.3737,-158.6142 307.668,-155.5479 334.352,-149.3932 363.8111,-141.825 388.353,-135.3025"/>
<polygon fill="#757575" stroke="#757575" points="389.4392,-138.6352 398.1969,-132.6726 387.6323,-131.8724 389.4392,-138.6352"/>
</g>
<!-- components/map/game&#45;map.js&#45;&gt;config.js -->
<g id="edge18" class="edge">
<title>components/map/game&#45;map.js&#45;&gt;config.js</title>
<path fill="none" stroke="#757575" d="M291.2286,-164.4273C297.0198,-161.963 302.5678,-159.0315 307.668,-155.5479 332.1005,-138.8593 319.4404,-116.5325 343.668,-99.5479 465.2259,-14.3301 520.9344,-25.5479 669.3877,-25.5479 669.3877,-25.5479 669.3877,-25.5479 1292.2104,-25.5479 1419.4735,-25.5479 1479.0909,40.2726 1578.21,-39.5479 1615.3905,-69.4893 1637.8202,-218.001 1645.1894,-275.1149"/>
<polygon fill="#757575" stroke="#757575" points="1641.7441,-275.7706 1646.4623,-285.2569 1648.6896,-274.8988 1641.7441,-275.7706"/>
</g>
<!-- components/map/game&#45;map.js&#45;&gt;components/map/cell.js -->
<g id="edge17" class="edge">
<title>components/map/game&#45;map.js&#45;&gt;components/map/cell.js</title>
<path fill="none" stroke="#757575" d="M307.7561,-176.5479C440.8448,-176.5479 669.0654,-176.5479 795.7042,-176.5479"/>
<polygon fill="#757575" stroke="#757575" points="795.7654,-180.048 805.7654,-176.5479 795.7654,-173.048 795.7654,-180.048"/>
</g>
<!-- components/map/tile&#45;cell.js -->
<g id="node14" class="node">
<title>components/map/tile&#45;cell.js</title>
<path fill="none" stroke="#c6c5fe" d="M753.6695,-364.6467C753.6695,-364.6467 585.1059,-364.6467 585.1059,-364.6467 581.0729,-364.6467 577.04,-360.6137 577.04,-356.5808 577.04,-356.5808 577.04,-348.5149 577.04,-348.5149 577.04,-344.482 581.0729,-340.449 585.1059,-340.449 585.1059,-340.449 753.6695,-340.449 753.6695,-340.449 757.7025,-340.449 761.7354,-344.482 761.7354,-348.5149 761.7354,-348.5149 761.7354,-356.5808 761.7354,-356.5808 761.7354,-360.6137 757.7025,-364.6467 753.6695,-364.6467"/>
<text text-anchor="middle" x="669.3877" y="-349.3972" font-family="Arial" font-size="14.00" fill="#c6c5fe">components/map/tile&#45;cell.js</text>
</g>
<!-- components/map/tile&#45;cell.js&#45;&gt;config.js -->
<g id="edge21" class="edge">
<title>components/map/tile&#45;cell.js&#45;&gt;config.js</title>
<path fill="none" stroke="#757575" d="M761.8293,-358.5148C894.9749,-366.4478 1148.4744,-379.0814 1364.3965,-375.5479 1459.4629,-373.9921 1491.1539,-406.7746 1578.21,-368.5479 1602.1796,-358.0227 1622.1928,-335.0699 1634.5313,-318.0964"/>
<polygon fill="#757575" stroke="#757575" points="1637.4224,-320.0694 1640.2644,-309.8628 1631.6778,-316.0694 1637.4224,-320.0694"/>
</g>
<!-- components/map/tile&#45;cell.js&#45;&gt;common/tilesets/tilesets.js -->
<g id="edge19" class="edge">
<title>components/map/tile&#45;cell.js&#45;&gt;common/tilesets/tilesets.js</title>
<path fill="none" stroke="#757575" d="M685.0795,-340.3815C708.3983,-322.8767 754.1526,-290.7004 797.8115,-272.5479 802.9588,-270.4077 808.3678,-268.4603 813.8709,-266.6928"/>
<polygon fill="#757575" stroke="#757575" points="815.2683,-269.9278 823.8417,-263.7029 813.2577,-263.2227 815.2683,-269.9278"/>
</g>
<!-- components/map/tile&#45;cell.js&#45;&gt;components/tile.js -->
<g id="edge20" class="edge">
<title>components/map/tile&#45;cell.js&#45;&gt;components/tile.js</title>
<path fill="none" stroke="#757575" d="M761.9109,-342.259C822.9284,-335.1876 904.5572,-325.1834 976.418,-314.5479 991.8284,-312.2671 1008.2939,-309.5911 1023.9769,-306.9274"/>
<polygon fill="#757575" stroke="#757575" points="1024.8861,-310.3227 1034.1508,-305.1831 1023.7031,-303.4233 1024.8861,-310.3227"/>
</g>
<!-- helpers/random.js -->
<g id="node15" class="node">
<title>helpers/random.js</title>
<path fill="none" stroke="#cfffac" d="M942.8245,-423.6467C942.8245,-423.6467 831.4049,-423.6467 831.4049,-423.6467 827.372,-423.6467 823.3391,-419.6137 823.3391,-415.5808 823.3391,-415.5808 823.3391,-407.5149 823.3391,-407.5149 823.3391,-403.482 827.372,-399.449 831.4049,-399.449 831.4049,-399.449 942.8245,-399.449 942.8245,-399.449 946.8575,-399.449 950.8904,-403.482 950.8904,-407.5149 950.8904,-407.5149 950.8904,-415.5808 950.8904,-415.5808 950.8904,-419.6137 946.8575,-423.6467 942.8245,-423.6467"/>
<text text-anchor="middle" x="887.1147" y="-408.3972" font-family="Arial" font-size="14.00" fill="#cfffac">helpers/random.js</text>
</g>
<!-- components/map/tile&#45;cell.js&#45;&gt;helpers/random.js -->
<g id="edge22" class="edge">
<title>components/map/tile&#45;cell.js&#45;&gt;helpers/random.js</title>
<path fill="none" stroke="#757575" d="M713.9734,-364.6298C748.3169,-373.9362 795.9575,-386.8459 832.5736,-396.7682"/>
<polygon fill="#757575" stroke="#757575" points="832.0213,-400.2447 842.5887,-399.4821 833.8522,-393.4884 832.0213,-400.2447"/>
</g>
<!-- components/map/tile&#45;map.js -->
<g id="node16" class="node">
<title>components/map/tile&#45;map.js</title>
<path fill="none" stroke="#c6c5fe" d="M529.8252,-364.6467C529.8252,-364.6467 354.8066,-364.6467 354.8066,-364.6467 350.7737,-364.6467 346.7407,-360.6137 346.7407,-356.5808 346.7407,-356.5808 346.7407,-348.5149 346.7407,-348.5149 346.7407,-344.482 350.7737,-340.449 354.8066,-340.449 354.8066,-340.449 529.8252,-340.449 529.8252,-340.449 533.8582,-340.449 537.8911,-344.482 537.8911,-348.5149 537.8911,-348.5149 537.8911,-356.5808 537.8911,-356.5808 537.8911,-360.6137 533.8582,-364.6467 529.8252,-364.6467"/>
<text text-anchor="middle" x="442.3159" y="-349.3972" font-family="Arial" font-size="14.00" fill="#c6c5fe">components/map/tile&#45;map.js</text>
</g>
<!-- components/map/tile&#45;map.js&#45;&gt;config.js -->
<g id="edge24" class="edge">
<title>components/map/tile&#45;map.js&#45;&gt;config.js</title>
<path fill="none" stroke="#757575" d="M474.1433,-364.6872C546.4084,-391.1231 728.8915,-451.5479 887.1147,-451.5479 887.1147,-451.5479 887.1147,-451.5479 1292.2104,-451.5479 1422.0884,-451.5479 1468.855,-461.6177 1578.21,-391.5479 1605.9467,-373.7754 1626.5033,-340.8002 1637.8466,-319.0142"/>
<polygon fill="#757575" stroke="#757575" points="1641.0681,-320.397 1642.4027,-309.8866 1634.805,-317.2707 1641.0681,-320.397"/>
</g>
<!-- components/map/tile&#45;map.js&#45;&gt;components/map/tile&#45;cell.js -->
<g id="edge23" class="edge">
<title>components/map/tile&#45;map.js&#45;&gt;components/map/tile&#45;cell.js</title>
<path fill="none" stroke="#757575" d="M537.9567,-352.5479C547.3918,-352.5479 556.996,-352.5479 566.4998,-352.5479"/>
<polygon fill="#757575" stroke="#757575" points="566.7603,-356.048 576.7603,-352.5479 566.7602,-349.048 566.7603,-356.048"/>
</g>
<!-- components/map/wall&#45;map.js -->
<g id="node17" class="node">
<title>components/map/wall&#45;map.js</title>
<path fill="none" stroke="#c6c5fe" d="M533.0461,-541.6467C533.0461,-541.6467 351.5857,-541.6467 351.5857,-541.6467 347.5527,-541.6467 343.5198,-537.6137 343.5198,-533.5808 343.5198,-533.5808 343.5198,-525.5149 343.5198,-525.5149 343.5198,-521.482 347.5527,-517.449 351.5857,-517.449 351.5857,-517.449 533.0461,-517.449 533.0461,-517.449 537.0791,-517.449 541.112,-521.482 541.112,-525.5149 541.112,-525.5149 541.112,-533.5808 541.112,-533.5808 541.112,-537.6137 537.0791,-541.6467 533.0461,-541.6467"/>
<text text-anchor="middle" x="442.3159" y="-526.3972" font-family="Arial" font-size="14.00" fill="#c6c5fe">components/map/wall&#45;map.js</text>
</g>
<!-- components/map/wall&#45;map.js&#45;&gt;config.js -->
<g id="edge25" class="edge">
<title>components/map/wall&#45;map.js&#45;&gt;config.js</title>
<path fill="none" stroke="#757575" d="M541.2474,-529.1981C631.3859,-528.9097 768.1925,-528.5479 887.1147,-528.5479 887.1147,-528.5479 887.1147,-528.5479 1292.2104,-528.5479 1419.806,-528.5479 1477.8745,-582.3732 1578.21,-503.5479 1607.8186,-480.2868 1633.5887,-368.2155 1643.5271,-319.8486"/>
<polygon fill="#757575" stroke="#757575" points="1647.012,-320.272 1645.5557,-309.7777 1640.1499,-318.8896 1647.012,-320.272"/>
</g>
<!-- components/mini&#45;map.js -->
<g id="node18" class="node">
<title>components/mini&#45;map.js</title>
<path fill="none" stroke="#cfffac" d="M279.2263,-146.6467C279.2263,-146.6467 127.9104,-146.6467 127.9104,-146.6467 123.8774,-146.6467 119.8445,-142.6137 119.8445,-138.5808 119.8445,-138.5808 119.8445,-130.5149 119.8445,-130.5149 119.8445,-126.482 123.8774,-122.449 127.9104,-122.449 127.9104,-122.449 279.2263,-122.449 279.2263,-122.449 283.2593,-122.449 287.2922,-126.482 287.2922,-130.5149 287.2922,-130.5149 287.2922,-138.5808 287.2922,-138.5808 287.2922,-142.6137 283.2593,-146.6467 279.2263,-146.6467"/>
<text text-anchor="middle" x="203.5684" y="-131.3972" font-family="Arial" font-size="14.00" fill="#cfffac">components/mini&#45;map.js</text>
</g>
<!-- index.js -->
<g id="node20" class="node">
<title>index.js</title>
<path fill="none" stroke="#c6c5fe" d="M55.639,-324.6467C55.639,-324.6467 7.8298,-324.6467 7.8298,-324.6467 3.7968,-324.6467 -.2361,-320.6137 -.2361,-316.5808 -.2361,-316.5808 -.2361,-308.5149 -.2361,-308.5149 -.2361,-304.482 3.7968,-300.449 7.8298,-300.449 7.8298,-300.449 55.639,-300.449 55.639,-300.449 59.6719,-300.449 63.7049,-304.482 63.7049,-308.5149 63.7049,-308.5149 63.7049,-316.5808 63.7049,-316.5808 63.7049,-320.6137 59.6719,-324.6467 55.639,-324.6467"/>
<text text-anchor="middle" x="31.7344" y="-309.3972" font-family="Arial" font-size="14.00" fill="#c6c5fe">index.js</text>
</g>
<!-- index.js&#45;&gt;config.js -->
<g id="edge36" class="edge">
<title>index.js&#45;&gt;config.js</title>
<path fill="none" stroke="#757575" d="M38.8165,-324.8256C49.628,-342.4691 71.9253,-374.8165 99.4688,-392.5479 232.6212,-478.266 283.9582,-489.5479 442.3159,-489.5479 442.3159,-489.5479 442.3159,-489.5479 1292.2104,-489.5479 1421.6504,-489.5479 1474.7852,-512.3812 1578.21,-434.5479 1616.355,-405.8415 1635.2155,-350.348 1643.1157,-319.528"/>
<polygon fill="#757575" stroke="#757575" points="1646.5343,-320.2808 1645.4666,-309.7399 1639.7279,-318.646 1646.5343,-320.2808"/>
</g>
<!-- index.js&#45;&gt;common/tilesets/tilesets.js -->
<g id="edge29" class="edge">
<title>index.js&#45;&gt;common/tilesets/tilesets.js</title>
<path fill="none" stroke="#757575" d="M63.6898,-306.7007C74.9634,-304.8126 87.7485,-302.8683 99.4688,-301.5479 346.2022,-273.749 638.2906,-260.2523 787.8957,-254.7389"/>
<polygon fill="#757575" stroke="#757575" points="788.1144,-258.2334 797.9802,-254.3715 787.8594,-251.238 788.1144,-258.2334"/>
</g>
<!-- index.js&#45;&gt;components/canvas&#45;cleaner.js -->
<g id="edge30" class="edge">
<title>index.js&#45;&gt;components/canvas&#45;cleaner.js</title>
<path fill="none" stroke="#757575" d="M53.8012,-324.7531C66.8014,-331.5715 83.735,-339.8215 99.4688,-345.5479 111.2092,-349.8209 123.9433,-353.6395 136.3444,-356.9486"/>
<polygon fill="#757575" stroke="#757575" points="135.6357,-360.3803 146.1932,-359.4921 137.3861,-353.6027 135.6357,-360.3803"/>
</g>
<!-- index.js&#45;&gt;components/cursor.js -->
<g id="edge31" class="edge">
<title>index.js&#45;&gt;components/cursor.js</title>
<path fill="none" stroke="#757575" d="M63.7052,-311.8377C184.7809,-309.1483 617.6211,-299.5339 802.46,-295.4282"/>
<polygon fill="#757575" stroke="#757575" points="802.7539,-298.9227 812.6737,-295.2014 802.5984,-291.9244 802.7539,-298.9227"/>
</g>
<!-- index.js&#45;&gt;components/map/game&#45;map.js -->
<g id="edge32" class="edge">
<title>index.js&#45;&gt;components/map/game&#45;map.js</title>
<path fill="none" stroke="#757575" d="M41.1644,-300.4595C53.498,-285.1336 76.2779,-258.4364 99.4688,-239.5479 121.4413,-221.6515 148.971,-205.2117 170.2003,-193.6162"/>
<polygon fill="#757575" stroke="#757575" points="172.0186,-196.6125 179.1726,-188.7976 168.7067,-190.4456 172.0186,-196.6125"/>
</g>
<!-- index.js&#45;&gt;components/map/tile&#45;map.js -->
<g id="edge33" class="edge">
<title>index.js&#45;&gt;components/map/tile&#45;map.js</title>
<path fill="none" stroke="#757575" d="M63.6104,-315.6533C121.4519,-321.2884 246.0798,-333.43 336.6101,-342.2497"/>
<polygon fill="#757575" stroke="#757575" points="336.35,-345.7408 346.6422,-343.2271 337.0288,-338.7738 336.35,-345.7408"/>
</g>
<!-- index.js&#45;&gt;components/map/wall&#45;map.js -->
<g id="edge34" class="edge">
<title>index.js&#45;&gt;components/map/wall&#45;map.js</title>
<path fill="none" stroke="#757575" d="M34.2482,-324.7062C42.4515,-363.1265 69.6343,-480.7333 99.4688,-503.5479 180.307,-565.3653 305.5238,-556.3794 380.1619,-543.4774"/>
<polygon fill="#757575" stroke="#757575" points="381.1293,-546.8594 390.348,-541.6378 379.8852,-539.9708 381.1293,-546.8594"/>
</g>
<!-- index.js&#45;&gt;components/mini&#45;map.js -->
<g id="edge35" class="edge">
<title>index.js&#45;&gt;components/mini&#45;map.js</title>
<path fill="none" stroke="#757575" d="M33.1606,-300.4669C37.3468,-270.7382 52.4289,-193.6865 99.4688,-155.5479 102.9875,-152.6949 106.7898,-150.1962 110.7887,-148.0099"/>
<polygon fill="#757575" stroke="#757575" points="112.3003,-151.1668 119.8235,-143.7068 109.2902,-144.847 112.3003,-151.1668"/>
</g>
</g>
</svg>
