<?xml version="1.0" encoding="UTF-8" standalone="no"?>
<!DOCTYPE svg PUBLIC "-//W3C//DTD SVG 1.1//EN"
 "http://www.w3.org/Graphics/SVG/1.1/DTD/svg11.dtd">
<!-- Generated by graphviz version 2.40.1 (20161225.0304)
 -->
<!-- Title: G Pages: 1 -->
<svg width="1789pt" height="716pt"
 viewBox="0.00 0.00 1788.60 715.83" xmlns="http://www.w3.org/2000/svg" xmlns:xlink="http://www.w3.org/1999/xlink">
<g id="graph0" class="graph" transform="scale(1 1) rotate(0) translate(21.6 694.2255)">
<title>G</title>
<polygon fill="#111111" stroke="transparent" points="-21.6,21.6 -21.6,-694.2255 1766.9955,-694.2255 1766.9955,21.6 -21.6,21.6"/>
<!-- common/brush&#45;chains.js -->
<g id="node1" class="node">
<title>common/brush&#45;chains.js</title>
<path fill="none" stroke="#c6c5fe" d="M525.7532,-144.0037C525.7532,-144.0037 374.4372,-144.0037 374.4372,-144.0037 370.4043,-144.0037 366.3714,-139.9708 366.3714,-135.9378 366.3714,-135.9378 366.3714,-127.872 366.3714,-127.872 366.3714,-123.839 370.4043,-119.8061 374.4372,-119.8061 374.4372,-119.8061 525.7532,-119.8061 525.7532,-119.8061 529.7861,-119.8061 533.8191,-123.839 533.8191,-127.872 533.8191,-127.872 533.8191,-135.9378 533.8191,-135.9378 533.8191,-139.9708 529.7861,-144.0037 525.7532,-144.0037"/>
<text text-anchor="middle" x="450.0952" y="-128.7542" font-family="Arial" font-size="14.00" fill="#c6c5fe">common/brush&#45;chains.js</text>
</g>
<!-- common/search&#45;path.js -->
<g id="node2" class="node">
<title>common/search&#45;path.js</title>
<path fill="none" stroke="#c6c5fe" d="M763.2288,-153.0037C763.2288,-153.0037 618.3532,-153.0037 618.3532,-153.0037 614.3203,-153.0037 610.2873,-148.9708 610.2873,-144.9378 610.2873,-144.9378 610.2873,-136.872 610.2873,-136.872 610.2873,-132.839 614.3203,-128.8061 618.3532,-128.8061 618.3532,-128.8061 763.2288,-128.8061 763.2288,-128.8061 767.2618,-128.8061 771.2947,-132.839 771.2947,-136.872 771.2947,-136.872 771.2947,-144.9378 771.2947,-144.9378 771.2947,-148.9708 767.2618,-153.0037 763.2288,-153.0037"/>
<text text-anchor="middle" x="690.791" y="-137.7542" font-family="Arial" font-size="14.00" fill="#c6c5fe">common/search&#45;path.js</text>
</g>
<!-- common/brush&#45;chains.js&#45;&gt;common/search&#45;path.js -->
<g id="edge1" class="edge">
<title>common/brush&#45;chains.js&#45;&gt;common/search&#45;path.js</title>
<path fill="none" stroke="#757575" d="M533.941,-135.04C555.2576,-135.8371 578.2617,-136.6973 599.9104,-137.5067"/>
<polygon fill="#757575" stroke="#757575" points="599.958,-141.0109 610.0818,-137.8871 600.2196,-134.0158 599.958,-141.0109"/>
</g>
<!-- config.js -->
<g id="node3" class="node">
<title>config.js</title>
<path fill="none" stroke="#cfffac" d="M1737.5098,-347.0037C1737.5098,-347.0037 1685.9228,-347.0037 1685.9228,-347.0037 1681.8899,-347.0037 1677.857,-342.9708 1677.857,-338.9378 1677.857,-338.9378 1677.857,-330.872 1677.857,-330.872 1677.857,-326.839 1681.8899,-322.8061 1685.9228,-322.8061 1685.9228,-322.8061 1737.5098,-322.8061 1737.5098,-322.8061 1741.5427,-322.8061 1745.5757,-326.839 1745.5757,-330.872 1745.5757,-330.872 1745.5757,-338.9378 1745.5757,-338.9378 1745.5757,-342.9708 1741.5427,-347.0037 1737.5098,-347.0037"/>
<text text-anchor="middle" x="1711.7163" y="-331.7542" font-family="Arial" font-size="14.00" fill="#cfffac">config.js</text>
</g>
<!-- common/brush&#45;chains.js&#45;&gt;config.js -->
<g id="edge2" class="edge">
<title>common/brush&#45;chains.js&#45;&gt;config.js</title>
<path fill="none" stroke="#757575" d="M521.559,-119.8205C647.8153,-99.5529 918.7812,-60.9049 1149.2036,-60.9049 1149.2036,-60.9049 1149.2036,-60.9049 1356.0376,-60.9049 1483.9918,-60.9049 1544.3466,-11.2681 1642.0371,-93.9049 1675.9463,-122.5888 1700.0511,-258.5303 1708.4514,-312.6246"/>
<polygon fill="#757575" stroke="#757575" points="1705.001,-313.2161 1709.9621,-322.5776 1711.9218,-312.1656 1705.001,-313.2161"/>
</g>
<!-- common/search&#45;path.js&#45;&gt;config.js -->
<g id="edge8" class="edge">
<title>common/search&#45;path.js&#45;&gt;config.js</title>
<path fill="none" stroke="#757575" d="M771.5079,-137.9648C988.2443,-130.7609 1571.3511,-116.1805 1642.0371,-164.9049 1691.5156,-199.0109 1705.9065,-274.9915 1710.0566,-312.7393"/>
<polygon fill="#757575" stroke="#757575" points="1706.5751,-313.1013 1711.0101,-322.7232 1713.5434,-312.4357 1706.5751,-313.1013"/>
</g>
<!-- common/tilesets/tilesets.js -->
<g id="node7" class="node">
<title>common/tilesets/tilesets.js</title>
<path fill="none" stroke="#c6c5fe" d="M1006.2934,-426.0037C1006.2934,-426.0037 844.2115,-426.0037 844.2115,-426.0037 840.1785,-426.0037 836.1456,-421.9708 836.1456,-417.9378 836.1456,-417.9378 836.1456,-409.872 836.1456,-409.872 836.1456,-405.839 840.1785,-401.8061 844.2115,-401.8061 844.2115,-401.8061 1006.2934,-401.8061 1006.2934,-401.8061 1010.3264,-401.8061 1014.3593,-405.839 1014.3593,-409.872 1014.3593,-409.872 1014.3593,-417.9378 1014.3593,-417.9378 1014.3593,-421.9708 1010.3264,-426.0037 1006.2934,-426.0037"/>
<text text-anchor="middle" x="925.2524" y="-410.7542" font-family="Arial" font-size="14.00" fill="#c6c5fe">common/tilesets/tilesets.js</text>
</g>
<!-- common/search&#45;path.js&#45;&gt;common/tilesets/tilesets.js -->
<g id="edge7" class="edge">
<title>common/search&#45;path.js&#45;&gt;common/tilesets/tilesets.js</title>
<path fill="none" stroke="#757575" d="M700.4256,-153.0434C723.394,-181.879 783.3817,-256.5913 835.9492,-316.9049 859.8749,-344.3562 888.55,-375.1474 906.8328,-394.527"/>
<polygon fill="#757575" stroke="#757575" points="904.3438,-396.9889 913.7582,-401.8488 909.4293,-392.1787 904.3438,-396.9889"/>
</g>
<!-- common/brush&#45;markers.js -->
<g id="node4" class="node">
<title>common/brush&#45;markers.js</title>
<path fill="none" stroke="#c6c5fe" d="M1633.8781,-227.0037C1633.8781,-227.0037 1472.3827,-227.0037 1472.3827,-227.0037 1468.3497,-227.0037 1464.3168,-222.9708 1464.3168,-218.9378 1464.3168,-218.9378 1464.3168,-210.872 1464.3168,-210.872 1464.3168,-206.839 1468.3497,-202.8061 1472.3827,-202.8061 1472.3827,-202.8061 1633.8781,-202.8061 1633.8781,-202.8061 1637.911,-202.8061 1641.9439,-206.839 1641.9439,-210.872 1641.9439,-210.872 1641.9439,-218.9378 1641.9439,-218.9378 1641.9439,-222.9708 1637.911,-227.0037 1633.8781,-227.0037"/>
<text text-anchor="middle" x="1553.1304" y="-211.7542" font-family="Arial" font-size="14.00" fill="#c6c5fe">common/brush&#45;markers.js</text>
</g>
<!-- common/brush&#45;markers.js&#45;&gt;config.js -->
<g id="edge3" class="edge">
<title>common/brush&#45;markers.js&#45;&gt;config.js</title>
<path fill="none" stroke="#757575" d="M1625.4319,-227.121C1631.288,-229.5423 1636.9138,-232.4393 1642.0371,-235.9049 1670.6989,-255.2924 1691.314,-290.689 1702.378,-313.4848"/>
<polygon fill="#757575" stroke="#757575" points="1699.2662,-315.0936 1706.6575,-322.6844 1705.6131,-312.1412 1699.2662,-315.0936"/>
</g>
<!-- common/image&#45;lib.js -->
<g id="node5" class="node">
<title>common/image&#45;lib.js</title>
<path fill="none" stroke="#c6c5fe" d="M1420.3443,-227.0037C1420.3443,-227.0037 1291.7309,-227.0037 1291.7309,-227.0037 1287.698,-227.0037 1283.665,-222.9708 1283.665,-218.9378 1283.665,-218.9378 1283.665,-210.872 1283.665,-210.872 1283.665,-206.839 1287.698,-202.8061 1291.7309,-202.8061 1291.7309,-202.8061 1420.3443,-202.8061 1420.3443,-202.8061 1424.3772,-202.8061 1428.4101,-206.839 1428.4101,-210.872 1428.4101,-210.872 1428.4101,-218.9378 1428.4101,-218.9378 1428.4101,-222.9708 1424.3772,-227.0037 1420.3443,-227.0037"/>
<text text-anchor="middle" x="1356.0376" y="-211.7542" font-family="Arial" font-size="14.00" fill="#c6c5fe">common/image&#45;lib.js</text>
</g>
<!-- common/image&#45;lib.js&#45;&gt;config.js -->
<g id="edge5" class="edge">
<title>common/image&#45;lib.js&#45;&gt;config.js</title>
<path fill="none" stroke="#757575" d="M1383.8014,-202.8374C1438.0544,-181.2764 1559.9953,-142.9353 1642.0371,-193.9049 1684.1298,-220.0556 1701.5603,-279.9913 1708.1413,-312.6674"/>
<polygon fill="#757575" stroke="#757575" points="1704.7204,-313.4169 1709.9771,-322.6157 1711.6042,-312.1466 1704.7204,-313.4169"/>
</g>
<!-- common/image&#45;lib.js&#45;&gt;common/brush&#45;markers.js -->
<g id="edge4" class="edge">
<title>common/image&#45;lib.js&#45;&gt;common/brush&#45;markers.js</title>
<path fill="none" stroke="#757575" d="M1428.3085,-214.9049C1436.6788,-214.9049 1445.3218,-214.9049 1453.9712,-214.9049"/>
<polygon fill="#757575" stroke="#757575" points="1454.1117,-218.405 1464.1117,-214.9049 1454.1117,-211.405 1454.1117,-218.405"/>
</g>
<!-- helpers/rect&#45;images.js -->
<g id="node6" class="node">
<title>helpers/rect&#45;images.js</title>
<path fill="none" stroke="#cfffac" d="M1621.502,-269.0037C1621.502,-269.0037 1484.7587,-269.0037 1484.7587,-269.0037 1480.7258,-269.0037 1476.6929,-264.9708 1476.6929,-260.9378 1476.6929,-260.9378 1476.6929,-252.872 1476.6929,-252.872 1476.6929,-248.839 1480.7258,-244.8061 1484.7587,-244.8061 1484.7587,-244.8061 1621.502,-244.8061 1621.502,-244.8061 1625.5349,-244.8061 1629.5679,-248.839 1629.5679,-252.872 1629.5679,-252.872 1629.5679,-260.9378 1629.5679,-260.9378 1629.5679,-264.9708 1625.5349,-269.0037 1621.502,-269.0037"/>
<text text-anchor="middle" x="1553.1304" y="-253.7542" font-family="Arial" font-size="14.00" fill="#cfffac">helpers/rect&#45;images.js</text>
</g>
<!-- common/image&#45;lib.js&#45;&gt;helpers/rect&#45;images.js -->
<g id="edge6" class="edge">
<title>common/image&#45;lib.js&#45;&gt;helpers/rect&#45;images.js</title>
<path fill="none" stroke="#757575" d="M1412.7806,-226.9967C1435.7664,-231.8949 1462.4769,-237.5869 1486.3891,-242.6825"/>
<polygon fill="#757575" stroke="#757575" points="1485.9369,-246.1646 1496.4467,-244.8258 1487.3958,-239.3184 1485.9369,-246.1646"/>
</g>
<!-- common/tilesets/tilesets.js&#45;&gt;config.js -->
<g id="edge11" class="edge">
<title>common/tilesets/tilesets.js&#45;&gt;config.js</title>
<path fill="none" stroke="#757575" d="M1014.4943,-417.101C1180.2204,-421.9604 1528.9403,-426.8328 1642.0371,-386.9049 1661.3678,-380.0803 1679.7991,-365.8615 1692.8447,-354.0148"/>
<polygon fill="#757575" stroke="#757575" points="1695.3685,-356.4454 1700.2313,-347.0324 1690.5599,-351.3584 1695.3685,-356.4454"/>
</g>
<!-- common/tilesets/winter.js -->
<g id="node8" class="node">
<title>common/tilesets/winter.js</title>
<path fill="none" stroke="#cfffac" d="M1226.7446,-463.0037C1226.7446,-463.0037 1071.6626,-463.0037 1071.6626,-463.0037 1067.6297,-463.0037 1063.5967,-458.9708 1063.5967,-454.9378 1063.5967,-454.9378 1063.5967,-446.872 1063.5967,-446.872 1063.5967,-442.839 1067.6297,-438.8061 1071.6626,-438.8061 1071.6626,-438.8061 1226.7446,-438.8061 1226.7446,-438.8061 1230.7776,-438.8061 1234.8105,-442.839 1234.8105,-446.872 1234.8105,-446.872 1234.8105,-454.9378 1234.8105,-454.9378 1234.8105,-458.9708 1230.7776,-463.0037 1226.7446,-463.0037"/>
<text text-anchor="middle" x="1149.2036" y="-447.7542" font-family="Arial" font-size="14.00" fill="#cfffac">common/tilesets/winter.js</text>
</g>
<!-- common/tilesets/tilesets.js&#45;&gt;common/tilesets/winter.js -->
<g id="edge9" class="edge">
<title>common/tilesets/tilesets.js&#45;&gt;common/tilesets/winter.js</title>
<path fill="none" stroke="#757575" d="M998.2725,-425.9689C1019.8572,-429.535 1043.648,-433.4656 1065.8332,-437.1309"/>
<polygon fill="#757575" stroke="#757575" points="1065.4629,-440.6171 1075.8997,-438.794 1066.604,-433.7107 1065.4629,-440.6171"/>
</g>
<!-- components/tile.js -->
<g id="node9" class="node">
<title>components/tile.js</title>
<path fill="none" stroke="#c6c5fe" d="M1205.1924,-266.0037C1205.1924,-266.0037 1093.2148,-266.0037 1093.2148,-266.0037 1089.1819,-266.0037 1085.1489,-261.9708 1085.1489,-257.9378 1085.1489,-257.9378 1085.1489,-249.872 1085.1489,-249.872 1085.1489,-245.839 1089.1819,-241.8061 1093.2148,-241.8061 1093.2148,-241.8061 1205.1924,-241.8061 1205.1924,-241.8061 1209.2254,-241.8061 1213.2583,-245.839 1213.2583,-249.872 1213.2583,-249.872 1213.2583,-257.9378 1213.2583,-257.9378 1213.2583,-261.9708 1209.2254,-266.0037 1205.1924,-266.0037"/>
<text text-anchor="middle" x="1149.2036" y="-250.7542" font-family="Arial" font-size="14.00" fill="#c6c5fe">components/tile.js</text>
</g>
<!-- common/tilesets/tilesets.js&#45;&gt;components/tile.js -->
<g id="edge10" class="edge">
<title>common/tilesets/tilesets.js&#45;&gt;components/tile.js</title>
<path fill="none" stroke="#757575" d="M942.4537,-401.6156C981.7124,-373.5676 1078.0622,-304.7313 1124.021,-271.8964"/>
<polygon fill="#757575" stroke="#757575" points="1126.1482,-274.6781 1132.2503,-266.017 1122.0789,-268.9824 1126.1482,-274.6781"/>
</g>
<!-- components/tile.js&#45;&gt;config.js -->
<g id="edge30" class="edge">
<title>components/tile.js&#45;&gt;config.js</title>
<path fill="none" stroke="#757575" d="M1213.474,-255.95C1270.2031,-258.364 1355.0246,-263.4589 1428.2236,-273.9049 1514.085,-286.1579 1612.7703,-309.5446 1668.1353,-323.531"/>
<polygon fill="#757575" stroke="#757575" points="1667.402,-326.9558 1677.9561,-326.0283 1669.1272,-320.1717 1667.402,-326.9558"/>
</g>
<!-- components/tile.js&#45;&gt;common/image&#45;lib.js -->
<g id="edge29" class="edge">
<title>components/tile.js&#45;&gt;common/image&#45;lib.js</title>
<path fill="none" stroke="#757575" d="M1213.2307,-241.8321C1235.0373,-237.7204 1259.591,-233.0906 1282.1093,-228.8446"/>
<polygon fill="#757575" stroke="#757575" points="1282.7787,-232.2801 1291.957,-226.9878 1281.4816,-225.4014 1282.7787,-232.2801"/>
</g>
<!-- helpers/get&#45;image.js -->
<g id="node22" class="node">
<title>helpers/get&#45;image.js</title>
<path fill="none" stroke="#cfffac" d="M1419.0332,-307.0037C1419.0332,-307.0037 1293.042,-307.0037 1293.042,-307.0037 1289.009,-307.0037 1284.9761,-302.9708 1284.9761,-298.9378 1284.9761,-298.9378 1284.9761,-290.872 1284.9761,-290.872 1284.9761,-286.839 1289.009,-282.8061 1293.042,-282.8061 1293.042,-282.8061 1419.0332,-282.8061 1419.0332,-282.8061 1423.0662,-282.8061 1427.0991,-286.839 1427.0991,-290.872 1427.0991,-290.872 1427.0991,-298.9378 1427.0991,-298.9378 1427.0991,-302.9708 1423.0662,-307.0037 1419.0332,-307.0037"/>
<text text-anchor="middle" x="1356.0376" y="-291.7542" font-family="Arial" font-size="14.00" fill="#cfffac">helpers/get&#45;image.js</text>
</g>
<!-- components/tile.js&#45;&gt;helpers/get&#45;image.js -->
<g id="edge31" class="edge">
<title>components/tile.js&#45;&gt;helpers/get&#45;image.js</title>
<path fill="none" stroke="#757575" d="M1210.1419,-265.9845C1233.7067,-270.6557 1260.8329,-276.0328 1285.2541,-280.8737"/>
<polygon fill="#757575" stroke="#757575" points="1284.688,-284.3295 1295.1777,-282.8409 1286.0492,-277.4631 1284.688,-284.3295"/>
</g>
<!-- common/tilesets/units/peasant.js -->
<g id="node10" class="node">
<title>common/tilesets/units/peasant.js</title>
<path fill="none" stroke="#c6c5fe" d="M792.0418,-539.0037C792.0418,-539.0037 589.5403,-539.0037 589.5403,-539.0037 585.5073,-539.0037 581.4744,-534.9708 581.4744,-530.9378 581.4744,-530.9378 581.4744,-522.872 581.4744,-522.872 581.4744,-518.839 585.5073,-514.8061 589.5403,-514.8061 589.5403,-514.8061 792.0418,-514.8061 792.0418,-514.8061 796.0747,-514.8061 800.1077,-518.839 800.1077,-522.872 800.1077,-522.872 800.1077,-530.9378 800.1077,-530.9378 800.1077,-534.9708 796.0747,-539.0037 792.0418,-539.0037"/>
<text text-anchor="middle" x="690.791" y="-523.7542" font-family="Arial" font-size="14.00" fill="#c6c5fe">common/tilesets/units/peasant.js</text>
</g>
<!-- common/tilesets/units/peasant.js&#45;&gt;config.js -->
<g id="edge13" class="edge">
<title>common/tilesets/units/peasant.js&#45;&gt;config.js</title>
<path fill="none" stroke="#757575" d="M800.0849,-527.6496C892.9591,-528.2183 1029.8242,-528.9049 1149.2036,-528.9049 1149.2036,-528.9049 1149.2036,-528.9049 1356.0376,-528.9049 1483.5953,-528.9049 1539.175,-580.3392 1642.0371,-504.9049 1690.056,-469.6901 1705.0951,-395.4295 1709.7187,-357.7986"/>
<polygon fill="#757575" stroke="#757575" points="1713.2499,-357.6978 1710.8443,-347.3797 1706.2904,-356.946 1713.2499,-357.6978"/>
</g>
<!-- common/tilesets/units/peasant.js&#45;&gt;common/tilesets/tilesets.js -->
<g id="edge12" class="edge">
<title>common/tilesets/units/peasant.js&#45;&gt;common/tilesets/tilesets.js</title>
<path fill="none" stroke="#757575" d="M715.8825,-514.8119C758.0785,-494.4753 843.2983,-453.4032 890.9759,-430.4247"/>
<polygon fill="#757575" stroke="#757575" points="892.4982,-433.5763 899.987,-426.0817 889.459,-427.2705 892.4982,-433.5763"/>
</g>
<!-- components/canvas&#45;cleaner.js -->
<g id="node11" class="node">
<title>components/canvas&#45;cleaner.js</title>
<path fill="none" stroke="#cfffac" d="M303.2708,-186.0037C303.2708,-186.0037 114.7556,-186.0037 114.7556,-186.0037 110.7226,-186.0037 106.6897,-181.9708 106.6897,-177.9378 106.6897,-177.9378 106.6897,-169.872 106.6897,-169.872 106.6897,-165.839 110.7226,-161.8061 114.7556,-161.8061 114.7556,-161.8061 303.2708,-161.8061 303.2708,-161.8061 307.3037,-161.8061 311.3367,-165.839 311.3367,-169.872 311.3367,-169.872 311.3367,-177.9378 311.3367,-177.9378 311.3367,-181.9708 307.3037,-186.0037 303.2708,-186.0037"/>
<text text-anchor="middle" x="209.0132" y="-170.7542" font-family="Arial" font-size="14.00" fill="#cfffac">components/canvas&#45;cleaner.js</text>
</g>
<!-- components/cursor.js -->
<g id="node12" class="node">
<title>components/cursor.js</title>
<path fill="none" stroke="#c6c5fe" d="M991.469,-266.0037C991.469,-266.0037 859.0358,-266.0037 859.0358,-266.0037 855.0029,-266.0037 850.9699,-261.9708 850.9699,-257.9378 850.9699,-257.9378 850.9699,-249.872 850.9699,-249.872 850.9699,-245.839 855.0029,-241.8061 859.0358,-241.8061 859.0358,-241.8061 991.469,-241.8061 991.469,-241.8061 995.502,-241.8061 999.5349,-245.839 999.5349,-249.872 999.5349,-249.872 999.5349,-257.9378 999.5349,-257.9378 999.5349,-261.9708 995.502,-266.0037 991.469,-266.0037"/>
<text text-anchor="middle" x="925.2524" y="-250.7542" font-family="Arial" font-size="14.00" fill="#c6c5fe">components/cursor.js</text>
</g>
<!-- components/cursor.js&#45;&gt;config.js -->
<g id="edge15" class="edge">
<title>components/cursor.js&#45;&gt;config.js</title>
<path fill="none" stroke="#757575" d="M981.7673,-265.9638C1052.1607,-280.4538 1176.283,-304.265 1283.8516,-315.9049 1423.2924,-330.9937 1589.5398,-334.1622 1667.3855,-334.7849"/>
<polygon fill="#757575" stroke="#757575" points="1667.7471,-338.2874 1677.7712,-334.8568 1667.7957,-331.2875 1667.7471,-338.2874"/>
</g>
<!-- components/cursor.js&#45;&gt;components/tile.js -->
<g id="edge14" class="edge">
<title>components/cursor.js&#45;&gt;components/tile.js</title>
<path fill="none" stroke="#757575" d="M999.5139,-253.9049C1023.6896,-253.9049 1050.521,-253.9049 1074.7134,-253.9049"/>
<polygon fill="#757575" stroke="#757575" points="1074.9046,-257.405 1084.9046,-253.9049 1074.9045,-250.405 1074.9046,-257.405"/>
</g>
<!-- components/editor&#45;tool.js -->
<g id="node13" class="node">
<title>components/editor&#45;tool.js</title>
<path fill="none" stroke="#c6c5fe" d="M528.4429,-658.0037C528.4429,-658.0037 371.7475,-658.0037 371.7475,-658.0037 367.7146,-658.0037 363.6816,-653.9708 363.6816,-649.9378 363.6816,-649.9378 363.6816,-641.872 363.6816,-641.872 363.6816,-637.839 367.7146,-633.8061 371.7475,-633.8061 371.7475,-633.8061 528.4429,-633.8061 528.4429,-633.8061 532.4759,-633.8061 536.5088,-637.839 536.5088,-641.872 536.5088,-641.872 536.5088,-649.9378 536.5088,-649.9378 536.5088,-653.9708 532.4759,-658.0037 528.4429,-658.0037"/>
<text text-anchor="middle" x="450.0952" y="-642.7542" font-family="Arial" font-size="14.00" fill="#c6c5fe">components/editor&#45;tool.js</text>
</g>
<!-- components/editor&#45;tool.js&#45;&gt;config.js -->
<g id="edge16" class="edge">
<title>components/editor&#45;tool.js&#45;&gt;config.js</title>
<path fill="none" stroke="#757575" d="M536.3664,-646.1955C631.5734,-646.4907 789.3456,-646.9049 925.2524,-646.9049 925.2524,-646.9049 925.2524,-646.9049 1356.0376,-646.9049 1484.0436,-646.9049 1545.9509,-697.4801 1642.0371,-612.9049 1680.8094,-578.7775 1702.5229,-417.1536 1709.3453,-357.2827"/>
<polygon fill="#757575" stroke="#757575" points="1712.858,-357.3605 1710.4794,-347.0361 1705.9005,-356.5903 1712.858,-357.3605"/>
</g>
<!-- components/map/cell.js -->
<g id="node14" class="node">
<title>components/map/cell.js</title>
<path fill="none" stroke="#c6c5fe" d="M998.4759,-113.0037C998.4759,-113.0037 852.029,-113.0037 852.029,-113.0037 847.9961,-113.0037 843.9631,-108.9708 843.9631,-104.9378 843.9631,-104.9378 843.9631,-96.872 843.9631,-96.872 843.9631,-92.839 847.9961,-88.8061 852.029,-88.8061 852.029,-88.8061 998.4759,-88.8061 998.4759,-88.8061 1002.5088,-88.8061 1006.5418,-92.839 1006.5418,-96.872 1006.5418,-96.872 1006.5418,-104.9378 1006.5418,-104.9378 1006.5418,-108.9708 1002.5088,-113.0037 998.4759,-113.0037"/>
<text text-anchor="middle" x="925.2524" y="-97.7542" font-family="Arial" font-size="14.00" fill="#c6c5fe">components/map/cell.js</text>
</g>
<!-- components/map/cell.js&#45;&gt;config.js -->
<g id="edge18" class="edge">
<title>components/map/cell.js&#45;&gt;config.js</title>
<path fill="none" stroke="#757575" d="M1006.6509,-98.2327C1183.7569,-93.1512 1592.2419,-85.678 1642.0371,-122.9049 1673.193,-146.197 1698.3451,-263.3953 1707.7416,-312.8432"/>
<polygon fill="#757575" stroke="#757575" points="1704.3294,-313.6386 1709.599,-322.83 1711.2114,-312.3586 1704.3294,-313.6386"/>
</g>
<!-- components/map/cell.js&#45;&gt;components/tile.js -->
<g id="edge17" class="edge">
<title>components/map/cell.js&#45;&gt;components/tile.js</title>
<path fill="none" stroke="#757575" d="M943.2007,-113.1669C982.6102,-140.0908 1076.8579,-204.4794 1122.9375,-235.9603"/>
<polygon fill="#757575" stroke="#757575" points="1121.2493,-239.0457 1131.4807,-241.7969 1125.1981,-233.2658 1121.2493,-239.0457"/>
</g>
<!-- components/map/surface&#45;map.js -->
<g id="node15" class="node">
<title>components/map/surface&#45;map.js</title>
<path fill="none" stroke="#c6c5fe" d="M310.5362,-144.0037C310.5362,-144.0037 107.4902,-144.0037 107.4902,-144.0037 103.4572,-144.0037 99.4243,-139.9708 99.4243,-135.9378 99.4243,-135.9378 99.4243,-127.872 99.4243,-127.872 99.4243,-123.839 103.4572,-119.8061 107.4902,-119.8061 107.4902,-119.8061 310.5362,-119.8061 310.5362,-119.8061 314.5691,-119.8061 318.6021,-123.839 318.6021,-127.872 318.6021,-127.872 318.6021,-135.9378 318.6021,-135.9378 318.6021,-139.9708 314.5691,-144.0037 310.5362,-144.0037"/>
<text text-anchor="middle" x="209.0132" y="-128.7542" font-family="Arial" font-size="14.00" fill="#c6c5fe">components/map/surface&#45;map.js</text>
</g>
<!-- components/map/surface&#45;map.js&#45;&gt;common/brush&#45;chains.js -->
<g id="edge19" class="edge">
<title>components/map/surface&#45;map.js&#45;&gt;common/brush&#45;chains.js</title>
<path fill="none" stroke="#757575" d="M318.62,-131.9049C331.0586,-131.9049 343.6537,-131.9049 355.8697,-131.9049"/>
<polygon fill="#757575" stroke="#757575" points="356.0303,-135.405 366.0303,-131.9049 356.0302,-128.405 356.0303,-135.405"/>
</g>
<!-- components/map/surface&#45;map.js&#45;&gt;config.js -->
<g id="edge21" class="edge">
<title>components/map/surface&#45;map.js&#45;&gt;config.js</title>
<path fill="none" stroke="#757575" d="M280.6879,-119.8444C293.3838,-117.2318 306.42,-114.2376 318.5576,-110.9049 334.9617,-106.4007 338.2231,-102.6551 354.5576,-97.9049 501.5767,-55.1506 537.6814,-22.9049 690.791,-22.9049 690.791,-22.9049 690.791,-22.9049 1356.0376,-22.9049 1483.4589,-22.9049 1544.8417,39.492 1642.0371,-42.9049 1683.5793,-78.1221 1703.7325,-250.4474 1709.733,-312.5462"/>
<polygon fill="#757575" stroke="#757575" points="1706.2759,-313.1695 1710.6907,-322.8007 1713.2455,-312.5186 1706.2759,-313.1695"/>
</g>
<!-- components/map/surface&#45;map.js&#45;&gt;components/map/cell.js -->
<g id="edge20" class="edge">
<title>components/map/surface&#45;map.js&#45;&gt;components/map/cell.js</title>
<path fill="none" stroke="#757575" d="M280.2484,-119.8011C303.8304,-116.2829 330.2554,-112.8632 354.5576,-110.9049 523.137,-97.3203 720.5947,-97.4044 833.4963,-98.9696"/>
<polygon fill="#757575" stroke="#757575" points="833.7695,-102.4739 843.8195,-99.1201 833.8716,-95.4746 833.7695,-102.4739"/>
</g>
<!-- components/map/tile&#45;cell.js -->
<g id="node16" class="node">
<title>components/map/tile&#45;cell.js</title>
<path fill="none" stroke="#c6c5fe" d="M775.0728,-386.0037C775.0728,-386.0037 606.5092,-386.0037 606.5092,-386.0037 602.4762,-386.0037 598.4433,-381.9708 598.4433,-377.9378 598.4433,-377.9378 598.4433,-369.872 598.4433,-369.872 598.4433,-365.839 602.4762,-361.8061 606.5092,-361.8061 606.5092,-361.8061 775.0728,-361.8061 775.0728,-361.8061 779.1058,-361.8061 783.1387,-365.839 783.1387,-369.872 783.1387,-369.872 783.1387,-377.9378 783.1387,-377.9378 783.1387,-381.9708 779.1058,-386.0037 775.0728,-386.0037"/>
<text text-anchor="middle" x="690.791" y="-370.7542" font-family="Arial" font-size="14.00" fill="#c6c5fe">components/map/tile&#45;cell.js</text>
</g>
<!-- components/map/tile&#45;cell.js&#45;&gt;config.js -->
<g id="edge24" class="edge">
<title>components/map/tile&#45;cell.js&#45;&gt;config.js</title>
<path fill="none" stroke="#757575" d="M783.1908,-375.0766C953.4546,-376.3715 1328.0393,-375.1913 1642.0371,-345.9049 1650.3595,-345.1287 1659.1969,-343.9845 1667.6832,-342.7237"/>
<polygon fill="#757575" stroke="#757575" points="1668.4614,-346.1447 1677.8023,-341.1449 1667.3822,-339.2284 1668.4614,-346.1447"/>
</g>
<!-- components/map/tile&#45;cell.js&#45;&gt;common/tilesets/tilesets.js -->
<g id="edge22" class="edge">
<title>components/map/tile&#45;cell.js&#45;&gt;common/tilesets/tilesets.js</title>
<path fill="none" stroke="#757575" d="M761.4551,-385.9605C787.5193,-390.4071 817.2507,-395.4794 844.1648,-400.071"/>
<polygon fill="#757575" stroke="#757575" points="843.8823,-403.5733 854.3285,-401.805 845.0595,-396.673 843.8823,-403.5733"/>
</g>
<!-- components/map/tile&#45;cell.js&#45;&gt;components/tile.js -->
<g id="edge23" class="edge">
<title>components/map/tile&#45;cell.js&#45;&gt;components/tile.js</title>
<path fill="none" stroke="#757575" d="M783.3951,-364.1798C848.9975,-355.7095 938.4992,-340.9285 1014.5557,-316.9049 1051.9803,-305.0837 1092.4552,-285.0762 1119.1507,-270.7794"/>
<polygon fill="#757575" stroke="#757575" points="1120.8702,-273.8284 1127.9909,-265.9833 1117.5321,-267.6756 1120.8702,-273.8284"/>
</g>
<!-- helpers/random.js -->
<g id="node17" class="node">
<title>helpers/random.js</title>
<path fill="none" stroke="#cfffac" d="M980.9622,-308.0037C980.9622,-308.0037 869.5426,-308.0037 869.5426,-308.0037 865.5097,-308.0037 861.4768,-303.9708 861.4768,-299.9378 861.4768,-299.9378 861.4768,-291.872 861.4768,-291.872 861.4768,-287.839 865.5097,-283.8061 869.5426,-283.8061 869.5426,-283.8061 980.9622,-283.8061 980.9622,-283.8061 984.9952,-283.8061 989.0281,-287.839 989.0281,-291.872 989.0281,-291.872 989.0281,-299.9378 989.0281,-299.9378 989.0281,-303.9708 984.9952,-308.0037 980.9622,-308.0037"/>
<text text-anchor="middle" x="925.2524" y="-292.7542" font-family="Arial" font-size="14.00" fill="#cfffac">helpers/random.js</text>
</g>
<!-- components/map/tile&#45;cell.js&#45;&gt;helpers/random.js -->
<g id="edge25" class="edge">
<title>components/map/tile&#45;cell.js&#45;&gt;helpers/random.js</title>
<path fill="none" stroke="#757575" d="M759.717,-361.8222C773.3787,-358.2323 787.3747,-353.6666 799.9492,-347.9049 817.8919,-339.6835 818.2154,-330.5677 835.9492,-321.9049 844.4564,-317.7492 853.7512,-314.1333 863.0267,-311.0278"/>
<polygon fill="#757575" stroke="#757575" points="864.1779,-314.3346 872.6518,-307.9751 862.0616,-307.6621 864.1779,-314.3346"/>
</g>
<!-- components/map/tile&#45;map.js -->
<g id="node18" class="node">
<title>components/map/tile&#45;map.js</title>
<path fill="none" stroke="#c6c5fe" d="M537.6045,-466.0037C537.6045,-466.0037 362.5859,-466.0037 362.5859,-466.0037 358.5529,-466.0037 354.52,-461.9708 354.52,-457.9378 354.52,-457.9378 354.52,-449.872 354.52,-449.872 354.52,-445.839 358.5529,-441.8061 362.5859,-441.8061 362.5859,-441.8061 537.6045,-441.8061 537.6045,-441.8061 541.6375,-441.8061 545.6704,-445.839 545.6704,-449.872 545.6704,-449.872 545.6704,-457.9378 545.6704,-457.9378 545.6704,-461.9708 541.6375,-466.0037 537.6045,-466.0037"/>
<text text-anchor="middle" x="450.0952" y="-450.7542" font-family="Arial" font-size="14.00" fill="#c6c5fe">components/map/tile&#45;map.js</text>
</g>
<!-- components/map/tile&#45;map.js&#45;&gt;config.js -->
<g id="edge27" class="edge">
<title>components/map/tile&#45;map.js&#45;&gt;config.js</title>
<path fill="none" stroke="#757575" d="M545.7202,-461.9514C695.5892,-473.2353 994.8365,-490.4194 1247.8516,-471.9049 1424.4592,-458.9816 1486.385,-498.3425 1642.0371,-413.9049 1666.9276,-400.4024 1687.1995,-374.3327 1699.334,-355.8379"/>
<polygon fill="#757575" stroke="#757575" points="1702.4009,-357.536 1704.7706,-347.2096 1696.4785,-353.8043 1702.4009,-357.536"/>
</g>
<!-- components/map/tile&#45;map.js&#45;&gt;components/map/tile&#45;cell.js -->
<g id="edge26" class="edge">
<title>components/map/tile&#45;map.js&#45;&gt;components/map/tile&#45;cell.js</title>
<path fill="none" stroke="#757575" d="M486.3904,-441.8415C528.6017,-427.8117 598.3676,-404.6236 644.4574,-389.3048"/>
<polygon fill="#757575" stroke="#757575" points="645.8146,-392.542 654.2003,-386.0666 643.6067,-385.8993 645.8146,-392.542"/>
</g>
<!-- components/map/wall&#45;map.js -->
<g id="node19" class="node">
<title>components/map/wall&#45;map.js</title>
<path fill="none" stroke="#c6c5fe" d="M1239.9338,-619.0037C1239.9338,-619.0037 1058.4734,-619.0037 1058.4734,-619.0037 1054.4404,-619.0037 1050.4075,-614.9708 1050.4075,-610.9378 1050.4075,-610.9378 1050.4075,-602.872 1050.4075,-602.872 1050.4075,-598.839 1054.4404,-594.8061 1058.4734,-594.8061 1058.4734,-594.8061 1239.9338,-594.8061 1239.9338,-594.8061 1243.9668,-594.8061 1247.9997,-598.839 1247.9997,-602.872 1247.9997,-602.872 1247.9997,-610.9378 1247.9997,-610.9378 1247.9997,-614.9708 1243.9668,-619.0037 1239.9338,-619.0037"/>
<text text-anchor="middle" x="1149.2036" y="-603.7542" font-family="Arial" font-size="14.00" fill="#c6c5fe">components/map/wall&#45;map.js</text>
</g>
<!-- components/map/wall&#45;map.js&#45;&gt;config.js -->
<g id="edge28" class="edge">
<title>components/map/wall&#45;map.js&#45;&gt;config.js</title>
<path fill="none" stroke="#757575" d="M1247.8612,-614.7579C1374.0633,-622.6401 1583.3647,-627.7468 1642.0371,-580.9049 1677.4925,-552.5986 1700.7534,-412.646 1708.6879,-357.3954"/>
<polygon fill="#757575" stroke="#757575" points="1712.1883,-357.6352 1710.1085,-347.2465 1705.2559,-356.6647 1712.1883,-357.6352"/>
</g>
<!-- components/mini&#45;map.js -->
<g id="node20" class="node">
<title>components/mini&#45;map.js</title>
<path fill="none" stroke="#cfffac" d="M284.6712,-102.0037C284.6712,-102.0037 133.3552,-102.0037 133.3552,-102.0037 129.3223,-102.0037 125.2893,-97.9708 125.2893,-93.9378 125.2893,-93.9378 125.2893,-85.872 125.2893,-85.872 125.2893,-81.839 129.3223,-77.8061 133.3552,-77.8061 133.3552,-77.8061 284.6712,-77.8061 284.6712,-77.8061 288.7041,-77.8061 292.737,-81.839 292.737,-85.872 292.737,-85.872 292.737,-93.9378 292.737,-93.9378 292.737,-97.9708 288.7041,-102.0037 284.6712,-102.0037"/>
<text text-anchor="middle" x="209.0132" y="-86.7542" font-family="Arial" font-size="14.00" fill="#cfffac">components/mini&#45;map.js</text>
</g>
<!-- components/status.js -->
<g id="node21" class="node">
<title>components/status.js</title>
<path fill="none" stroke="#cfffac" d="M274.4579,-60.0037C274.4579,-60.0037 143.5685,-60.0037 143.5685,-60.0037 139.5356,-60.0037 135.5026,-55.9708 135.5026,-51.9378 135.5026,-51.9378 135.5026,-43.872 135.5026,-43.872 135.5026,-39.839 139.5356,-35.8061 143.5685,-35.8061 143.5685,-35.8061 274.4579,-35.8061 274.4579,-35.8061 278.4908,-35.8061 282.5238,-39.839 282.5238,-43.872 282.5238,-43.872 282.5238,-51.9378 282.5238,-51.9378 282.5238,-55.9708 278.4908,-60.0037 274.4579,-60.0037"/>
<text text-anchor="middle" x="209.0132" y="-44.7542" font-family="Arial" font-size="14.00" fill="#cfffac">components/status.js</text>
</g>
<!-- index.js -->
<g id="node23" class="node">
<title>index.js</title>
<path fill="none" stroke="#c6c5fe" d="M55.639,-365.0037C55.639,-365.0037 7.8298,-365.0037 7.8298,-365.0037 3.7968,-365.0037 -.2361,-360.9708 -.2361,-356.9378 -.2361,-356.9378 -.2361,-348.872 -.2361,-348.872 -.2361,-344.839 3.7968,-340.8061 7.8298,-340.8061 7.8298,-340.8061 55.639,-340.8061 55.639,-340.8061 59.6719,-340.8061 63.7049,-344.839 63.7049,-348.872 63.7049,-348.872 63.7049,-356.9378 63.7049,-356.9378 63.7049,-360.9708 59.6719,-365.0037 55.639,-365.0037"/>
<text text-anchor="middle" x="31.7344" y="-349.7542" font-family="Arial" font-size="14.00" fill="#c6c5fe">index.js</text>
</g>
<!-- index.js&#45;&gt;config.js -->
<g id="edge44" class="edge">
<title>index.js&#45;&gt;config.js</title>
<path fill="none" stroke="#757575" d="M33.0151,-365.2532C36.8695,-395.6194 51.2538,-474.1968 99.4688,-511.9049 223.721,-609.0807 292.3557,-566.9049 450.0952,-566.9049 450.0952,-566.9049 450.0952,-566.9049 1356.0376,-566.9049 1419.8969,-566.9049 1591.9679,-578.5418 1642.0371,-538.9049 1671.3021,-515.7375 1697.264,-404.8281 1707.3039,-356.9698"/>
<polygon fill="#757575" stroke="#757575" points="1710.767,-357.5053 1709.3543,-347.0051 1703.9107,-356.0944 1710.767,-357.5053"/>
</g>
<!-- index.js&#45;&gt;common/tilesets/tilesets.js -->
<g id="edge32" class="edge">
<title>index.js&#45;&gt;common/tilesets/tilesets.js</title>
<path fill="none" stroke="#757575" d="M63.7916,-363.4755C74.9621,-366.7354 87.6567,-369.9726 99.4688,-371.9049 359.042,-414.367 670.0707,-417.5616 825.9267,-415.9465"/>
<polygon fill="#757575" stroke="#757575" points="826.0061,-419.446 835.9661,-415.8336 825.9273,-412.4464 826.0061,-419.446"/>
</g>
<!-- index.js&#45;&gt;components/tile.js -->
<g id="edge43" class="edge">
<title>index.js&#45;&gt;components/tile.js</title>
<path fill="none" stroke="#757575" d="M39.7365,-340.6509C51.0104,-324.4518 73.1595,-296.2862 99.4688,-281.9049 238.7553,-205.7677 291.3577,-213.9049 450.0952,-213.9049 450.0952,-213.9049 450.0952,-213.9049 690.791,-213.9049 834.934,-213.9049 871.2319,-217.5588 1014.5557,-232.9049 1034.1876,-235.007 1055.3288,-237.9702 1074.909,-241.0097"/>
<polygon fill="#757575" stroke="#757575" points="1074.566,-244.4988 1084.9897,-242.602 1075.6582,-237.5845 1074.566,-244.4988"/>
</g>
<!-- index.js&#45;&gt;common/tilesets/units/peasant.js -->
<g id="edge33" class="edge">
<title>index.js&#45;&gt;common/tilesets/units/peasant.js</title>
<path fill="none" stroke="#757575" d="M35.45,-365.1794C43.1675,-388.3368 63.298,-438.1825 99.4688,-460.9049 252.929,-557.3084 473.7748,-552.5748 597.5689,-540.0497"/>
<polygon fill="#757575" stroke="#757575" points="598.1963,-543.5032 607.7756,-538.977 597.4646,-536.5415 598.1963,-543.5032"/>
</g>
<!-- index.js&#45;&gt;components/canvas&#45;cleaner.js -->
<g id="edge34" class="edge">
<title>index.js&#45;&gt;components/canvas&#45;cleaner.js</title>
<path fill="none" stroke="#757575" d="M33.4109,-340.7939C38.1008,-311.72 54.1213,-237.6016 99.4688,-199.9049 103.8372,-196.2735 108.6256,-193.1315 113.6822,-190.4146"/>
<polygon fill="#757575" stroke="#757575" points="115.51,-193.4213 123.0413,-185.9695 112.5067,-187.0983 115.51,-193.4213"/>
</g>
<!-- index.js&#45;&gt;components/cursor.js -->
<g id="edge35" class="edge">
<title>index.js&#45;&gt;components/cursor.js</title>
<path fill="none" stroke="#757575" d="M63.5352,-349.3814C188.6028,-335.5242 649.1487,-284.4966 840.7554,-263.267"/>
<polygon fill="#757575" stroke="#757575" points="841.225,-266.7365 850.7787,-262.1564 840.4541,-259.7791 841.225,-266.7365"/>
</g>
<!-- index.js&#45;&gt;components/editor&#45;tool.js -->
<g id="edge36" class="edge">
<title>index.js&#45;&gt;components/editor&#45;tool.js</title>
<path fill="none" stroke="#757575" d="M32.9855,-365.2538C38.112,-413.2079 59.1729,-586.0891 99.4688,-619.9049 181.917,-689.0946 317.1379,-675.304 393.3145,-660.0202"/>
<polygon fill="#757575" stroke="#757575" points="394.1315,-663.4252 403.2078,-657.9599 392.7043,-656.5722 394.1315,-663.4252"/>
</g>
<!-- index.js&#45;&gt;components/map/surface&#45;map.js -->
<g id="edge37" class="edge">
<title>index.js&#45;&gt;components/map/surface&#45;map.js</title>
<path fill="none" stroke="#757575" d="M34.2177,-340.6024C42.4332,-301.1193 69.8968,-178.676 99.4688,-152.9049 100.8237,-151.7241 102.2244,-150.6013 103.6657,-149.5339"/>
<polygon fill="#757575" stroke="#757575" points="105.781,-152.3361 112.3295,-144.0074 102.0164,-146.4345 105.781,-152.3361"/>
</g>
<!-- index.js&#45;&gt;components/map/tile&#45;cell.js -->
<g id="edge38" class="edge">
<title>index.js&#45;&gt;components/map/tile&#45;cell.js</title>
<path fill="none" stroke="#757575" d="M63.522,-353.9178C157.2762,-356.9051 435.6223,-365.7743 588.0967,-370.6327"/>
<polygon fill="#757575" stroke="#757575" points="588.2973,-374.1408 598.4038,-370.9611 588.5203,-367.1443 588.2973,-374.1408"/>
</g>
<!-- index.js&#45;&gt;helpers/random.js -->
<g id="edge45" class="edge">
<title>index.js&#45;&gt;helpers/random.js</title>
<path fill="none" stroke="#757575" d="M51.0434,-340.751C64.1571,-333.2023 82.1938,-324.1544 99.4688,-319.9049 369.7876,-253.4083 704.8904,-273.9475 851.1569,-287.7703"/>
<polygon fill="#757575" stroke="#757575" points="851.0688,-291.2779 861.3582,-288.7526 851.7398,-284.3102 851.0688,-291.2779"/>
</g>
<!-- index.js&#45;&gt;components/map/tile&#45;map.js -->
<g id="edge39" class="edge">
<title>index.js&#45;&gt;components/map/tile&#45;map.js</title>
<path fill="none" stroke="#757575" d="M38.599,-365.1399C49.1396,-382.5833 71.1027,-414.0224 99.4688,-427.9049 175.3952,-465.0639 271.7824,-469.6283 344.2741,-465.9888"/>
<polygon fill="#757575" stroke="#757575" points="344.5519,-469.4788 354.3398,-465.4233 344.1592,-462.4898 344.5519,-469.4788"/>
</g>
<!-- index.js&#45;&gt;components/map/wall&#45;map.js -->
<g id="edge40" class="edge">
<title>index.js&#45;&gt;components/map/wall&#45;map.js</title>
<path fill="none" stroke="#757575" d="M33.5392,-365.2141C40.1565,-408.5346 64.5355,-552.8516 99.4688,-580.9049 160.3753,-629.8162 371.9804,-605.9049 450.0952,-605.9049 450.0952,-605.9049 450.0952,-605.9049 690.791,-605.9049 810.2669,-605.9049 947.2581,-606.2488 1040.1364,-606.5332"/>
<polygon fill="#757575" stroke="#757575" points="1040.3816,-610.0339 1050.3924,-606.565 1040.4033,-603.0339 1040.3816,-610.0339"/>
</g>
<!-- index.js&#45;&gt;components/mini&#45;map.js -->
<g id="edge41" class="edge">
<title>index.js&#45;&gt;components/mini&#45;map.js</title>
<path fill="none" stroke="#757575" d="M33.455,-340.6195C39.9597,-295.9508 64.4679,-143.0986 99.4688,-110.9049 104.2856,-106.4744 109.7399,-102.8477 115.5793,-99.8898"/>
<polygon fill="#757575" stroke="#757575" points="117.2646,-102.9735 125.0363,-95.7727 114.4704,-96.5553 117.2646,-102.9735"/>
</g>
<!-- index.js&#45;&gt;components/status.js -->
<g id="edge42" class="edge">
<title>index.js&#45;&gt;components/status.js</title>
<path fill="none" stroke="#757575" d="M32.9164,-340.6016C37.9203,-291.142 58.9875,-107.615 99.4688,-68.9049 106.8688,-61.8286 115.8852,-56.7795 125.5346,-53.2222"/>
<polygon fill="#757575" stroke="#757575" points="126.8635,-56.4736 135.3584,-50.1422 124.7693,-49.7941 126.8635,-56.4736"/>
</g>
</g>
</svg>
