<?xml version="1.0" encoding="UTF-8" standalone="no"?>
<!DOCTYPE svg PUBLIC "-//W3C//DTD SVG 1.1//EN"
 "http://www.w3.org/Graphics/SVG/1.1/DTD/svg11.dtd">
<!-- Generated by graphviz version 2.40.1 (20161225.0304)
 -->
<!-- Title: G Pages: 1 -->
<svg width="1742pt" height="637pt"
 viewBox="0.00 0.00 1741.89 636.86" xmlns="http://www.w3.org/2000/svg" xmlns:xlink="http://www.w3.org/1999/xlink">
<g id="graph0" class="graph" transform="scale(1 1) rotate(0) translate(21.6 615.2638)">
<title>G</title>
<polygon fill="#111111" stroke="transparent" points="-21.6,21.6 -21.6,-615.2638 1720.2855,-615.2638 1720.2855,21.6 -21.6,21.6"/>
<!-- common/brush&#45;chains.js -->
<g id="node1" class="node">
<title>common/brush&#45;chains.js</title>
<path fill="none" stroke="#c6c5fe" d="M525.7532,-210.6467C525.7532,-210.6467 374.4372,-210.6467 374.4372,-210.6467 370.4043,-210.6467 366.3714,-206.6137 366.3714,-202.5808 366.3714,-202.5808 366.3714,-194.5149 366.3714,-194.5149 366.3714,-190.482 370.4043,-186.449 374.4372,-186.449 374.4372,-186.449 525.7532,-186.449 525.7532,-186.449 529.7861,-186.449 533.8191,-190.482 533.8191,-194.5149 533.8191,-194.5149 533.8191,-202.5808 533.8191,-202.5808 533.8191,-206.6137 529.7861,-210.6467 525.7532,-210.6467"/>
<text text-anchor="middle" x="450.0952" y="-195.3972" font-family="Arial" font-size="14.00" fill="#c6c5fe">common/brush&#45;chains.js</text>
</g>
<!-- common/search&#45;path.js -->
<g id="node2" class="node">
<title>common/search&#45;path.js</title>
<path fill="none" stroke="#c6c5fe" d="M752.7186,-210.6467C752.7186,-210.6467 607.843,-210.6467 607.843,-210.6467 603.81,-210.6467 599.7771,-206.6137 599.7771,-202.5808 599.7771,-202.5808 599.7771,-194.5149 599.7771,-194.5149 599.7771,-190.482 603.81,-186.449 607.843,-186.449 607.843,-186.449 752.7186,-186.449 752.7186,-186.449 756.7515,-186.449 760.7845,-190.482 760.7845,-194.5149 760.7845,-194.5149 760.7845,-202.5808 760.7845,-202.5808 760.7845,-206.6137 756.7515,-210.6467 752.7186,-210.6467"/>
<text text-anchor="middle" x="680.2808" y="-195.3972" font-family="Arial" font-size="14.00" fill="#c6c5fe">common/search&#45;path.js</text>
</g>
<!-- common/brush&#45;chains.js&#45;&gt;common/search&#45;path.js -->
<g id="edge1" class="edge">
<title>common/brush&#45;chains.js&#45;&gt;common/search&#45;path.js</title>
<path fill="none" stroke="#757575" d="M533.8486,-198.5479C551.9616,-198.5479 571.1956,-198.5479 589.5617,-198.5479"/>
<polygon fill="#757575" stroke="#757575" points="589.6632,-202.048 599.6631,-198.5479 589.6631,-195.048 589.6632,-202.048"/>
</g>
<!-- config.js -->
<g id="node3" class="node">
<title>config.js</title>
<path fill="none" stroke="#cfffac" d="M1690.7998,-309.6467C1690.7998,-309.6467 1639.2129,-309.6467 1639.2129,-309.6467 1635.1799,-309.6467 1631.147,-305.6137 1631.147,-301.5808 1631.147,-301.5808 1631.147,-293.5149 1631.147,-293.5149 1631.147,-289.482 1635.1799,-285.449 1639.2129,-285.449 1639.2129,-285.449 1690.7998,-285.449 1690.7998,-285.449 1694.8328,-285.449 1698.8657,-289.482 1698.8657,-293.5149 1698.8657,-293.5149 1698.8657,-301.5808 1698.8657,-301.5808 1698.8657,-305.6137 1694.8328,-309.6467 1690.7998,-309.6467"/>
<text text-anchor="middle" x="1665.0063" y="-294.3972" font-family="Arial" font-size="14.00" fill="#cfffac">config.js</text>
</g>
<!-- common/brush&#45;chains.js&#45;&gt;config.js -->
<g id="edge2" class="edge">
<title>common/brush&#45;chains.js&#45;&gt;config.js</title>
<path fill="none" stroke="#757575" d="M479.7244,-186.3781C541.0541,-161.8076 686.8948,-106.5749 814.9287,-82.5479 946.4156,-57.8728 981.5562,-63.5479 1115.3384,-63.5479 1115.3384,-63.5479 1115.3384,-63.5479 1309.3276,-63.5479 1436.6629,-63.5479 1494.7124,-2.5034 1595.3271,-80.5479 1626.7852,-104.9491 1651.8421,-225.0743 1661.1231,-275.3539"/>
<polygon fill="#757575" stroke="#757575" points="1657.6849,-276.0101 1662.9076,-285.2282 1664.5733,-274.7652 1657.6849,-276.0101"/>
</g>
<!-- common/search&#45;path.js&#45;&gt;config.js -->
<g id="edge8" class="edge">
<title>common/search&#45;path.js&#45;&gt;config.js</title>
<path fill="none" stroke="#757575" d="M754.5278,-186.4524C946.5036,-156.7146 1454.1493,-88.2931 1595.3271,-171.5479 1633.4891,-194.0525 1652.2083,-245.7892 1660.1146,-275.4953"/>
<polygon fill="#757575" stroke="#757575" points="1656.7532,-276.4824 1662.5542,-285.348 1663.548,-274.7999 1656.7532,-276.4824"/>
</g>
<!-- common/tilesets/tilesets.js -->
<g id="node7" class="node">
<title>common/tilesets/tilesets.js</title>
<path fill="none" stroke="#c6c5fe" d="M985.2729,-343.6467C985.2729,-343.6467 823.1909,-343.6467 823.1909,-343.6467 819.158,-343.6467 815.1251,-339.6137 815.1251,-335.5808 815.1251,-335.5808 815.1251,-327.5149 815.1251,-327.5149 815.1251,-323.482 819.158,-319.449 823.1909,-319.449 823.1909,-319.449 985.2729,-319.449 985.2729,-319.449 989.3059,-319.449 993.3388,-323.482 993.3388,-327.5149 993.3388,-327.5149 993.3388,-335.5808 993.3388,-335.5808 993.3388,-339.6137 989.3059,-343.6467 985.2729,-343.6467"/>
<text text-anchor="middle" x="904.2319" y="-328.3972" font-family="Arial" font-size="14.00" fill="#c6c5fe">common/tilesets/tilesets.js</text>
</g>
<!-- common/search&#45;path.js&#45;&gt;common/tilesets/tilesets.js -->
<g id="edge7" class="edge">
<title>common/search&#45;path.js&#45;&gt;common/tilesets/tilesets.js</title>
<path fill="none" stroke="#757575" d="M700.9481,-210.8218C740.9632,-234.5859 829.1139,-286.9368 875.0701,-314.2292"/>
<polygon fill="#757575" stroke="#757575" points="873.5527,-317.3988 883.938,-319.4957 877.1271,-311.3801 873.5527,-317.3988"/>
</g>
<!-- common/brush&#45;markers.js -->
<g id="node4" class="node">
<title>common/brush&#45;markers.js</title>
<path fill="none" stroke="#c6c5fe" d="M1587.1681,-229.6467C1587.1681,-229.6467 1425.6727,-229.6467 1425.6727,-229.6467 1421.6398,-229.6467 1417.6068,-225.6137 1417.6068,-221.5808 1417.6068,-221.5808 1417.6068,-213.5149 1417.6068,-213.5149 1417.6068,-209.482 1421.6398,-205.449 1425.6727,-205.449 1425.6727,-205.449 1587.1681,-205.449 1587.1681,-205.449 1591.201,-205.449 1595.234,-209.482 1595.234,-213.5149 1595.234,-213.5149 1595.234,-221.5808 1595.234,-221.5808 1595.234,-225.6137 1591.201,-229.6467 1587.1681,-229.6467"/>
<text text-anchor="middle" x="1506.4204" y="-214.3972" font-family="Arial" font-size="14.00" fill="#c6c5fe">common/brush&#45;markers.js</text>
</g>
<!-- common/brush&#45;markers.js&#45;&gt;config.js -->
<g id="edge3" class="edge">
<title>common/brush&#45;markers.js&#45;&gt;config.js</title>
<path fill="none" stroke="#757575" d="M1559.8585,-229.65C1571.8597,-233.3238 1584.2976,-237.9188 1595.3271,-243.5479 1613.3894,-252.7661 1631.4205,-266.9079 1644.6141,-278.4072"/>
<polygon fill="#757575" stroke="#757575" points="1642.3742,-281.0995 1652.1609,-285.158 1647.0412,-275.8823 1642.3742,-281.0995"/>
</g>
<!-- common/image&#45;lib.js -->
<g id="node5" class="node">
<title>common/image&#45;lib.js</title>
<path fill="none" stroke="#c6c5fe" d="M1373.6343,-267.6467C1373.6343,-267.6467 1245.021,-267.6467 1245.021,-267.6467 1240.988,-267.6467 1236.9551,-263.6137 1236.9551,-259.5808 1236.9551,-259.5808 1236.9551,-251.5149 1236.9551,-251.5149 1236.9551,-247.482 1240.988,-243.449 1245.021,-243.449 1245.021,-243.449 1373.6343,-243.449 1373.6343,-243.449 1377.6672,-243.449 1381.7002,-247.482 1381.7002,-251.5149 1381.7002,-251.5149 1381.7002,-259.5808 1381.7002,-259.5808 1381.7002,-263.6137 1377.6672,-267.6467 1373.6343,-267.6467"/>
<text text-anchor="middle" x="1309.3276" y="-252.3972" font-family="Arial" font-size="14.00" fill="#c6c5fe">common/image&#45;lib.js</text>
</g>
<!-- common/image&#45;lib.js&#45;&gt;config.js -->
<g id="edge5" class="edge">
<title>common/image&#45;lib.js&#45;&gt;config.js</title>
<path fill="none" stroke="#757575" d="M1381.5826,-256.4833C1439.7437,-258.2816 1523.3634,-263.2288 1595.3271,-276.5479 1603.8101,-278.1179 1612.7249,-280.3444 1621.2378,-282.7654"/>
<polygon fill="#757575" stroke="#757575" points="1620.4135,-286.1717 1630.9965,-285.6692 1622.41,-279.4625 1620.4135,-286.1717"/>
</g>
<!-- common/image&#45;lib.js&#45;&gt;common/brush&#45;markers.js -->
<g id="edge4" class="edge">
<title>common/image&#45;lib.js&#45;&gt;common/brush&#45;markers.js</title>
<path fill="none" stroke="#757575" d="M1371.9598,-243.4722C1391.6238,-239.6809 1413.498,-235.4635 1433.7933,-231.5506"/>
<polygon fill="#757575" stroke="#757575" points="1434.4565,-234.9872 1443.613,-229.6573 1433.1312,-228.1138 1434.4565,-234.9872"/>
</g>
<!-- helpers/rect&#45;images.js -->
<g id="node6" class="node">
<title>helpers/rect&#45;images.js</title>
<path fill="none" stroke="#cfffac" d="M1574.792,-309.6467C1574.792,-309.6467 1438.0488,-309.6467 1438.0488,-309.6467 1434.0158,-309.6467 1429.9829,-305.6137 1429.9829,-301.5808 1429.9829,-301.5808 1429.9829,-293.5149 1429.9829,-293.5149 1429.9829,-289.482 1434.0158,-285.449 1438.0488,-285.449 1438.0488,-285.449 1574.792,-285.449 1574.792,-285.449 1578.825,-285.449 1582.8579,-289.482 1582.8579,-293.5149 1582.8579,-293.5149 1582.8579,-301.5808 1582.8579,-301.5808 1582.8579,-305.6137 1578.825,-309.6467 1574.792,-309.6467"/>
<text text-anchor="middle" x="1506.4204" y="-294.3972" font-family="Arial" font-size="14.00" fill="#cfffac">helpers/rect&#45;images.js</text>
</g>
<!-- common/image&#45;lib.js&#45;&gt;helpers/rect&#45;images.js -->
<g id="edge6" class="edge">
<title>common/image&#45;lib.js&#45;&gt;helpers/rect&#45;images.js</title>
<path fill="none" stroke="#757575" d="M1366.0706,-267.6396C1389.0565,-272.5379 1415.767,-278.2298 1439.6791,-283.3254"/>
<polygon fill="#757575" stroke="#757575" points="1439.2269,-286.8076 1449.7368,-285.4687 1440.6859,-279.9613 1439.2269,-286.8076"/>
</g>
<!-- common/tilesets/tilesets.js&#45;&gt;config.js -->
<g id="edge11" class="edge">
<title>common/tilesets/tilesets.js&#45;&gt;config.js</title>
<path fill="none" stroke="#757575" d="M993.601,-338.7474C1154.1293,-350.6588 1484.8536,-370.2679 1595.3271,-339.5479 1612.2441,-334.8437 1629.162,-324.8044 1642.0909,-315.7207"/>
<polygon fill="#757575" stroke="#757575" points="1644.3598,-318.3972 1650.3553,-309.662 1640.221,-312.7518 1644.3598,-318.3972"/>
</g>
<!-- common/tilesets/winter.js -->
<g id="node8" class="node">
<title>common/tilesets/winter.js</title>
<path fill="none" stroke="#cfffac" d="M1192.8794,-385.6467C1192.8794,-385.6467 1037.7974,-385.6467 1037.7974,-385.6467 1033.7644,-385.6467 1029.7315,-381.6137 1029.7315,-377.5808 1029.7315,-377.5808 1029.7315,-369.5149 1029.7315,-369.5149 1029.7315,-365.482 1033.7644,-361.449 1037.7974,-361.449 1037.7974,-361.449 1192.8794,-361.449 1192.8794,-361.449 1196.9123,-361.449 1200.9453,-365.482 1200.9453,-369.5149 1200.9453,-369.5149 1200.9453,-377.5808 1200.9453,-377.5808 1200.9453,-381.6137 1196.9123,-385.6467 1192.8794,-385.6467"/>
<text text-anchor="middle" x="1115.3384" y="-370.3972" font-family="Arial" font-size="14.00" fill="#cfffac">common/tilesets/winter.js</text>
</g>
<!-- common/tilesets/tilesets.js&#45;&gt;common/tilesets/winter.js -->
<g id="edge9" class="edge">
<title>common/tilesets/tilesets.js&#45;&gt;common/tilesets/winter.js</title>
<path fill="none" stroke="#757575" d="M965.0094,-343.6396C989.8494,-348.5816 1018.7505,-354.3315 1044.5369,-359.4618"/>
<polygon fill="#757575" stroke="#757575" points="1044.1337,-362.9501 1054.6244,-361.4687 1045.4996,-356.0846 1044.1337,-362.9501"/>
</g>
<!-- components/tile.js -->
<g id="node9" class="node">
<title>components/tile.js</title>
<path fill="none" stroke="#c6c5fe" d="M1171.3272,-303.6467C1171.3272,-303.6467 1059.3496,-303.6467 1059.3496,-303.6467 1055.3166,-303.6467 1051.2837,-299.6137 1051.2837,-295.5808 1051.2837,-295.5808 1051.2837,-287.5149 1051.2837,-287.5149 1051.2837,-283.482 1055.3166,-279.449 1059.3496,-279.449 1059.3496,-279.449 1171.3272,-279.449 1171.3272,-279.449 1175.3601,-279.449 1179.3931,-283.482 1179.3931,-287.5149 1179.3931,-287.5149 1179.3931,-295.5808 1179.3931,-295.5808 1179.3931,-299.6137 1175.3601,-303.6467 1171.3272,-303.6467"/>
<text text-anchor="middle" x="1115.3384" y="-288.3972" font-family="Arial" font-size="14.00" fill="#c6c5fe">components/tile.js</text>
</g>
<!-- common/tilesets/tilesets.js&#45;&gt;components/tile.js -->
<g id="edge10" class="edge">
<title>common/tilesets/tilesets.js&#45;&gt;components/tile.js</title>
<path fill="none" stroke="#757575" d="M967.8571,-319.4923C991.0149,-315.1044 1017.3878,-310.1073 1041.3659,-305.564"/>
<polygon fill="#757575" stroke="#757575" points="1042.3057,-308.9483 1051.4792,-303.6478 1041.0024,-302.0707 1042.3057,-308.9483"/>
</g>
<!-- components/tile.js&#45;&gt;config.js -->
<g id="edge28" class="edge">
<title>components/tile.js&#45;&gt;config.js</title>
<path fill="none" stroke="#757575" d="M1158.9279,-303.632C1181.9795,-309.4045 1210.8738,-315.6714 1237.1416,-318.5479 1395.3892,-335.8768 1437.8356,-341.7646 1595.3271,-318.5479 1604.2271,-317.2359 1613.5667,-315.0291 1622.4128,-312.5269"/>
<polygon fill="#757575" stroke="#757575" points="1623.5686,-315.8343 1632.1409,-309.6081 1621.5569,-309.1296 1623.5686,-315.8343"/>
</g>
<!-- components/tile.js&#45;&gt;common/image&#45;lib.js -->
<g id="edge27" class="edge">
<title>components/tile.js&#45;&gt;common/image&#45;lib.js</title>
<path fill="none" stroke="#757575" d="M1179.3953,-279.6603C1196.9945,-276.3943 1216.2352,-272.8237 1234.3878,-269.455"/>
<polygon fill="#757575" stroke="#757575" points="1235.1497,-272.8734 1244.3432,-267.6075 1233.8724,-265.9909 1235.1497,-272.8734"/>
</g>
<!-- helpers/get&#45;image.js -->
<g id="node21" class="node">
<title>helpers/get&#45;image.js</title>
<path fill="none" stroke="#cfffac" d="M1372.3233,-309.6467C1372.3233,-309.6467 1246.332,-309.6467 1246.332,-309.6467 1242.299,-309.6467 1238.2661,-305.6137 1238.2661,-301.5808 1238.2661,-301.5808 1238.2661,-293.5149 1238.2661,-293.5149 1238.2661,-289.482 1242.299,-285.449 1246.332,-285.449 1246.332,-285.449 1372.3233,-285.449 1372.3233,-285.449 1376.3562,-285.449 1380.3892,-289.482 1380.3892,-293.5149 1380.3892,-293.5149 1380.3892,-301.5808 1380.3892,-301.5808 1380.3892,-305.6137 1376.3562,-309.6467 1372.3233,-309.6467"/>
<text text-anchor="middle" x="1309.3276" y="-294.3972" font-family="Arial" font-size="14.00" fill="#cfffac">helpers/get&#45;image.js</text>
</g>
<!-- components/tile.js&#45;&gt;helpers/get&#45;image.js -->
<g id="edge29" class="edge">
<title>components/tile.js&#45;&gt;helpers/get&#45;image.js</title>
<path fill="none" stroke="#757575" d="M1179.3953,-293.5291C1194.9321,-294.0097 1211.7483,-294.5298 1227.9656,-295.0314"/>
<polygon fill="#757575" stroke="#757575" points="1227.8656,-298.5299 1237.9691,-295.3408 1228.0821,-291.5332 1227.8656,-298.5299"/>
</g>
<!-- components/canvas&#45;cleaner.js -->
<g id="node10" class="node">
<title>components/canvas&#45;cleaner.js</title>
<path fill="none" stroke="#cfffac" d="M303.2708,-223.6467C303.2708,-223.6467 114.7556,-223.6467 114.7556,-223.6467 110.7226,-223.6467 106.6897,-219.6137 106.6897,-215.5808 106.6897,-215.5808 106.6897,-207.5149 106.6897,-207.5149 106.6897,-203.482 110.7226,-199.449 114.7556,-199.449 114.7556,-199.449 303.2708,-199.449 303.2708,-199.449 307.3037,-199.449 311.3367,-203.482 311.3367,-207.5149 311.3367,-207.5149 311.3367,-215.5808 311.3367,-215.5808 311.3367,-219.6137 307.3037,-223.6467 303.2708,-223.6467"/>
<text text-anchor="middle" x="209.0132" y="-208.3972" font-family="Arial" font-size="14.00" fill="#cfffac">components/canvas&#45;cleaner.js</text>
</g>
<!-- components/cursor.js -->
<g id="node11" class="node">
<title>components/cursor.js</title>
<path fill="none" stroke="#c6c5fe" d="M970.4485,-263.6467C970.4485,-263.6467 838.0153,-263.6467 838.0153,-263.6467 833.9824,-263.6467 829.9494,-259.6137 829.9494,-255.5808 829.9494,-255.5808 829.9494,-247.5149 829.9494,-247.5149 829.9494,-243.482 833.9824,-239.449 838.0153,-239.449 838.0153,-239.449 970.4485,-239.449 970.4485,-239.449 974.4815,-239.449 978.5144,-243.482 978.5144,-247.5149 978.5144,-247.5149 978.5144,-255.5808 978.5144,-255.5808 978.5144,-259.6137 974.4815,-263.6467 970.4485,-263.6467"/>
<text text-anchor="middle" x="904.2319" y="-248.3972" font-family="Arial" font-size="14.00" fill="#c6c5fe">components/cursor.js</text>
</g>
<!-- components/cursor.js&#45;&gt;config.js -->
<g id="edge13" class="edge">
<title>components/cursor.js&#45;&gt;config.js</title>
<path fill="none" stroke="#757575" d="M960.4618,-239.4784C1104.9509,-209.6514 1485.5624,-138.9219 1595.3271,-196.5479 1627.0143,-213.1835 1647.1204,-251.4819 1657.1991,-275.8464"/>
<polygon fill="#757575" stroke="#757575" points="1654.0068,-277.2934 1660.9091,-285.3314 1660.5258,-274.7435 1654.0068,-277.2934"/>
</g>
<!-- components/cursor.js&#45;&gt;components/tile.js -->
<g id="edge12" class="edge">
<title>components/cursor.js&#45;&gt;components/tile.js</title>
<path fill="none" stroke="#757575" d="M967.8571,-263.6034C991.0149,-267.9913 1017.3878,-272.9884 1041.3659,-277.5317"/>
<polygon fill="#757575" stroke="#757575" points="1041.0024,-281.025 1051.4792,-279.448 1042.3057,-274.1474 1041.0024,-281.025"/>
</g>
<!-- components/editor&#45;tool.js -->
<g id="node12" class="node">
<title>components/editor&#45;tool.js</title>
<path fill="none" stroke="#c6c5fe" d="M528.4429,-580.6467C528.4429,-580.6467 371.7475,-580.6467 371.7475,-580.6467 367.7146,-580.6467 363.6816,-576.6137 363.6816,-572.5808 363.6816,-572.5808 363.6816,-564.5149 363.6816,-564.5149 363.6816,-560.482 367.7146,-556.449 371.7475,-556.449 371.7475,-556.449 528.4429,-556.449 528.4429,-556.449 532.4759,-556.449 536.5088,-560.482 536.5088,-564.5149 536.5088,-564.5149 536.5088,-572.5808 536.5088,-572.5808 536.5088,-576.6137 532.4759,-580.6467 528.4429,-580.6467"/>
<text text-anchor="middle" x="450.0952" y="-565.3972" font-family="Arial" font-size="14.00" fill="#c6c5fe">components/editor&#45;tool.js</text>
</g>
<!-- components/editor&#45;tool.js&#45;&gt;config.js -->
<g id="edge14" class="edge">
<title>components/editor&#45;tool.js&#45;&gt;config.js</title>
<path fill="none" stroke="#757575" d="M536.3113,-568.8506C627.6598,-569.1449 776.1115,-569.5479 904.2319,-569.5479 904.2319,-569.5479 904.2319,-569.5479 1309.3276,-569.5479 1437.183,-569.5479 1497.4275,-620.7833 1595.3271,-538.5479 1629.3352,-509.9812 1653.3814,-373.9701 1661.7537,-319.8427"/>
<polygon fill="#757575" stroke="#757575" points="1665.2252,-320.2942 1663.2591,-309.8834 1658.3038,-319.248 1665.2252,-320.2942"/>
</g>
<!-- components/map/cell.js -->
<g id="node13" class="node">
<title>components/map/cell.js</title>
<path fill="none" stroke="#c6c5fe" d="M977.4554,-115.6467C977.4554,-115.6467 831.0085,-115.6467 831.0085,-115.6467 826.9756,-115.6467 822.9426,-111.6137 822.9426,-107.5808 822.9426,-107.5808 822.9426,-99.5149 822.9426,-99.5149 822.9426,-95.482 826.9756,-91.449 831.0085,-91.449 831.0085,-91.449 977.4554,-91.449 977.4554,-91.449 981.4883,-91.449 985.5213,-95.482 985.5213,-99.5149 985.5213,-99.5149 985.5213,-107.5808 985.5213,-107.5808 985.5213,-111.6137 981.4883,-115.6467 977.4554,-115.6467"/>
<text text-anchor="middle" x="904.2319" y="-100.3972" font-family="Arial" font-size="14.00" fill="#c6c5fe">components/map/cell.js</text>
</g>
<!-- components/map/cell.js&#45;&gt;config.js -->
<g id="edge16" class="edge">
<title>components/map/cell.js&#45;&gt;config.js</title>
<path fill="none" stroke="#757575" d="M985.6553,-95.4086C1146.7882,-80.997 1499.0715,-58.4366 1595.3271,-125.5479 1645.1197,-160.2641 1659.3624,-237.04 1663.4123,-275.1652"/>
<polygon fill="#757575" stroke="#757575" points="1659.9383,-275.61 1664.3381,-285.2481 1666.909,-274.9699 1659.9383,-275.61"/>
</g>
<!-- components/map/cell.js&#45;&gt;components/tile.js -->
<g id="edge15" class="edge">
<title>components/map/cell.js&#45;&gt;components/tile.js</title>
<path fill="none" stroke="#757575" d="M918.0832,-115.8831C954.1046,-147.9618 1050.9066,-234.1684 1094.065,-272.603"/>
<polygon fill="#757575" stroke="#757575" points="1091.9149,-275.3748 1101.7105,-279.4116 1096.5703,-270.1473 1091.9149,-275.3748"/>
</g>
<!-- components/map/surface&#45;map.js -->
<g id="node14" class="node">
<title>components/map/surface&#45;map.js</title>
<path fill="none" stroke="#c6c5fe" d="M310.5362,-265.6467C310.5362,-265.6467 107.4902,-265.6467 107.4902,-265.6467 103.4572,-265.6467 99.4243,-261.6137 99.4243,-257.5808 99.4243,-257.5808 99.4243,-249.5149 99.4243,-249.5149 99.4243,-245.482 103.4572,-241.449 107.4902,-241.449 107.4902,-241.449 310.5362,-241.449 310.5362,-241.449 314.5691,-241.449 318.6021,-245.482 318.6021,-249.5149 318.6021,-249.5149 318.6021,-257.5808 318.6021,-257.5808 318.6021,-261.6137 314.5691,-265.6467 310.5362,-265.6467"/>
<text text-anchor="middle" x="209.0132" y="-250.3972" font-family="Arial" font-size="14.00" fill="#c6c5fe">components/map/surface&#45;map.js</text>
</g>
<!-- components/map/surface&#45;map.js&#45;&gt;common/brush&#45;chains.js -->
<g id="edge17" class="edge">
<title>components/map/surface&#45;map.js&#45;&gt;common/brush&#45;chains.js</title>
<path fill="none" stroke="#757575" d="M275.7724,-241.4508C289.9323,-238.6891 304.7659,-235.649 318.5576,-232.5479 344.2308,-226.7752 372.5085,-219.5768 396.245,-213.2916"/>
<polygon fill="#757575" stroke="#757575" points="397.3572,-216.6175 406.1189,-210.6607 395.5548,-209.8534 397.3572,-216.6175"/>
</g>
<!-- components/map/surface&#45;map.js&#45;&gt;config.js -->
<g id="edge19" class="edge">
<title>components/map/surface&#45;map.js&#45;&gt;config.js</title>
<path fill="none" stroke="#757575" d="M306.4271,-241.4108C310.7715,-238.8915 314.8533,-235.9577 318.5576,-232.5479 362.3522,-192.2348 311.6942,-144.8496 354.5576,-103.5479 461.7512,-.2596 531.422,-25.5479 680.2808,-25.5479 680.2808,-25.5479 680.2808,-25.5479 1309.3276,-25.5479 1436.5907,-25.5479 1496.2081,40.2726 1595.3271,-39.5479 1632.5077,-69.4893 1654.9374,-218.001 1662.3065,-275.1149"/>
<polygon fill="#757575" stroke="#757575" points="1658.8613,-275.7706 1663.5795,-285.2569 1665.8068,-274.8988 1658.8613,-275.7706"/>
</g>
<!-- components/map/surface&#45;map.js&#45;&gt;components/map/cell.js -->
<g id="edge18" class="edge">
<title>components/map/surface&#45;map.js&#45;&gt;components/map/cell.js</title>
<path fill="none" stroke="#757575" d="M301.7539,-241.4876C307.6629,-239.003 313.3293,-236.0509 318.5576,-232.5479 342.8286,-216.2859 329.8441,-193.1291 354.5576,-177.5479 495.2965,-88.8156 696.4565,-86.1511 812.3631,-93.7946"/>
<polygon fill="#757575" stroke="#757575" points="812.4006,-97.3057 822.6206,-94.5128 812.8895,-90.3228 812.4006,-97.3057"/>
</g>
<!-- components/map/tile&#45;cell.js -->
<g id="node15" class="node">
<title>components/map/tile&#45;cell.js</title>
<path fill="none" stroke="#c6c5fe" d="M764.5626,-384.6467C764.5626,-384.6467 595.9989,-384.6467 595.9989,-384.6467 591.966,-384.6467 587.933,-380.6137 587.933,-376.5808 587.933,-376.5808 587.933,-368.5149 587.933,-368.5149 587.933,-364.482 591.966,-360.449 595.9989,-360.449 595.9989,-360.449 764.5626,-360.449 764.5626,-360.449 768.5955,-360.449 772.6285,-364.482 772.6285,-368.5149 772.6285,-368.5149 772.6285,-376.5808 772.6285,-376.5808 772.6285,-380.6137 768.5955,-384.6467 764.5626,-384.6467"/>
<text text-anchor="middle" x="680.2808" y="-369.3972" font-family="Arial" font-size="14.00" fill="#c6c5fe">components/map/tile&#45;cell.js</text>
</g>
<!-- components/map/tile&#45;cell.js&#45;&gt;config.js -->
<g id="edge22" class="edge">
<title>components/map/tile&#45;cell.js&#45;&gt;config.js</title>
<path fill="none" stroke="#757575" d="M746.1892,-384.6511C768.0061,-388.3003 792.4514,-392.0071 814.9287,-394.5479 947.8643,-409.5747 981.5562,-413.5479 1115.3384,-413.5479 1115.3384,-413.5479 1115.3384,-413.5479 1309.3276,-413.5479 1438.5225,-413.5479 1479.642,-419.0653 1595.3271,-361.5479 1616.4743,-351.0337 1635.8471,-332.1415 1648.7678,-317.5988"/>
<polygon fill="#757575" stroke="#757575" points="1651.7434,-319.5054 1655.5944,-309.6352 1646.4288,-314.9496 1651.7434,-319.5054"/>
</g>
<!-- components/map/tile&#45;cell.js&#45;&gt;common/tilesets/tilesets.js -->
<g id="edge20" class="edge">
<title>components/map/tile&#45;cell.js&#45;&gt;common/tilesets/tilesets.js</title>
<path fill="none" stroke="#757575" d="M746.2622,-360.4683C772.0039,-355.7556 801.6707,-350.3243 828.2949,-345.4501"/>
<polygon fill="#757575" stroke="#757575" points="829.1292,-348.8556 838.3354,-343.6119 827.8686,-341.97 829.1292,-348.8556"/>
</g>
<!-- components/map/tile&#45;cell.js&#45;&gt;components/tile.js -->
<g id="edge21" class="edge">
<title>components/map/tile&#45;cell.js&#45;&gt;components/tile.js</title>
<path fill="none" stroke="#757575" d="M700.3957,-360.4031C725.9816,-345.6476 772.0108,-321.3851 814.9287,-310.5479 890.4029,-291.4898 979.7543,-288.1774 1041.2806,-288.7394"/>
<polygon fill="#757575" stroke="#757575" points="1041.2463,-292.2391 1051.2902,-288.8672 1041.3357,-285.2397 1041.2463,-292.2391"/>
</g>
<!-- helpers/random.js -->
<g id="node16" class="node">
<title>helpers/random.js</title>
<path fill="none" stroke="#cfffac" d="M959.9417,-385.6467C959.9417,-385.6467 848.5221,-385.6467 848.5221,-385.6467 844.4892,-385.6467 840.4562,-381.6137 840.4562,-377.5808 840.4562,-377.5808 840.4562,-369.5149 840.4562,-369.5149 840.4562,-365.482 844.4892,-361.449 848.5221,-361.449 848.5221,-361.449 959.9417,-361.449 959.9417,-361.449 963.9747,-361.449 968.0076,-365.482 968.0076,-369.5149 968.0076,-369.5149 968.0076,-377.5808 968.0076,-377.5808 968.0076,-381.6137 963.9747,-385.6467 959.9417,-385.6467"/>
<text text-anchor="middle" x="904.2319" y="-370.3972" font-family="Arial" font-size="14.00" fill="#cfffac">helpers/random.js</text>
</g>
<!-- components/map/tile&#45;cell.js&#45;&gt;helpers/random.js -->
<g id="edge23" class="edge">
<title>components/map/tile&#45;cell.js&#45;&gt;helpers/random.js</title>
<path fill="none" stroke="#757575" d="M772.6632,-372.9604C791.8773,-373.0462 811.8858,-373.1355 830.3299,-373.2179"/>
<polygon fill="#757575" stroke="#757575" points="830.3851,-376.718 840.4007,-373.2628 830.4164,-369.7181 830.3851,-376.718"/>
</g>
<!-- components/map/tile&#45;map.js -->
<g id="node17" class="node">
<title>components/map/tile&#45;map.js</title>
<path fill="none" stroke="#c6c5fe" d="M537.6045,-384.6467C537.6045,-384.6467 362.5859,-384.6467 362.5859,-384.6467 358.5529,-384.6467 354.52,-380.6137 354.52,-376.5808 354.52,-376.5808 354.52,-368.5149 354.52,-368.5149 354.52,-364.482 358.5529,-360.449 362.5859,-360.449 362.5859,-360.449 537.6045,-360.449 537.6045,-360.449 541.6375,-360.449 545.6704,-364.482 545.6704,-368.5149 545.6704,-368.5149 545.6704,-376.5808 545.6704,-376.5808 545.6704,-380.6137 541.6375,-384.6467 537.6045,-384.6467"/>
<text text-anchor="middle" x="450.0952" y="-369.3972" font-family="Arial" font-size="14.00" fill="#c6c5fe">components/map/tile&#45;map.js</text>
</g>
<!-- components/map/tile&#45;map.js&#45;&gt;config.js -->
<g id="edge25" class="edge">
<title>components/map/tile&#45;map.js&#45;&gt;config.js</title>
<path fill="none" stroke="#757575" d="M491.3147,-384.6323C570.558,-406.7625 749.9795,-451.5479 904.2319,-451.5479 904.2319,-451.5479 904.2319,-451.5479 1309.3276,-451.5479 1438.4437,-451.5479 1487.0613,-470.9003 1595.3271,-400.5479 1625.5819,-380.888 1646.0307,-342.9997 1656.5825,-319.0621"/>
<polygon fill="#757575" stroke="#757575" points="1659.8479,-320.3259 1660.4985,-309.7511 1653.3953,-317.6121 1659.8479,-320.3259"/>
</g>
<!-- components/map/tile&#45;map.js&#45;&gt;components/map/tile&#45;cell.js -->
<g id="edge24" class="edge">
<title>components/map/tile&#45;map.js&#45;&gt;components/map/tile&#45;cell.js</title>
<path fill="none" stroke="#757575" d="M545.7149,-372.5479C556.2924,-372.5479 567.0959,-372.5479 577.754,-372.5479"/>
<polygon fill="#757575" stroke="#757575" points="577.9159,-376.048 587.9158,-372.5479 577.9158,-369.048 577.9159,-376.048"/>
</g>
<!-- components/map/wall&#45;map.js -->
<g id="node18" class="node">
<title>components/map/wall&#45;map.js</title>
<path fill="none" stroke="#c6c5fe" d="M771.011,-541.6467C771.011,-541.6467 589.5505,-541.6467 589.5505,-541.6467 585.5176,-541.6467 581.4846,-537.6137 581.4846,-533.5808 581.4846,-533.5808 581.4846,-525.5149 581.4846,-525.5149 581.4846,-521.482 585.5176,-517.449 589.5505,-517.449 589.5505,-517.449 771.011,-517.449 771.011,-517.449 775.0439,-517.449 779.0769,-521.482 779.0769,-525.5149 779.0769,-525.5149 779.0769,-533.5808 779.0769,-533.5808 779.0769,-537.6137 775.0439,-541.6467 771.011,-541.6467"/>
<text text-anchor="middle" x="680.2808" y="-526.3972" font-family="Arial" font-size="14.00" fill="#c6c5fe">components/map/wall&#45;map.js</text>
</g>
<!-- components/map/wall&#45;map.js&#45;&gt;config.js -->
<g id="edge26" class="edge">
<title>components/map/wall&#45;map.js&#45;&gt;config.js</title>
<path fill="none" stroke="#757575" d="M779.2015,-529.1911C867.3812,-528.9039 999.9647,-528.5479 1115.3384,-528.5479 1115.3384,-528.5479 1115.3384,-528.5479 1309.3276,-528.5479 1436.9232,-528.5479 1494.9917,-582.3732 1595.3271,-503.5479 1624.9358,-480.2868 1650.7059,-368.2155 1660.6443,-319.8486"/>
<polygon fill="#757575" stroke="#757575" points="1664.1292,-320.272 1662.6729,-309.7777 1657.2671,-318.8896 1664.1292,-320.272"/>
</g>
<!-- components/mini&#45;map.js -->
<g id="node19" class="node">
<title>components/mini&#45;map.js</title>
<path fill="none" stroke="#cfffac" d="M284.6712,-181.6467C284.6712,-181.6467 133.3552,-181.6467 133.3552,-181.6467 129.3223,-181.6467 125.2893,-177.6137 125.2893,-173.5808 125.2893,-173.5808 125.2893,-165.5149 125.2893,-165.5149 125.2893,-161.482 129.3223,-157.449 133.3552,-157.449 133.3552,-157.449 284.6712,-157.449 284.6712,-157.449 288.7041,-157.449 292.737,-161.482 292.737,-165.5149 292.737,-165.5149 292.737,-173.5808 292.737,-173.5808 292.737,-177.6137 288.7041,-181.6467 284.6712,-181.6467"/>
<text text-anchor="middle" x="209.0132" y="-166.3972" font-family="Arial" font-size="14.00" fill="#cfffac">components/mini&#45;map.js</text>
</g>
<!-- components/status.js -->
<g id="node20" class="node">
<title>components/status.js</title>
<path fill="none" stroke="#cfffac" d="M274.4579,-139.6467C274.4579,-139.6467 143.5685,-139.6467 143.5685,-139.6467 139.5356,-139.6467 135.5026,-135.6137 135.5026,-131.5808 135.5026,-131.5808 135.5026,-123.5149 135.5026,-123.5149 135.5026,-119.482 139.5356,-115.449 143.5685,-115.449 143.5685,-115.449 274.4579,-115.449 274.4579,-115.449 278.4908,-115.449 282.5238,-119.482 282.5238,-123.5149 282.5238,-123.5149 282.5238,-131.5808 282.5238,-131.5808 282.5238,-135.6137 278.4908,-139.6467 274.4579,-139.6467"/>
<text text-anchor="middle" x="209.0132" y="-124.3972" font-family="Arial" font-size="14.00" fill="#cfffac">components/status.js</text>
</g>
<!-- index.js -->
<g id="node22" class="node">
<title>index.js</title>
<path fill="none" stroke="#c6c5fe" d="M55.639,-324.6467C55.639,-324.6467 7.8298,-324.6467 7.8298,-324.6467 3.7968,-324.6467 -.2361,-320.6137 -.2361,-316.5808 -.2361,-316.5808 -.2361,-308.5149 -.2361,-308.5149 -.2361,-304.482 3.7968,-300.449 7.8298,-300.449 7.8298,-300.449 55.639,-300.449 55.639,-300.449 59.6719,-300.449 63.7049,-304.482 63.7049,-308.5149 63.7049,-308.5149 63.7049,-316.5808 63.7049,-316.5808 63.7049,-320.6137 59.6719,-324.6467 55.639,-324.6467"/>
<text text-anchor="middle" x="31.7344" y="-309.3972" font-family="Arial" font-size="14.00" fill="#c6c5fe">index.js</text>
</g>
<!-- index.js&#45;&gt;config.js -->
<g id="edge39" class="edge">
<title>index.js&#45;&gt;config.js</title>
<path fill="none" stroke="#757575" d="M42.5408,-324.9716C55.0172,-338.6201 76.7541,-360.3511 99.4688,-373.5479 241.3952,-456.0044 285.9544,-489.5479 450.0952,-489.5479 450.0952,-489.5479 450.0952,-489.5479 1309.3276,-489.5479 1438.2906,-489.5479 1492.1593,-517.9291 1595.3271,-440.5479 1635.0504,-410.7534 1653.3468,-352.2704 1660.7193,-320.0948"/>
<polygon fill="#757575" stroke="#757575" points="1664.2304,-320.4107 1662.8888,-309.9012 1657.3838,-318.9536 1664.2304,-320.4107"/>
</g>
<!-- index.js&#45;&gt;common/tilesets/tilesets.js -->
<g id="edge30" class="edge">
<title>index.js&#45;&gt;common/tilesets/tilesets.js</title>
<path fill="none" stroke="#757575" d="M63.5616,-313.2409C183.1695,-315.8456 608.8757,-325.116 804.5458,-329.377"/>
<polygon fill="#757575" stroke="#757575" points="804.7511,-332.8822 814.8249,-329.6009 804.9035,-325.8839 804.7511,-332.8822"/>
</g>
<!-- index.js&#45;&gt;components/canvas&#45;cleaner.js -->
<g id="edge31" class="edge">
<title>index.js&#45;&gt;components/canvas&#45;cleaner.js</title>
<path fill="none" stroke="#757575" d="M38.4459,-300.2509C48.9448,-282.2766 71.0288,-249.1662 99.4688,-232.5479 102.6663,-230.6794 105.9975,-228.9729 109.4245,-227.4147"/>
<polygon fill="#757575" stroke="#757575" points="110.7611,-230.6495 118.6938,-223.6265 108.1129,-224.1697 110.7611,-230.6495"/>
</g>
<!-- index.js&#45;&gt;components/cursor.js -->
<g id="edge32" class="edge">
<title>index.js&#45;&gt;components/cursor.js</title>
<path fill="none" stroke="#757575" d="M63.5616,-310.3227C186.4204,-301.7331 632.2429,-270.5638 819.9799,-257.4383"/>
<polygon fill="#757575" stroke="#757575" points="820.3451,-260.9214 830.0766,-256.7324 819.8568,-253.9384 820.3451,-260.9214"/>
</g>
<!-- index.js&#45;&gt;components/editor&#45;tool.js -->
<g id="edge33" class="edge">
<title>index.js&#45;&gt;components/editor&#45;tool.js</title>
<path fill="none" stroke="#757575" d="M33.4908,-324.6044C40.0309,-367.7197 64.411,-513.1961 99.4688,-541.5479 182.1549,-608.4175 314.6389,-596.7914 390.879,-582.529"/>
<polygon fill="#757575" stroke="#757575" points="391.651,-585.9446 400.7984,-580.5989 390.314,-579.0734 391.651,-585.9446"/>
</g>
<!-- index.js&#45;&gt;components/map/surface&#45;map.js -->
<g id="edge34" class="edge">
<title>index.js&#45;&gt;components/map/surface&#45;map.js</title>
<path fill="none" stroke="#757575" d="M53.4725,-300.4335C66.5034,-293.561 83.5785,-285.226 99.4688,-279.5479 111.643,-275.1976 124.8387,-271.3597 137.7154,-268.0598"/>
<polygon fill="#757575" stroke="#757575" points="138.6128,-271.4433 147.4779,-265.6416 136.9297,-264.6487 138.6128,-271.4433"/>
</g>
<!-- index.js&#45;&gt;components/map/tile&#45;map.js -->
<g id="edge35" class="edge">
<title>index.js&#45;&gt;components/map/tile&#45;map.js</title>
<path fill="none" stroke="#757575" d="M51.6966,-324.7595C64.7874,-332.129 82.5528,-340.9553 99.4688,-345.5479 179.6345,-367.3123 273.6288,-373.5688 344.1081,-374.6538"/>
<polygon fill="#757575" stroke="#757575" points="344.29,-378.1561 354.3317,-374.7775 344.3748,-371.1566 344.29,-378.1561"/>
</g>
<!-- index.js&#45;&gt;components/map/wall&#45;map.js -->
<g id="edge36" class="edge">
<title>index.js&#45;&gt;components/map/wall&#45;map.js</title>
<path fill="none" stroke="#757575" d="M34.2193,-324.7446C42.3354,-363.2807 69.2847,-481.1977 99.4688,-503.5479 136.3291,-530.8415 413.633,-532.4848 571.3708,-531.1425"/>
<polygon fill="#757575" stroke="#757575" points="571.6161,-534.6405 581.5839,-531.05 571.5526,-527.6408 571.6161,-534.6405"/>
</g>
<!-- index.js&#45;&gt;components/mini&#45;map.js -->
<g id="edge37" class="edge">
<title>index.js&#45;&gt;components/mini&#45;map.js</title>
<path fill="none" stroke="#757575" d="M34.8145,-300.1733C41.736,-275.1154 61.0087,-218.395 99.4688,-190.5479 104.3923,-186.983 109.7554,-183.9766 115.3764,-181.4453"/>
<polygon fill="#757575" stroke="#757575" points="117.0361,-184.5527 125.0472,-177.6193 114.4609,-178.0436 117.0361,-184.5527"/>
</g>
<!-- index.js&#45;&gt;components/status.js -->
<g id="edge38" class="edge">
<title>index.js&#45;&gt;components/status.js</title>
<path fill="none" stroke="#757575" d="M32.9017,-300.3674C36.5368,-269.6176 50.5345,-188.4654 99.4688,-148.5479 107.1777,-142.2594 116.2043,-137.6492 125.7092,-134.2968"/>
<polygon fill="#757575" stroke="#757575" points="126.8048,-137.6219 135.3425,-131.3483 124.756,-130.9284 126.8048,-137.6219"/>
</g>
</g>
</svg>
