<?xml version="1.0" encoding="UTF-8" standalone="no"?>
<!DOCTYPE svg PUBLIC "-//W3C//DTD SVG 1.1//EN"
 "http://www.w3.org/Graphics/SVG/1.1/DTD/svg11.dtd">
<!-- Generated by graphviz version 2.40.1 (20161225.0304)
 -->
<!-- Title: G Pages: 1 -->
<svg width="1570pt" height="543pt"
 viewBox="0.00 0.00 1569.98 542.66" xmlns="http://www.w3.org/2000/svg" xmlns:xlink="http://www.w3.org/1999/xlink">
<g id="graph0" class="graph" transform="scale(1 1) rotate(0) translate(21.6 521.0582)">
<title>G</title>
<polygon fill="#111111" stroke="transparent" points="-21.6,21.6 -21.6,-521.0582 1548.3754,-521.0582 1548.3754,21.6 -21.6,21.6"/>
<!-- common/brush&#45;chains.js -->
<g id="node1" class="node">
<title>common/brush&#45;chains.js</title>
<path fill="none" stroke="#c6c5fe" d="M472.0637,-380.3779C472.0637,-380.3779 320.7478,-380.3779 320.7478,-380.3779 316.7148,-380.3779 312.6819,-376.3449 312.6819,-372.312 312.6819,-372.312 312.6819,-364.2461 312.6819,-364.2461 312.6819,-360.2132 316.7148,-356.1802 320.7478,-356.1802 320.7478,-356.1802 472.0637,-356.1802 472.0637,-356.1802 476.0967,-356.1802 480.1296,-360.2132 480.1296,-364.2461 480.1296,-364.2461 480.1296,-372.312 480.1296,-372.312 480.1296,-376.3449 476.0967,-380.3779 472.0637,-380.3779"/>
<text text-anchor="middle" x="396.4058" y="-365.1284" font-family="Arial" font-size="14.00" fill="#c6c5fe">common/brush&#45;chains.js</text>
</g>
<!-- common/search&#45;path.js -->
<g id="node2" class="node">
<title>common/search&#45;path.js</title>
<path fill="none" stroke="#c6c5fe" d="M679.574,-380.3779C679.574,-380.3779 534.6984,-380.3779 534.6984,-380.3779 530.6655,-380.3779 526.6325,-376.3449 526.6325,-372.312 526.6325,-372.312 526.6325,-364.2461 526.6325,-364.2461 526.6325,-360.2132 530.6655,-356.1802 534.6984,-356.1802 534.6984,-356.1802 679.574,-356.1802 679.574,-356.1802 683.607,-356.1802 687.6399,-360.2132 687.6399,-364.2461 687.6399,-364.2461 687.6399,-372.312 687.6399,-372.312 687.6399,-376.3449 683.607,-380.3779 679.574,-380.3779"/>
<text text-anchor="middle" x="607.1362" y="-365.1284" font-family="Arial" font-size="14.00" fill="#c6c5fe">common/search&#45;path.js</text>
</g>
<!-- common/brush&#45;chains.js&#45;&gt;common/search&#45;path.js -->
<g id="edge1" class="edge">
<title>common/brush&#45;chains.js&#45;&gt;common/search&#45;path.js</title>
<path fill="none" stroke="#757575" d="M480.2975,-368.279C492.2236,-368.279 504.533,-368.279 516.5789,-368.279"/>
<polygon fill="#757575" stroke="#757575" points="516.6213,-371.7791 526.6213,-368.279 516.6213,-364.7791 516.6213,-371.7791"/>
</g>
<!-- config.js -->
<g id="node3" class="node">
<title>config.js</title>
<path fill="none" stroke="#cfffac" d="M1518.8897,-265.3779C1518.8897,-265.3779 1467.3027,-265.3779 1467.3027,-265.3779 1463.2698,-265.3779 1459.2368,-261.3449 1459.2368,-257.312 1459.2368,-257.312 1459.2368,-249.2461 1459.2368,-249.2461 1459.2368,-245.2132 1463.2698,-241.1802 1467.3027,-241.1802 1467.3027,-241.1802 1518.8897,-241.1802 1518.8897,-241.1802 1522.9226,-241.1802 1526.9555,-245.2132 1526.9555,-249.2461 1526.9555,-249.2461 1526.9555,-257.312 1526.9555,-257.312 1526.9555,-261.3449 1522.9226,-265.3779 1518.8897,-265.3779"/>
<text text-anchor="middle" x="1493.0962" y="-250.1284" font-family="Arial" font-size="14.00" fill="#cfffac">config.js</text>
</g>
<!-- common/brush&#45;chains.js&#45;&gt;config.js -->
<g id="edge2" class="edge">
<title>common/brush&#45;chains.js&#45;&gt;config.js</title>
<path fill="none" stroke="#757575" d="M455.9304,-380.3396C475.1144,-383.7879 496.5204,-387.1775 516.2676,-389.279 722.39,-411.2149 775.0281,-407.279 982.3145,-407.279 982.3145,-407.279 982.3145,-407.279 1154.5278,-407.279 1274.8774,-407.279 1323.0906,-441.752 1423.417,-375.279 1458.9363,-351.7451 1478.4253,-303.5236 1487.2226,-275.2638"/>
<polygon fill="#757575" stroke="#757575" points="1490.6294,-276.084 1490.0819,-265.5033 1483.9117,-274.1161 1490.6294,-276.084"/>
</g>
<!-- common/search&#45;path.js&#45;&gt;config.js -->
<g id="edge7" class="edge">
<title>common/search&#45;path.js&#45;&gt;config.js</title>
<path fill="none" stroke="#757575" d="M687.6406,-368.6176C763.6129,-368.9077 880.7033,-369.279 982.3145,-369.279 982.3145,-369.279 982.3145,-369.279 1154.5278,-369.279 1274.5092,-369.279 1318.459,-403.4113 1423.417,-345.279 1451.9922,-329.4523 1472.4312,-296.4717 1483.5078,-274.6046"/>
<polygon fill="#757575" stroke="#757575" points="1486.7361,-275.968 1487.9339,-265.4411 1480.4329,-272.9235 1486.7361,-275.968"/>
</g>
<!-- common/tilesets.js -->
<g id="node6" class="node">
<title>common/tilesets.js</title>
<path fill="none" stroke="#c6c5fe" d="M865.7247,-181.3779C865.7247,-181.3779 750.5673,-181.3779 750.5673,-181.3779 746.5343,-181.3779 742.5014,-177.3449 742.5014,-173.312 742.5014,-173.312 742.5014,-165.2461 742.5014,-165.2461 742.5014,-161.2132 746.5343,-157.1802 750.5673,-157.1802 750.5673,-157.1802 865.7247,-157.1802 865.7247,-157.1802 869.7577,-157.1802 873.7906,-161.2132 873.7906,-165.2461 873.7906,-165.2461 873.7906,-173.312 873.7906,-173.312 873.7906,-177.3449 869.7577,-181.3779 865.7247,-181.3779"/>
<text text-anchor="middle" x="808.146" y="-166.1284" font-family="Arial" font-size="14.00" fill="#c6c5fe">common/tilesets.js</text>
</g>
<!-- common/search&#45;path.js&#45;&gt;common/tilesets.js -->
<g id="edge6" class="edge">
<title>common/search&#45;path.js&#45;&gt;common/tilesets.js</title>
<path fill="none" stroke="#757575" d="M617.0491,-356.0604C637.656,-330.9602 687.1125,-272.2593 734.0049,-228.279 749.5513,-213.698 768.3535,-198.7628 783.1331,-187.5671"/>
<polygon fill="#757575" stroke="#757575" points="785.4098,-190.2348 791.3153,-181.4384 781.2133,-184.6322 785.4098,-190.2348"/>
</g>
<!-- common/image&#45;lib.js -->
<g id="node4" class="node">
<title>common/image&#45;lib.js</title>
<path fill="none" stroke="#c6c5fe" d="M1218.8345,-265.3779C1218.8345,-265.3779 1090.2212,-265.3779 1090.2212,-265.3779 1086.1882,-265.3779 1082.1553,-261.3449 1082.1553,-257.312 1082.1553,-257.312 1082.1553,-249.2461 1082.1553,-249.2461 1082.1553,-245.2132 1086.1882,-241.1802 1090.2212,-241.1802 1090.2212,-241.1802 1218.8345,-241.1802 1218.8345,-241.1802 1222.8674,-241.1802 1226.9004,-245.2132 1226.9004,-249.2461 1226.9004,-249.2461 1226.9004,-257.312 1226.9004,-257.312 1226.9004,-261.3449 1222.8674,-265.3779 1218.8345,-265.3779"/>
<text text-anchor="middle" x="1154.5278" y="-250.1284" font-family="Arial" font-size="14.00" fill="#c6c5fe">common/image&#45;lib.js</text>
</g>
<!-- common/image&#45;lib.js&#45;&gt;config.js -->
<g id="edge4" class="edge">
<title>common/image&#45;lib.js&#45;&gt;config.js</title>
<path fill="none" stroke="#757575" d="M1205.9611,-241.2061C1223.8212,-237.5718 1244.0497,-234.0737 1262.7139,-232.279 1333.8095,-225.4427 1352.757,-221.8626 1423.417,-232.279 1432.317,-233.591 1441.6566,-235.7978 1450.5027,-238.3"/>
<polygon fill="#757575" stroke="#757575" points="1449.6468,-241.6973 1460.2308,-241.2188 1451.6584,-234.9926 1449.6468,-241.6973"/>
</g>
<!-- common/rect&#45;images.js -->
<g id="node5" class="node">
<title>common/rect&#45;images.js</title>
<path fill="none" stroke="#c6c5fe" d="M1415.2029,-265.3779C1415.2029,-265.3779 1270.9279,-265.3779 1270.9279,-265.3779 1266.895,-265.3779 1262.862,-261.3449 1262.862,-257.312 1262.862,-257.312 1262.862,-249.2461 1262.862,-249.2461 1262.862,-245.2132 1266.895,-241.1802 1270.9279,-241.1802 1270.9279,-241.1802 1415.2029,-241.1802 1415.2029,-241.1802 1419.2359,-241.1802 1423.2688,-245.2132 1423.2688,-249.2461 1423.2688,-249.2461 1423.2688,-257.312 1423.2688,-257.312 1423.2688,-261.3449 1419.2359,-265.3779 1415.2029,-265.3779"/>
<text text-anchor="middle" x="1343.0654" y="-250.1284" font-family="Arial" font-size="14.00" fill="#c6c5fe">common/rect&#45;images.js</text>
</g>
<!-- common/image&#45;lib.js&#45;&gt;common/rect&#45;images.js -->
<g id="edge3" class="edge">
<title>common/image&#45;lib.js&#45;&gt;common/rect&#45;images.js</title>
<path fill="none" stroke="#757575" d="M1226.8822,-253.279C1235.3163,-253.279 1243.9983,-253.279 1252.6371,-253.279"/>
<polygon fill="#757575" stroke="#757575" points="1252.7412,-256.7791 1262.7411,-253.279 1252.7411,-249.7791 1252.7412,-256.7791"/>
</g>
<!-- common/rect&#45;images.js&#45;&gt;config.js -->
<g id="edge5" class="edge">
<title>common/rect&#45;images.js&#45;&gt;config.js</title>
<path fill="none" stroke="#757575" d="M1423.3515,-253.279C1432.267,-253.279 1441.0828,-253.279 1449.2918,-253.279"/>
<polygon fill="#757575" stroke="#757575" points="1449.3271,-256.7791 1459.327,-253.279 1449.327,-249.7791 1449.3271,-256.7791"/>
</g>
<!-- common/tilesets.js&#45;&gt;config.js -->
<g id="edge9" class="edge">
<title>common/tilesets.js&#45;&gt;config.js</title>
<path fill="none" stroke="#757575" d="M860.0287,-157.1671C969.6649,-134.2699 1230.651,-94.1512 1423.417,-179.279 1448.1601,-190.2059 1468.2536,-214.5773 1480.3949,-232.3759"/>
<polygon fill="#757575" stroke="#757575" points="1477.6091,-234.5117 1486.0016,-240.9783 1483.4735,-230.6895 1477.6091,-234.5117"/>
</g>
<!-- components/tile.js -->
<g id="node7" class="node">
<title>components/tile.js</title>
<path fill="none" stroke="#c6c5fe" d="M1038.3033,-223.3779C1038.3033,-223.3779 926.3256,-223.3779 926.3256,-223.3779 922.2927,-223.3779 918.2598,-219.3449 918.2598,-215.312 918.2598,-215.312 918.2598,-207.2461 918.2598,-207.2461 918.2598,-203.2132 922.2927,-199.1802 926.3256,-199.1802 926.3256,-199.1802 1038.3033,-199.1802 1038.3033,-199.1802 1042.3362,-199.1802 1046.3692,-203.2132 1046.3692,-207.2461 1046.3692,-207.2461 1046.3692,-215.312 1046.3692,-215.312 1046.3692,-219.3449 1042.3362,-223.3779 1038.3033,-223.3779"/>
<text text-anchor="middle" x="982.3145" y="-208.1284" font-family="Arial" font-size="14.00" fill="#c6c5fe">components/tile.js</text>
</g>
<!-- common/tilesets.js&#45;&gt;components/tile.js -->
<g id="edge8" class="edge">
<title>common/tilesets.js&#45;&gt;components/tile.js</title>
<path fill="none" stroke="#757575" d="M858.5227,-181.4272C878.3805,-186.2158 901.3551,-191.756 922.0807,-196.7539"/>
<polygon fill="#757575" stroke="#757575" points="921.5091,-200.2163 932.0509,-199.1582 923.1501,-193.4114 921.5091,-200.2163"/>
</g>
<!-- components/tile.js&#45;&gt;config.js -->
<g id="edge24" class="edge">
<title>components/tile.js&#45;&gt;config.js</title>
<path fill="none" stroke="#757575" d="M1029.8233,-199.2077C1046.3328,-195.5735 1065.0452,-192.0751 1082.3418,-190.279 1233.7416,-174.5578 1277.7085,-177.2553 1423.417,-221.279 1436.3878,-225.198 1450.0599,-231.0596 1461.825,-236.6994"/>
<polygon fill="#757575" stroke="#757575" points="1460.2858,-239.8427 1470.8017,-241.1335 1463.3859,-233.5666 1460.2858,-239.8427"/>
</g>
<!-- components/tile.js&#45;&gt;common/image&#45;lib.js -->
<g id="edge23" class="edge">
<title>components/tile.js&#45;&gt;common/image&#45;lib.js</title>
<path fill="none" stroke="#757575" d="M1032.1257,-223.4272C1051.7605,-228.2158 1074.4773,-233.756 1094.9702,-238.7539"/>
<polygon fill="#757575" stroke="#757575" points="1094.284,-242.1891 1104.8285,-241.1582 1095.9426,-235.3884 1094.284,-242.1891"/>
</g>
<!-- helpers/get&#45;image.js -->
<g id="node14" class="node">
<title>helpers/get&#45;image.js</title>
<path fill="none" stroke="#cfffac" d="M1217.5235,-223.3779C1217.5235,-223.3779 1091.5322,-223.3779 1091.5322,-223.3779 1087.4992,-223.3779 1083.4663,-219.3449 1083.4663,-215.312 1083.4663,-215.312 1083.4663,-207.2461 1083.4663,-207.2461 1083.4663,-203.2132 1087.4992,-199.1802 1091.5322,-199.1802 1091.5322,-199.1802 1217.5235,-199.1802 1217.5235,-199.1802 1221.5564,-199.1802 1225.5894,-203.2132 1225.5894,-207.2461 1225.5894,-207.2461 1225.5894,-215.312 1225.5894,-215.312 1225.5894,-219.3449 1221.5564,-223.3779 1217.5235,-223.3779"/>
<text text-anchor="middle" x="1154.5278" y="-208.1284" font-family="Arial" font-size="14.00" fill="#cfffac">helpers/get&#45;image.js</text>
</g>
<!-- components/tile.js&#45;&gt;helpers/get&#45;image.js -->
<g id="edge25" class="edge">
<title>components/tile.js&#45;&gt;helpers/get&#45;image.js</title>
<path fill="none" stroke="#757575" d="M1046.4404,-211.279C1055.195,-211.279 1064.2745,-211.279 1073.2829,-211.279"/>
<polygon fill="#757575" stroke="#757575" points="1073.4023,-214.7791 1083.4023,-211.279 1073.4022,-207.7791 1073.4023,-214.7791"/>
</g>
<!-- components/cell.js -->
<g id="node8" class="node">
<title>components/cell.js</title>
<path fill="none" stroke="#c6c5fe" d="M865.7452,-303.3779C865.7452,-303.3779 750.5467,-303.3779 750.5467,-303.3779 746.5138,-303.3779 742.4809,-299.3449 742.4809,-295.312 742.4809,-295.312 742.4809,-287.2461 742.4809,-287.2461 742.4809,-283.2132 746.5138,-279.1802 750.5467,-279.1802 750.5467,-279.1802 865.7452,-279.1802 865.7452,-279.1802 869.7782,-279.1802 873.8111,-283.2132 873.8111,-287.2461 873.8111,-287.2461 873.8111,-295.312 873.8111,-295.312 873.8111,-299.3449 869.7782,-303.3779 865.7452,-303.3779"/>
<text text-anchor="middle" x="808.146" y="-288.1284" font-family="Arial" font-size="14.00" fill="#c6c5fe">components/cell.js</text>
</g>
<!-- components/cell.js&#45;&gt;config.js -->
<g id="edge11" class="edge">
<title>components/cell.js&#45;&gt;config.js</title>
<path fill="none" stroke="#757575" d="M873.7901,-295.1213C986.8735,-300.4843 1225.358,-306.2769 1423.417,-274.279 1432.0232,-272.8886 1441.0522,-270.7222 1449.6507,-268.299"/>
<polygon fill="#757575" stroke="#757575" points="1450.9105,-271.5758 1459.4958,-265.3676 1448.9128,-264.8669 1450.9105,-271.5758"/>
</g>
<!-- components/cell.js&#45;&gt;components/tile.js -->
<g id="edge10" class="edge">
<title>components/cell.js&#45;&gt;components/tile.js</title>
<path fill="none" stroke="#757575" d="M857.8151,-279.1239C866.1142,-276.5518 874.539,-273.5958 882.2871,-270.279 908.8079,-258.9264 936.931,-241.8327 956.58,-228.9622"/>
<polygon fill="#757575" stroke="#757575" points="958.5849,-231.8322 964.9755,-223.3817 954.7099,-226.0026 958.5849,-231.8322"/>
</g>
<!-- components/cursor.js -->
<g id="node9" class="node">
<title>components/cursor.js</title>
<path fill="none" stroke="#c6c5fe" d="M874.3626,-459.3779C874.3626,-459.3779 741.9294,-459.3779 741.9294,-459.3779 737.8964,-459.3779 733.8635,-455.3449 733.8635,-451.312 733.8635,-451.312 733.8635,-443.2461 733.8635,-443.2461 733.8635,-439.2132 737.8964,-435.1802 741.9294,-435.1802 741.9294,-435.1802 874.3626,-435.1802 874.3626,-435.1802 878.3955,-435.1802 882.4285,-439.2132 882.4285,-443.2461 882.4285,-443.2461 882.4285,-451.312 882.4285,-451.312 882.4285,-455.3449 878.3955,-459.3779 874.3626,-459.3779"/>
<text text-anchor="middle" x="808.146" y="-444.1284" font-family="Arial" font-size="14.00" fill="#c6c5fe">components/cursor.js</text>
</g>
<!-- components/cursor.js&#45;&gt;config.js -->
<g id="edge13" class="edge">
<title>components/cursor.js&#45;&gt;config.js</title>
<path fill="none" stroke="#757575" d="M882.2998,-453.7672C1026.508,-464.8616 1338.0821,-480.9127 1423.417,-421.279 1471.736,-387.5128 1486.6375,-313.6516 1491.1646,-276.1308"/>
<polygon fill="#757575" stroke="#757575" points="1494.6925,-276.05 1492.262,-265.7377 1487.7312,-275.3149 1494.6925,-276.05"/>
</g>
<!-- components/cursor.js&#45;&gt;components/tile.js -->
<g id="edge12" class="edge">
<title>components/cursor.js&#45;&gt;components/tile.js</title>
<path fill="none" stroke="#757575" d="M817.2648,-434.9229C845.5396,-396.6104 931.9424,-279.5337 967.1465,-231.8317"/>
<polygon fill="#757575" stroke="#757575" points="970.164,-233.6373 973.2859,-223.5128 964.5317,-229.4806 970.164,-233.6373"/>
</g>
<!-- components/game&#45;map.js -->
<g id="node10" class="node">
<title>components/game&#45;map.js</title>
<path fill="none" stroke="#c6c5fe" d="M268.5157,-302.3779C268.5157,-302.3779 107.497,-302.3779 107.497,-302.3779 103.4641,-302.3779 99.4311,-298.3449 99.4311,-294.312 99.4311,-294.312 99.4311,-286.2461 99.4311,-286.2461 99.4311,-282.2132 103.4641,-278.1802 107.497,-278.1802 107.497,-278.1802 268.5157,-278.1802 268.5157,-278.1802 272.5486,-278.1802 276.5816,-282.2132 276.5816,-286.2461 276.5816,-286.2461 276.5816,-294.312 276.5816,-294.312 276.5816,-298.3449 272.5486,-302.3779 268.5157,-302.3779"/>
<text text-anchor="middle" x="188.0063" y="-287.1284" font-family="Arial" font-size="14.00" fill="#c6c5fe">components/game&#45;map.js</text>
</g>
<!-- components/game&#45;map.js&#45;&gt;common/brush&#45;chains.js -->
<g id="edge14" class="edge">
<title>components/game&#45;map.js&#45;&gt;common/brush&#45;chains.js</title>
<path fill="none" stroke="#757575" d="M214.9235,-302.3899C239.9518,-313.4416 278.4052,-329.8914 312.5439,-342.279 322.9659,-346.0608 334.2354,-349.7924 345.0294,-353.1971"/>
<polygon fill="#757575" stroke="#757575" points="344.1825,-356.599 354.7707,-356.2241 346.2597,-349.9143 344.1825,-356.599"/>
</g>
<!-- components/game&#45;map.js&#45;&gt;config.js -->
<g id="edge17" class="edge">
<title>components/game&#45;map.js&#45;&gt;config.js</title>
<path fill="none" stroke="#757575" d="M276.7133,-301.0387C288.7431,-302.2672 300.9375,-303.3939 312.5439,-304.279 609.5989,-326.9341 684.3969,-331.279 982.3145,-331.279 982.3145,-331.279 982.3145,-331.279 1154.5278,-331.279 1275.0423,-331.279 1309.8487,-336.6023 1423.417,-296.279 1439.852,-290.4437 1456.5379,-280.3253 1469.4595,-271.3694"/>
<polygon fill="#757575" stroke="#757575" points="1471.6671,-274.0933 1477.7545,-265.4219 1467.5881,-268.4045 1471.6671,-274.0933"/>
</g>
<!-- components/game&#45;map.js&#45;&gt;components/cell.js -->
<g id="edge15" class="edge">
<title>components/game&#45;map.js&#45;&gt;components/cell.js</title>
<path fill="none" stroke="#757575" d="M276.8572,-290.4223C399.0943,-290.6194 617.0403,-290.9709 732.1239,-291.1565"/>
<polygon fill="#757575" stroke="#757575" points="732.2517,-294.6566 742.2574,-291.1728 732.2631,-287.6566 732.2517,-294.6566"/>
</g>
<!-- components/map&#45;cell.js -->
<g id="node11" class="node">
<title>components/map&#45;cell.js</title>
<path fill="none" stroke="#c6c5fe" d="M680.6319,-222.3779C680.6319,-222.3779 533.6406,-222.3779 533.6406,-222.3779 529.6076,-222.3779 525.5747,-218.3449 525.5747,-214.312 525.5747,-214.312 525.5747,-206.2461 525.5747,-206.2461 525.5747,-202.2132 529.6076,-198.1802 533.6406,-198.1802 533.6406,-198.1802 680.6319,-198.1802 680.6319,-198.1802 684.6648,-198.1802 688.6978,-202.2132 688.6978,-206.2461 688.6978,-206.2461 688.6978,-214.312 688.6978,-214.312 688.6978,-218.3449 684.6648,-222.3779 680.6319,-222.3779"/>
<text text-anchor="middle" x="607.1362" y="-207.1284" font-family="Arial" font-size="14.00" fill="#c6c5fe">components/map&#45;cell.js</text>
</g>
<!-- components/game&#45;map.js&#45;&gt;components/map&#45;cell.js -->
<g id="edge16" class="edge">
<title>components/game&#45;map.js&#45;&gt;components/map&#45;cell.js</title>
<path fill="none" stroke="#757575" d="M251.2081,-278.2156C326.9788,-263.7531 453.7362,-239.5588 533.7598,-224.2845"/>
<polygon fill="#757575" stroke="#757575" points="534.5971,-227.688 543.7635,-222.3751 533.2846,-220.8121 534.5971,-227.688"/>
</g>
<!-- context.js -->
<g id="node12" class="node">
<title>context.js</title>
<path fill="none" stroke="#c6c5fe" d="M425.9777,-186.3779C425.9777,-186.3779 366.8338,-186.3779 366.8338,-186.3779 362.8009,-186.3779 358.7679,-182.3449 358.7679,-178.312 358.7679,-178.312 358.7679,-170.2461 358.7679,-170.2461 358.7679,-166.2132 362.8009,-162.1802 366.8338,-162.1802 366.8338,-162.1802 425.9777,-162.1802 425.9777,-162.1802 430.0106,-162.1802 434.0436,-166.2132 434.0436,-170.2461 434.0436,-170.2461 434.0436,-178.312 434.0436,-178.312 434.0436,-182.3449 430.0106,-186.3779 425.9777,-186.3779"/>
<text text-anchor="middle" x="396.4058" y="-171.1284" font-family="Arial" font-size="14.00" fill="#c6c5fe">context.js</text>
</g>
<!-- components/game&#45;map.js&#45;&gt;context.js -->
<g id="edge18" class="edge">
<title>components/game&#45;map.js&#45;&gt;context.js</title>
<path fill="none" stroke="#757575" d="M209.9149,-278.0843C247.2036,-257.3285 323.0943,-215.0859 365.6721,-191.3861"/>
<polygon fill="#757575" stroke="#757575" points="367.4427,-194.4063 374.4781,-186.4845 364.0382,-188.2899 367.4427,-194.4063"/>
</g>
<!-- components/map&#45;cell.js&#45;&gt;config.js -->
<g id="edge21" class="edge">
<title>components/map&#45;cell.js&#45;&gt;config.js</title>
<path fill="none" stroke="#757575" d="M679.2324,-198.1028C685.7995,-195.6769 692.1674,-192.7677 698.0049,-189.279 718.8205,-176.8389 713.0853,-160.5436 734.0049,-148.279 831.3538,-91.206 869.4688,-95.279 982.3145,-95.279 982.3145,-95.279 982.3145,-95.279 1154.5278,-95.279 1275.1004,-95.279 1323.395,-63.9489 1423.417,-131.279 1458.7631,-155.0724 1478.3153,-203.1993 1487.1702,-231.3729"/>
<polygon fill="#757575" stroke="#757575" points="1483.8556,-232.5066 1490.0508,-241.1014 1490.5676,-230.5191 1483.8556,-232.5066"/>
</g>
<!-- components/map&#45;cell.js&#45;&gt;common/tilesets.js -->
<g id="edge19" class="edge">
<title>components/map&#45;cell.js&#45;&gt;common/tilesets.js</title>
<path fill="none" stroke="#757575" d="M666.3586,-198.1994C689.158,-193.549 715.3879,-188.1989 739.0391,-183.3748"/>
<polygon fill="#757575" stroke="#757575" points="739.9011,-186.7711 748.9999,-181.3431 738.5021,-179.9123 739.9011,-186.7711"/>
</g>
<!-- components/map&#45;cell.js&#45;&gt;components/tile.js -->
<g id="edge20" class="edge">
<title>components/map&#45;cell.js&#45;&gt;components/tile.js</title>
<path fill="none" stroke="#757575" d="M689.0071,-210.4973C754.1595,-210.6709 844.5736,-210.9119 907.7367,-211.0803"/>
<polygon fill="#757575" stroke="#757575" points="908.0138,-214.5809 918.0231,-211.1077 908.0325,-207.5809 908.0138,-214.5809"/>
</g>
<!-- helpers/random.js -->
<g id="node13" class="node">
<title>helpers/random.js</title>
<path fill="none" stroke="#cfffac" d="M863.8558,-261.3779C863.8558,-261.3779 752.4362,-261.3779 752.4362,-261.3779 748.4033,-261.3779 744.3703,-257.3449 744.3703,-253.312 744.3703,-253.312 744.3703,-245.2461 744.3703,-245.2461 744.3703,-241.2132 748.4033,-237.1802 752.4362,-237.1802 752.4362,-237.1802 863.8558,-237.1802 863.8558,-237.1802 867.8887,-237.1802 871.9217,-241.2132 871.9217,-245.2461 871.9217,-245.2461 871.9217,-253.312 871.9217,-253.312 871.9217,-257.3449 867.8887,-261.3779 863.8558,-261.3779"/>
<text text-anchor="middle" x="808.146" y="-246.1284" font-family="Arial" font-size="14.00" fill="#cfffac">helpers/random.js</text>
</g>
<!-- components/map&#45;cell.js&#45;&gt;helpers/random.js -->
<g id="edge22" class="edge">
<title>components/map&#45;cell.js&#45;&gt;helpers/random.js</title>
<path fill="none" stroke="#757575" d="M669.3604,-222.3518C690.4579,-226.4452 714.2013,-231.0519 736.0049,-235.2822"/>
<polygon fill="#757575" stroke="#757575" points="735.3862,-238.7274 745.8698,-237.1962 736.7195,-231.8555 735.3862,-238.7274"/>
</g>
<!-- context.js&#45;&gt;config.js -->
<g id="edge28" class="edge">
<title>context.js&#45;&gt;config.js</title>
<path fill="none" stroke="#757575" d="M414.364,-162.1165C470.1163,-125.5767 646.2204,-19.279 808.146,-19.279 808.146,-19.279 808.146,-19.279 1154.5278,-19.279 1274.3642,-19.279 1329.1254,34.6795 1423.417,-39.279 1454.2856,-63.4911 1479.6011,-181.3968 1489.0814,-231.1069"/>
<polygon fill="#757575" stroke="#757575" points="1485.6798,-231.9579 1490.9562,-241.1454 1492.5608,-230.6728 1485.6798,-231.9579"/>
</g>
<!-- components/tiles&#45;drawer.js -->
<g id="node15" class="node">
<title>components/tiles&#45;drawer.js</title>
<path fill="none" stroke="#c6c5fe" d="M689.8078,-180.3779C689.8078,-180.3779 524.4646,-180.3779 524.4646,-180.3779 520.4317,-180.3779 516.3987,-176.3449 516.3987,-172.312 516.3987,-172.312 516.3987,-164.2461 516.3987,-164.2461 516.3987,-160.2132 520.4317,-156.1802 524.4646,-156.1802 524.4646,-156.1802 689.8078,-156.1802 689.8078,-156.1802 693.8408,-156.1802 697.8737,-160.2132 697.8737,-164.2461 697.8737,-164.2461 697.8737,-172.312 697.8737,-172.312 697.8737,-176.3449 693.8408,-180.3779 689.8078,-180.3779"/>
<text text-anchor="middle" x="607.1362" y="-165.1284" font-family="Arial" font-size="14.00" fill="#c6c5fe">components/tiles&#45;drawer.js</text>
</g>
<!-- components/tiles&#45;drawer.js&#45;&gt;config.js -->
<g id="edge27" class="edge">
<title>components/tiles&#45;drawer.js&#45;&gt;config.js</title>
<path fill="none" stroke="#757575" d="M622.9047,-155.9465C645.9122,-138.6527 690.6748,-107.6003 734.0049,-92.279 839.0803,-55.1249 870.8637,-57.279 982.3145,-57.279 982.3145,-57.279 982.3145,-57.279 1154.5278,-57.279 1274.5915,-57.279 1327.0499,-11.6643 1423.417,-83.279 1471.2118,-118.7975 1486.3536,-192.9189 1491.0493,-230.4522"/>
<polygon fill="#757575" stroke="#757575" points="1487.6201,-231.2868 1492.1958,-240.8425 1494.5779,-230.519 1487.6201,-231.2868"/>
</g>
<!-- components/tiles&#45;drawer.js&#45;&gt;common/tilesets.js -->
<g id="edge26" class="edge">
<title>components/tiles&#45;drawer.js&#45;&gt;common/tilesets.js</title>
<path fill="none" stroke="#757575" d="M697.9378,-168.7308C709.4083,-168.7878 721.0491,-168.8457 732.2548,-168.9015"/>
<polygon fill="#757575" stroke="#757575" points="732.3888,-172.4021 742.4061,-168.952 732.4237,-165.4022 732.3888,-172.4021"/>
</g>
<!-- index.js -->
<g id="node16" class="node">
<title>index.js</title>
<path fill="none" stroke="#c6c5fe" d="M55.639,-302.3779C55.639,-302.3779 7.8298,-302.3779 7.8298,-302.3779 3.7968,-302.3779 -.2361,-298.3449 -.2361,-294.312 -.2361,-294.312 -.2361,-286.2461 -.2361,-286.2461 -.2361,-282.2132 3.7968,-278.1802 7.8298,-278.1802 7.8298,-278.1802 55.639,-278.1802 55.639,-278.1802 59.6719,-278.1802 63.7049,-282.2132 63.7049,-286.2461 63.7049,-286.2461 63.7049,-294.312 63.7049,-294.312 63.7049,-298.3449 59.6719,-302.3779 55.639,-302.3779"/>
<text text-anchor="middle" x="31.7344" y="-287.1284" font-family="Arial" font-size="14.00" fill="#c6c5fe">index.js</text>
</g>
<!-- index.js&#45;&gt;config.js -->
<g id="edge32" class="edge">
<title>index.js&#45;&gt;config.js</title>
<path fill="none" stroke="#757575" d="M40.5824,-302.464C52.4662,-318.102 74.9444,-345.2412 99.4688,-362.279 217.0639,-443.9761 253.217,-487.279 396.4058,-487.279 396.4058,-487.279 396.4058,-487.279 1154.5278,-487.279 1274.9308,-487.279 1329.7652,-529.9508 1423.417,-454.279 1452.0006,-431.1832 1478.25,-322.5383 1488.5223,-275.3015"/>
<polygon fill="#757575" stroke="#757575" points="1491.9604,-275.9607 1490.6255,-265.4503 1485.1147,-274.4991 1491.9604,-275.9607"/>
</g>
<!-- index.js&#45;&gt;components/cursor.js -->
<g id="edge29" class="edge">
<title>index.js&#45;&gt;components/cursor.js</title>
<path fill="none" stroke="#757575" d="M60.7154,-302.4389C111.0754,-323.1263 218.3773,-365.2576 312.5439,-389.279 454.1577,-425.404 624.358,-439.1046 723.9657,-444.2477"/>
<polygon fill="#757575" stroke="#757575" points="723.8123,-447.7443 733.9745,-444.7479 724.1617,-440.753 723.8123,-447.7443"/>
</g>
<!-- index.js&#45;&gt;components/game&#45;map.js -->
<g id="edge30" class="edge">
<title>index.js&#45;&gt;components/game&#45;map.js</title>
<path fill="none" stroke="#757575" d="M63.7354,-290.279C71.3912,-290.279 79.9675,-290.279 88.9414,-290.279"/>
<polygon fill="#757575" stroke="#757575" points="89.2144,-293.7791 99.2143,-290.279 89.2143,-286.7791 89.2144,-293.7791"/>
</g>
<!-- index.js&#45;&gt;context.js -->
<g id="edge33" class="edge">
<title>index.js&#45;&gt;context.js</title>
<path fill="none" stroke="#757575" d="M36.8746,-278.0551C46.0885,-257.8646 67.4907,-218.0189 99.4688,-200.279 177.9651,-156.733 286.4187,-160.2627 348.1909,-167.065"/>
<polygon fill="#757575" stroke="#757575" points="348.0876,-170.577 358.4282,-168.27 348.9059,-163.6249 348.0876,-170.577"/>
</g>
<!-- index.js&#45;&gt;components/tiles&#45;drawer.js -->
<g id="edge31" class="edge">
<title>index.js&#45;&gt;components/tiles&#45;drawer.js</title>
<path fill="none" stroke="#757575" d="M63.5764,-279.6247C74.8401,-276.0645 87.648,-272.2507 99.4688,-269.279 266.6761,-227.2447 311.3223,-229.669 480.2676,-195.279 500.1831,-191.2251 521.8247,-186.6738 541.5001,-182.4796"/>
<polygon fill="#757575" stroke="#757575" points="542.2385,-185.9009 551.2863,-180.3885 540.7757,-179.0554 542.2385,-185.9009"/>
</g>
</g>
</svg>
